<svg width="431" height="128" viewBox="0 0 431 128" fill="none" xmlns="http://www.w3.org/2000/svg">
<path d="M30.5312 52.1562L11.9688 53.0625L12.2188 69L6.21875 69.25L5.5 24.7188L39.4375 24.1875L39.2188 30.1562L11.6562 30.5938L11.9062 46.9062L30.4062 46.1562L30.5312 52.1562ZM57.2188 70.5312C55.7396 70.5104 54.4271 70.2604 53.2812 69.7812C52.1562 69.3021 51.1562 68.6875 50.2812 67.9375C49.4271 67.1667 48.6875 66.2917 48.0625 65.3125C47.4583 64.3333 46.9479 63.3438 46.5312 62.3438C45.5312 59.9688 44.9062 57.2812 44.6562 54.2812L45.5 14.6562H52.0312C51.9271 18.3646 51.8229 21.7708 51.7188 24.875C51.6354 27.9583 51.5625 30.7708 51.5 33.3125C51.4375 35.8333 51.375 38.0938 51.3125 40.0938C51.2708 42.0938 51.2292 43.8542 51.1875 45.375C51.1042 48.9583 51.0417 51.7812 51 53.8438C51.0417 55.7812 51.3229 57.5104 51.8438 59.0312C52.0521 59.6771 52.3229 60.3125 52.6562 60.9375C53.0104 61.5625 53.4271 62.125 53.9062 62.625C54.4062 63.125 54.9896 63.5312 55.6562 63.8438C56.3438 64.1354 57.1354 64.2917 58.0312 64.3125L57.2188 70.5312ZM87.1875 70.9688L87.625 66.5625C85.0833 68.1875 82.5833 69.3646 80.125 70.0938C77.6875 70.8229 75.4062 71.1875 73.2812 71.1875C71.7812 71.1875 70.3229 70.9896 68.9062 70.5938C67.5104 70.2188 66.2708 69.6354 65.1875 68.8438C64.125 68.0312 63.2604 67.0104 62.5938 65.7812C61.9479 64.5312 61.625 63.0625 61.625 61.375C61.625 59.6875 61.875 58.1771 62.375 56.8438C62.875 55.5104 63.5625 54.3333 64.4375 53.3125C65.3125 52.2917 66.3438 51.4167 67.5312 50.6875C68.7188 49.9583 69.9896 49.3646 71.3438 48.9062C72.7188 48.4479 74.1562 48.1146 75.6562 47.9062C77.1562 47.6771 78.6458 47.5625 80.125 47.5625C81.5 47.5625 82.7812 47.6146 83.9688 47.7188C85.1562 47.8229 86.2083 47.9583 87.125 48.125C86.8542 47.0833 86.5208 46.0625 86.125 45.0625C85.7292 44.0417 85.2188 43.1354 84.5938 42.3438C83.9896 41.5312 83.2396 40.875 82.3438 40.375C81.4479 39.875 80.375 39.625 79.125 39.625C78.3125 39.625 77.3854 39.75 76.3438 40C75.3021 40.2292 74.1562 40.6562 72.9062 41.2812C71.6562 41.9062 70.2917 42.7708 68.8125 43.875C67.3333 44.9583 65.75 46.3542 64.0625 48.0625L60.2812 43.4688C62.2812 41.5938 64.1979 40.0625 66.0312 38.875C67.8646 37.6875 69.5833 36.7604 71.1875 36.0938C72.8125 35.4062 74.3125 34.9375 75.6875 34.6875C77.0833 34.4375 78.3333 34.3125 79.4375 34.3125C81.3542 34.3125 83.0625 34.6458 84.5625 35.3125C86.0625 35.9583 87.375 36.8542 88.5 38C89.6458 39.125 90.6042 40.4583 91.375 42C92.1667 43.5208 92.8125 45.1667 93.3125 46.9375C93.8125 48.6875 94.1667 50.5104 94.375 52.4062C94.6042 54.3021 94.7188 56.1875 94.7188 58.0625C94.7188 60.0625 94.6042 62.2083 94.375 64.5C94.1458 66.7917 93.7917 69.2917 93.3125 72L87.1875 70.9688ZM88.0625 59.5938C88.1042 58.5521 88.1354 57.5208 88.1562 56.5C88.1771 55.4792 88.125 54.4167 88 53.3125C86.9792 53 85.9062 52.75 84.7812 52.5625C83.6562 52.375 82.5312 52.2812 81.4062 52.2812C79.5312 52.2812 77.7083 52.5 75.9375 52.9375C74.1875 53.375 72.6771 54.0104 71.4062 54.8438C70.1354 55.6771 69.1771 56.6979 68.5312 57.9062C67.9062 59.1146 67.7812 60.4896 68.1562 62.0312C68.4479 63.2812 69.0104 64.1562 69.8438 64.6562C70.6979 65.1562 71.7188 65.4062 72.9062 65.4062C74.1146 65.4062 75.4167 65.2083 76.8125 64.8125C78.2292 64.3958 79.625 63.8958 81 63.3125C82.3958 62.7083 83.7083 62.0729 84.9375 61.4062C86.1667 60.7396 87.2083 60.1354 88.0625 59.5938ZM131.844 37.3125L119.562 70.2188L110.75 70.0938L99.7812 38.5312L106.125 37.5625L115.469 64.4062L125.406 36.4375L131.844 37.3125ZM168.656 53.8438C168.656 56.4688 168.219 58.8958 167.344 61.125C166.469 63.3542 165.271 65.2917 163.75 66.9375C162.229 68.5833 160.448 69.8646 158.406 70.7812C156.365 71.7188 154.188 72.1875 151.875 72.1875C149.562 72.1875 147.396 71.75 145.375 70.875C143.354 70 141.583 68.7604 140.062 67.1562C138.562 65.5312 137.375 63.5938 136.5 61.3438C135.625 59.0938 135.188 56.5938 135.188 53.8438C135.188 51.0729 135.625 48.5625 136.5 46.3125C137.375 44.0417 138.562 42.1042 140.062 40.5C141.583 38.8958 143.354 37.6562 145.375 36.7812C147.396 35.9062 149.562 35.4688 151.875 35.4688C154.188 35.4688 156.365 35.9375 158.406 36.875C160.448 37.7917 162.229 39.0729 163.75 40.7188C165.271 42.3438 166.469 44.2812 167.344 46.5312C168.219 48.7604 168.656 51.1979 168.656 53.8438ZM162.062 53.7812C162.062 52.2812 161.875 50.7708 161.5 49.25C161.125 47.7083 160.531 46.3333 159.719 45.125C158.906 43.8958 157.854 42.8958 156.562 42.125C155.271 41.3542 153.708 40.9688 151.875 40.9688C150.104 40.9688 148.583 41.3542 147.312 42.125C146.042 42.8958 145 43.8958 144.188 45.125C143.375 46.3333 142.781 47.7083 142.406 49.25C142.031 50.7708 141.844 52.2812 141.844 53.7812C141.844 55.2812 142.042 56.7917 142.438 58.3125C142.854 59.8333 143.479 61.2083 144.312 62.4375C145.146 63.6458 146.188 64.6354 147.438 65.4062C148.708 66.1771 150.188 66.5625 151.875 66.5625C153.646 66.5625 155.167 66.1771 156.438 65.4062C157.729 64.6354 158.792 63.6458 159.625 62.4375C160.458 61.2083 161.073 59.8333 161.469 58.3125C161.865 56.7917 162.062 55.2812 162.062 53.7812ZM199.156 51.4062C199.135 50.3854 199.042 49.5 198.875 48.75C198.729 48 198.531 47.3542 198.281 46.8125C198.052 46.2708 197.781 45.8229 197.469 45.4688C197.177 45.1146 196.875 44.8229 196.562 44.5938C195.833 44.0729 195.01 43.8229 194.094 43.8438C193.51 43.9271 192.885 44.1771 192.219 44.5938C191.573 44.9896 190.906 45.5104 190.219 46.1562C189.531 46.7812 188.833 47.5 188.125 48.3125C187.438 49.1042 186.771 49.9271 186.125 50.7812C185.479 51.6146 184.865 52.4479 184.281 53.2812C183.698 54.1146 183.177 54.875 182.719 55.5625C182.74 57.125 182.771 58.6667 182.812 60.1875C182.854 61.6875 182.885 63.0938 182.906 64.4062C182.948 65.6979 182.99 66.875 183.031 67.9375C183.094 68.9792 183.156 69.8229 183.219 70.4688L176.5 71.3125C176.375 67.7292 176.26 64.4896 176.156 61.5938C176.052 58.6771 175.958 56.0729 175.875 53.7812C175.792 51.4896 175.719 49.4688 175.656 47.7188C175.615 45.9688 175.573 44.4583 175.531 43.1875C175.448 40.2083 175.385 38 175.344 36.5625L182.469 36.4375C182.49 37.7083 182.5 39.0104 182.5 40.3438C182.521 41.6562 182.542 42.8646 182.562 43.9688C182.583 45.2604 182.594 46.5208 182.594 47.75C183.198 46.7917 183.927 45.7396 184.781 44.5938C185.656 43.4479 186.635 42.3646 187.719 41.3438C188.823 40.3229 190.021 39.4375 191.312 38.6875C192.625 37.9167 194.021 37.4375 195.5 37.25C197.167 37.1667 198.688 37.5208 200.062 38.3125C200.646 38.6458 201.219 39.0938 201.781 39.6562C202.365 40.1979 202.896 40.9062 203.375 41.7812C203.875 42.6354 204.292 43.6667 204.625 44.875C204.958 46.0625 205.188 47.4688 205.312 49.0938L199.156 51.4062ZM252.531 52.1562L233.969 53.0625L234.219 69L228.219 69.25L227.5 24.7188L261.438 24.1875L261.219 30.1562L233.656 30.5938L233.906 46.9062L252.406 46.1562L252.531 52.1562ZM289.719 71.25L289.594 62.2812C288.906 63.5104 288.125 64.6771 287.25 65.7812C286.375 66.8646 285.427 67.8229 284.406 68.6562C283.385 69.4688 282.292 70.1146 281.125 70.5938C279.979 71.0729 278.771 71.2917 277.5 71.25C275.625 71.1875 274.01 70.8333 272.656 70.1875C271.323 69.5417 270.198 68.6875 269.281 67.625C268.365 66.5417 267.625 65.3021 267.062 63.9062C266.521 62.4896 266.104 61 265.812 59.4375C265.521 57.875 265.323 56.2812 265.219 54.6562C265.135 53.0104 265.094 51.4167 265.094 49.875C265.094 47.7083 265.188 45.5208 265.375 43.3125C265.562 41.0833 265.833 38.8125 266.188 36.5L272.594 36.6875C272.26 39.2708 272.031 41.5938 271.906 43.6562C271.802 45.7188 271.75 47.5312 271.75 49.0938C271.75 49.8021 271.76 50.6979 271.781 51.7812C271.802 52.8646 271.875 54.0208 272 55.25C272.146 56.4583 272.365 57.6562 272.656 58.8438C272.948 60.0312 273.354 61.0938 273.875 62.0312C274.417 62.9479 275.094 63.6562 275.906 64.1562C276.719 64.6562 277.719 64.8229 278.906 64.6562C280.51 64.4271 282.177 63.3229 283.906 61.3438C285.656 59.3646 287.49 56.3229 289.406 52.2188C289.344 48.9062 289.281 46.2604 289.219 44.2812C289.177 42.3021 289.146 40.7917 289.125 39.75C289.083 38.5208 289.052 37.6667 289.031 37.1875L295.75 36.4375C295.875 40.0208 295.979 43.2604 296.062 46.1562C296.167 49.0312 296.26 51.625 296.344 53.9375C296.427 56.2292 296.49 58.25 296.531 60C296.594 61.7292 296.646 63.2292 296.688 64.5C296.771 67.4792 296.823 69.6875 296.844 71.125L289.719 71.25ZM334.406 62.1562C334.406 64.1354 334 65.8021 333.188 67.1562C332.396 68.4896 331.323 69.5729 329.969 70.4062C328.635 71.2604 327.094 71.8854 325.344 72.2812C323.615 72.6979 321.812 72.9479 319.938 73.0312C318.021 73.0104 316.083 72.8125 314.125 72.4375C313.292 72.2917 312.406 72.0833 311.469 71.8125C310.552 71.5625 309.615 71.25 308.656 70.875C307.698 70.5 306.74 70.0521 305.781 69.5312C304.823 69.0104 303.906 68.4062 303.031 67.7188L306.062 62.9688C307.208 63.5729 308.375 64.1562 309.562 64.7188C310.771 65.2812 312 65.7812 313.25 66.2188C314.5 66.6354 315.781 66.9688 317.094 67.2188C318.406 67.4688 319.76 67.5938 321.156 67.5938C322.302 67.5938 323.271 67.4896 324.062 67.2812C324.854 67.0521 325.5 66.7812 326 66.4688C326.521 66.1354 326.917 65.7708 327.188 65.375C327.479 64.9583 327.688 64.5625 327.812 64.1875C327.917 63.8542 327.958 63.4896 327.938 63.0938C327.917 62.6771 327.802 62.2604 327.594 61.8438C327.406 61.4271 327.104 61.0208 326.688 60.625C326.292 60.2083 325.76 59.8438 325.094 59.5312C324.427 59.1979 323.615 58.9271 322.656 58.7188C321.698 58.5104 320.562 58.375 319.25 58.3125C317.375 58.2292 315.562 58.0417 313.812 57.75C312.083 57.4375 310.531 56.9583 309.156 56.3125C307.802 55.6667 306.677 54.8229 305.781 53.7812C304.906 52.7188 304.375 51.3958 304.188 49.8125C304.042 48.3125 304.135 46.9479 304.469 45.7188C304.823 44.4688 305.344 43.3542 306.031 42.375C306.74 41.3958 307.604 40.5417 308.625 39.8125C309.646 39.0625 310.76 38.4479 311.969 37.9688C313.177 37.4688 314.448 37.1042 315.781 36.875C317.135 36.625 318.5 36.5 319.875 36.5C320.688 36.5 321.646 36.5417 322.75 36.625C323.854 36.7083 325.01 36.875 326.219 37.125C327.427 37.375 328.646 37.7396 329.875 38.2188C331.104 38.6771 332.25 39.2917 333.312 40.0625L331.156 45.7812C329.781 45.0521 328.469 44.4896 327.219 44.0938C325.99 43.6771 324.896 43.3542 323.938 43.125C322.812 42.875 321.76 42.7083 320.781 42.625C317.51 42.4375 314.958 42.7812 313.125 43.6562C311.312 44.5312 310.406 45.8542 310.406 47.625C310.406 48.875 310.75 49.7917 311.438 50.375C312.125 50.9375 313.062 51.3438 314.25 51.5938C315.438 51.8438 316.823 52.0104 318.406 52.0938C319.99 52.1771 321.677 52.3542 323.469 52.625C325.51 52.9375 327.229 53.4062 328.625 54.0312C330.021 54.6562 331.146 55.3854 332 56.2188C332.854 57.0521 333.469 57.9792 333.844 59C334.219 60 334.406 61.0521 334.406 62.1562ZM349.625 27.3438C349.625 27.9479 349.5 28.5208 349.25 29.0625C349.021 29.6042 348.698 30.0729 348.281 30.4688C347.885 30.8646 347.417 31.1771 346.875 31.4062C346.333 31.6354 345.75 31.75 345.125 31.75C344.521 31.75 343.948 31.6354 343.406 31.4062C342.885 31.1771 342.417 30.8646 342 30.4688C341.604 30.0729 341.292 29.6042 341.062 29.0625C340.833 28.5208 340.719 27.9479 340.719 27.3438C340.719 26.7188 340.833 26.1354 341.062 25.5938C341.292 25.0521 341.604 24.5833 342 24.1875C342.417 23.7708 342.885 23.4479 343.406 23.2188C343.948 22.9688 344.521 22.8438 345.125 22.8438C345.75 22.8438 346.333 22.9688 346.875 23.2188C347.417 23.4479 347.885 23.7708 348.281 24.1875C348.698 24.5833 349.021 25.0521 349.25 25.5938C349.5 26.1354 349.625 26.7188 349.625 27.3438ZM348.156 38.3438C348.094 41.3229 348.031 44.0625 347.969 46.5625C347.927 49.0417 347.885 51.3021 347.844 53.3438C347.802 55.3854 347.76 57.2188 347.719 58.8438C347.698 60.4479 347.677 61.8542 347.656 63.0625C347.594 65.9375 347.562 68.1979 347.562 69.8438H341.156C341.198 67.5938 341.25 64.9167 341.312 61.8125C341.354 59.1458 341.406 55.8854 341.469 52.0312C341.552 48.1771 341.625 43.6979 341.688 38.5938L348.156 38.3438ZM388.531 53.8438C388.531 56.4688 388.094 58.8958 387.219 61.125C386.344 63.3542 385.146 65.2917 383.625 66.9375C382.104 68.5833 380.323 69.8646 378.281 70.7812C376.24 71.7188 374.062 72.1875 371.75 72.1875C369.438 72.1875 367.271 71.75 365.25 70.875C363.229 70 361.458 68.7604 359.938 67.1562C358.438 65.5312 357.25 63.5938 356.375 61.3438C355.5 59.0938 355.062 56.5938 355.062 53.8438C355.062 51.0729 355.5 48.5625 356.375 46.3125C357.25 44.0417 358.438 42.1042 359.938 40.5C361.458 38.8958 363.229 37.6562 365.25 36.7812C367.271 35.9062 369.438 35.4688 371.75 35.4688C374.062 35.4688 376.24 35.9375 378.281 36.875C380.323 37.7917 382.104 39.0729 383.625 40.7188C385.146 42.3438 386.344 44.2812 387.219 46.5312C388.094 48.7604 388.531 51.1979 388.531 53.8438ZM381.938 53.7812C381.938 52.2812 381.75 50.7708 381.375 49.25C381 47.7083 380.406 46.3333 379.594 45.125C378.781 43.8958 377.729 42.8958 376.438 42.125C375.146 41.3542 373.583 40.9688 371.75 40.9688C369.979 40.9688 368.458 41.3542 367.188 42.125C365.917 42.8958 364.875 43.8958 364.062 45.125C363.25 46.3333 362.656 47.7083 362.281 49.25C361.906 50.7708 361.719 52.2812 361.719 53.7812C361.719 55.2812 361.917 56.7917 362.312 58.3125C362.729 59.8333 363.354 61.2083 364.188 62.4375C365.021 63.6458 366.062 64.6354 367.312 65.4062C368.583 66.1771 370.062 66.5625 371.75 66.5625C373.521 66.5625 375.042 66.1771 376.312 65.4062C377.604 64.6354 378.667 63.6458 379.5 62.4375C380.333 61.2083 380.948 59.8333 381.344 58.3125C381.74 56.7917 381.938 55.2812 381.938 53.7812ZM396.375 71.3125C396.25 67.7292 396.135 64.4896 396.031 61.5938C395.927 58.6771 395.833 56.0729 395.75 53.7812C395.667 51.4896 395.594 49.4688 395.531 47.7188C395.49 45.9688 395.448 44.4583 395.406 43.1875C395.323 40.2083 395.26 38 395.219 36.5625L402.344 36.4375L402.469 45.4375C403.156 44.25 403.938 43.1354 404.812 42.0938C405.688 41.0312 406.635 40.0938 407.656 39.2812C408.677 38.4688 409.76 37.8125 410.906 37.3125C412.073 36.8125 413.292 36.5208 414.562 36.4375C416.146 36.3333 417.521 36.4688 418.688 36.8438C419.875 37.2188 420.885 37.7396 421.719 38.4062C422.552 39.0729 423.24 39.8646 423.781 40.7812C424.323 41.6771 424.75 42.6146 425.062 43.5938C425.375 44.5521 425.594 45.5104 425.719 46.4688C425.865 47.4271 425.958 48.3021 426 49.0938C426.125 52.6771 426.156 56.2812 426.094 59.9062C426.031 63.5312 425.958 67.2917 425.875 71.1875L419.469 70.9688C419.635 67.6146 419.781 64.2604 419.906 60.9062C420.052 57.5521 420.042 54.1667 419.875 50.75C419.875 50.375 419.844 49.8958 419.781 49.3125C419.74 48.7083 419.625 48.0729 419.438 47.4062C419.271 46.7396 419.031 46.0833 418.719 45.4375C418.406 44.7708 418 44.1979 417.5 43.7188C417 43.2188 416.385 42.8438 415.656 42.5938C414.948 42.3438 414.115 42.2917 413.156 42.4375C411.51 42.6875 409.833 43.8958 408.125 46.0625C406.438 48.2083 404.615 51.3542 402.656 55.5C402.74 58.8542 402.802 61.5312 402.844 63.5312C402.906 65.5104 402.958 67.0104 403 68.0312C403.042 69.2396 403.073 70.0521 403.094 70.4688L396.375 71.3125Z" fill="#157347"/>
<path d="M70 96.9599C151.181 138.316 300.165 114.299 359.859 84" stroke="#157347" stroke-opacity="0.9" stroke-width="7" stroke-linecap="round" stroke-linejoin="round"/>
<path d="M255 113.865C321.318 132.985 366.043 122.803 317.638 102" stroke="#157347" stroke-opacity="0.9" stroke-width="7" stroke-linecap="round" stroke-linejoin="round"/>
</svg>
