<svg width="441" height="441" viewBox="0 0 441 441" fill="none" xmlns="http://www.w3.org/2000/svg">
<circle cx="220.5" cy="220.5" r="220.5" fill="white"/>
<mask id="path-2-outside-1_115_35" maskUnits="userSpaceOnUse" x="120" y="121" width="203" height="154" fill="black">
<rect fill="white" x="120" y="121" width="203" height="154"/>
<path d="M146.531 160.156L127.969 161.062L128.219 177L122.219 177.25L121.5 132.719L155.438 132.188L155.219 138.156L127.656 138.594L127.906 154.906L146.406 154.156L146.531 160.156ZM173.219 178.531C171.74 178.51 170.427 178.26 169.281 177.781C168.156 177.302 167.156 176.688 166.281 175.938C165.427 175.167 164.688 174.292 164.062 173.312C163.458 172.333 162.948 171.344 162.531 170.344C161.531 167.969 160.906 165.281 160.656 162.281L161.5 122.656H168.031C167.927 126.365 167.823 129.771 167.719 132.875C167.635 135.958 167.562 138.771 167.5 141.312C167.438 143.833 167.375 146.094 167.312 148.094C167.271 150.094 167.229 151.854 167.188 153.375C167.104 156.958 167.042 159.781 167 161.844C167.042 163.781 167.323 165.51 167.844 167.031C168.052 167.677 168.323 168.312 168.656 168.938C169.01 169.562 169.427 170.125 169.906 170.625C170.406 171.125 170.99 171.531 171.656 171.844C172.344 172.135 173.135 172.292 174.031 172.312L173.219 178.531ZM203.188 178.969L203.625 174.562C201.083 176.188 198.583 177.365 196.125 178.094C193.688 178.823 191.406 179.188 189.281 179.188C187.781 179.188 186.323 178.99 184.906 178.594C183.51 178.219 182.271 177.635 181.188 176.844C180.125 176.031 179.26 175.01 178.594 173.781C177.948 172.531 177.625 171.062 177.625 169.375C177.625 167.688 177.875 166.177 178.375 164.844C178.875 163.51 179.562 162.333 180.438 161.312C181.312 160.292 182.344 159.417 183.531 158.688C184.719 157.958 185.99 157.365 187.344 156.906C188.719 156.448 190.156 156.115 191.656 155.906C193.156 155.677 194.646 155.562 196.125 155.562C197.5 155.562 198.781 155.615 199.969 155.719C201.156 155.823 202.208 155.958 203.125 156.125C202.854 155.083 202.521 154.062 202.125 153.062C201.729 152.042 201.219 151.135 200.594 150.344C199.99 149.531 199.24 148.875 198.344 148.375C197.448 147.875 196.375 147.625 195.125 147.625C194.312 147.625 193.385 147.75 192.344 148C191.302 148.229 190.156 148.656 188.906 149.281C187.656 149.906 186.292 150.771 184.812 151.875C183.333 152.958 181.75 154.354 180.062 156.062L176.281 151.469C178.281 149.594 180.198 148.062 182.031 146.875C183.865 145.688 185.583 144.76 187.188 144.094C188.812 143.406 190.312 142.938 191.688 142.688C193.083 142.438 194.333 142.312 195.438 142.312C197.354 142.312 199.062 142.646 200.562 143.312C202.062 143.958 203.375 144.854 204.5 146C205.646 147.125 206.604 148.458 207.375 150C208.167 151.521 208.812 153.167 209.312 154.938C209.812 156.688 210.167 158.51 210.375 160.406C210.604 162.302 210.719 164.188 210.719 166.062C210.719 168.062 210.604 170.208 210.375 172.5C210.146 174.792 209.792 177.292 209.312 180L203.188 178.969ZM204.062 167.594C204.104 166.552 204.135 165.521 204.156 164.5C204.177 163.479 204.125 162.417 204 161.312C202.979 161 201.906 160.75 200.781 160.562C199.656 160.375 198.531 160.281 197.406 160.281C195.531 160.281 193.708 160.5 191.938 160.938C190.188 161.375 188.677 162.01 187.406 162.844C186.135 163.677 185.177 164.698 184.531 165.906C183.906 167.115 183.781 168.49 184.156 170.031C184.448 171.281 185.01 172.156 185.844 172.656C186.698 173.156 187.719 173.406 188.906 173.406C190.115 173.406 191.417 173.208 192.812 172.812C194.229 172.396 195.625 171.896 197 171.312C198.396 170.708 199.708 170.073 200.938 169.406C202.167 168.74 203.208 168.135 204.062 167.594ZM247.844 145.312L235.562 178.219L226.75 178.094L215.781 146.531L222.125 145.562L231.469 172.406L241.406 144.438L247.844 145.312ZM284.656 161.844C284.656 164.469 284.219 166.896 283.344 169.125C282.469 171.354 281.271 173.292 279.75 174.938C278.229 176.583 276.448 177.865 274.406 178.781C272.365 179.719 270.188 180.188 267.875 180.188C265.562 180.188 263.396 179.75 261.375 178.875C259.354 178 257.583 176.76 256.062 175.156C254.562 173.531 253.375 171.594 252.5 169.344C251.625 167.094 251.188 164.594 251.188 161.844C251.188 159.073 251.625 156.562 252.5 154.312C253.375 152.042 254.562 150.104 256.062 148.5C257.583 146.896 259.354 145.656 261.375 144.781C263.396 143.906 265.562 143.469 267.875 143.469C270.188 143.469 272.365 143.938 274.406 144.875C276.448 145.792 278.229 147.073 279.75 148.719C281.271 150.344 282.469 152.281 283.344 154.531C284.219 156.76 284.656 159.198 284.656 161.844ZM278.062 161.781C278.062 160.281 277.875 158.771 277.5 157.25C277.125 155.708 276.531 154.333 275.719 153.125C274.906 151.896 273.854 150.896 272.562 150.125C271.271 149.354 269.708 148.969 267.875 148.969C266.104 148.969 264.583 149.354 263.312 150.125C262.042 150.896 261 151.896 260.188 153.125C259.375 154.333 258.781 155.708 258.406 157.25C258.031 158.771 257.844 160.281 257.844 161.781C257.844 163.281 258.042 164.792 258.438 166.312C258.854 167.833 259.479 169.208 260.312 170.438C261.146 171.646 262.188 172.635 263.438 173.406C264.708 174.177 266.188 174.562 267.875 174.562C269.646 174.562 271.167 174.177 272.438 173.406C273.729 172.635 274.792 171.646 275.625 170.438C276.458 169.208 277.073 167.833 277.469 166.312C277.865 164.792 278.062 163.281 278.062 161.781ZM315.156 159.406C315.135 158.385 315.042 157.5 314.875 156.75C314.729 156 314.531 155.354 314.281 154.812C314.052 154.271 313.781 153.823 313.469 153.469C313.177 153.115 312.875 152.823 312.562 152.594C311.833 152.073 311.01 151.823 310.094 151.844C309.51 151.927 308.885 152.177 308.219 152.594C307.573 152.99 306.906 153.51 306.219 154.156C305.531 154.781 304.833 155.5 304.125 156.312C303.438 157.104 302.771 157.927 302.125 158.781C301.479 159.615 300.865 160.448 300.281 161.281C299.698 162.115 299.177 162.875 298.719 163.562C298.74 165.125 298.771 166.667 298.812 168.188C298.854 169.688 298.885 171.094 298.906 172.406C298.948 173.698 298.99 174.875 299.031 175.938C299.094 176.979 299.156 177.823 299.219 178.469L292.5 179.312C292.375 175.729 292.26 172.49 292.156 169.594C292.052 166.677 291.958 164.073 291.875 161.781C291.792 159.49 291.719 157.469 291.656 155.719C291.615 153.969 291.573 152.458 291.531 151.188C291.448 148.208 291.385 146 291.344 144.562L298.469 144.438C298.49 145.708 298.5 147.01 298.5 148.344C298.521 149.656 298.542 150.865 298.562 151.969C298.583 153.26 298.594 154.521 298.594 155.75C299.198 154.792 299.927 153.74 300.781 152.594C301.656 151.448 302.635 150.365 303.719 149.344C304.823 148.323 306.021 147.438 307.312 146.688C308.625 145.917 310.021 145.438 311.5 145.25C313.167 145.167 314.688 145.521 316.062 146.312C316.646 146.646 317.219 147.094 317.781 147.656C318.365 148.198 318.896 148.906 319.375 149.781C319.875 150.635 320.292 151.667 320.625 152.875C320.958 154.062 321.188 155.469 321.312 157.094L315.156 159.406ZM146.531 252.156L127.969 253.062L128.219 269L122.219 269.25L121.5 224.719L155.438 224.188L155.219 230.156L127.656 230.594L127.906 246.906L146.406 246.156L146.531 252.156ZM183.719 271.25L183.594 262.281C182.906 263.51 182.125 264.677 181.25 265.781C180.375 266.865 179.427 267.823 178.406 268.656C177.385 269.469 176.292 270.115 175.125 270.594C173.979 271.073 172.771 271.292 171.5 271.25C169.625 271.188 168.01 270.833 166.656 270.188C165.323 269.542 164.198 268.688 163.281 267.625C162.365 266.542 161.625 265.302 161.062 263.906C160.521 262.49 160.104 261 159.812 259.438C159.521 257.875 159.323 256.281 159.219 254.656C159.135 253.01 159.094 251.417 159.094 249.875C159.094 247.708 159.188 245.521 159.375 243.312C159.562 241.083 159.833 238.812 160.188 236.5L166.594 236.688C166.26 239.271 166.031 241.594 165.906 243.656C165.802 245.719 165.75 247.531 165.75 249.094C165.75 249.802 165.76 250.698 165.781 251.781C165.802 252.865 165.875 254.021 166 255.25C166.146 256.458 166.365 257.656 166.656 258.844C166.948 260.031 167.354 261.094 167.875 262.031C168.417 262.948 169.094 263.656 169.906 264.156C170.719 264.656 171.719 264.823 172.906 264.656C174.51 264.427 176.177 263.323 177.906 261.344C179.656 259.365 181.49 256.323 183.406 252.219C183.344 248.906 183.281 246.26 183.219 244.281C183.177 242.302 183.146 240.792 183.125 239.75C183.083 238.521 183.052 237.667 183.031 237.188L189.75 236.438C189.875 240.021 189.979 243.26 190.062 246.156C190.167 249.031 190.26 251.625 190.344 253.938C190.427 256.229 190.49 258.25 190.531 260C190.594 261.729 190.646 263.229 190.688 264.5C190.771 267.479 190.823 269.688 190.844 271.125L183.719 271.25ZM228.406 262.156C228.406 264.135 228 265.802 227.188 267.156C226.396 268.49 225.323 269.573 223.969 270.406C222.635 271.26 221.094 271.885 219.344 272.281C217.615 272.698 215.812 272.948 213.938 273.031C212.021 273.01 210.083 272.812 208.125 272.438C207.292 272.292 206.406 272.083 205.469 271.812C204.552 271.562 203.615 271.25 202.656 270.875C201.698 270.5 200.74 270.052 199.781 269.531C198.823 269.01 197.906 268.406 197.031 267.719L200.062 262.969C201.208 263.573 202.375 264.156 203.562 264.719C204.771 265.281 206 265.781 207.25 266.219C208.5 266.635 209.781 266.969 211.094 267.219C212.406 267.469 213.76 267.594 215.156 267.594C216.302 267.594 217.271 267.49 218.062 267.281C218.854 267.052 219.5 266.781 220 266.469C220.521 266.135 220.917 265.771 221.188 265.375C221.479 264.958 221.688 264.562 221.812 264.188C221.917 263.854 221.958 263.49 221.938 263.094C221.917 262.677 221.802 262.26 221.594 261.844C221.406 261.427 221.104 261.021 220.688 260.625C220.292 260.208 219.76 259.844 219.094 259.531C218.427 259.198 217.615 258.927 216.656 258.719C215.698 258.51 214.562 258.375 213.25 258.312C211.375 258.229 209.562 258.042 207.812 257.75C206.083 257.438 204.531 256.958 203.156 256.312C201.802 255.667 200.677 254.823 199.781 253.781C198.906 252.719 198.375 251.396 198.188 249.812C198.042 248.312 198.135 246.948 198.469 245.719C198.823 244.469 199.344 243.354 200.031 242.375C200.74 241.396 201.604 240.542 202.625 239.812C203.646 239.062 204.76 238.448 205.969 237.969C207.177 237.469 208.448 237.104 209.781 236.875C211.135 236.625 212.5 236.5 213.875 236.5C214.688 236.5 215.646 236.542 216.75 236.625C217.854 236.708 219.01 236.875 220.219 237.125C221.427 237.375 222.646 237.74 223.875 238.219C225.104 238.677 226.25 239.292 227.312 240.062L225.156 245.781C223.781 245.052 222.469 244.49 221.219 244.094C219.99 243.677 218.896 243.354 217.938 243.125C216.812 242.875 215.76 242.708 214.781 242.625C211.51 242.438 208.958 242.781 207.125 243.656C205.312 244.531 204.406 245.854 204.406 247.625C204.406 248.875 204.75 249.792 205.438 250.375C206.125 250.938 207.062 251.344 208.25 251.594C209.438 251.844 210.823 252.01 212.406 252.094C213.99 252.177 215.677 252.354 217.469 252.625C219.51 252.938 221.229 253.406 222.625 254.031C224.021 254.656 225.146 255.385 226 256.219C226.854 257.052 227.469 257.979 227.844 259C228.219 260 228.406 261.052 228.406 262.156ZM243.625 227.344C243.625 227.948 243.5 228.521 243.25 229.062C243.021 229.604 242.698 230.073 242.281 230.469C241.885 230.865 241.417 231.177 240.875 231.406C240.333 231.635 239.75 231.75 239.125 231.75C238.521 231.75 237.948 231.635 237.406 231.406C236.885 231.177 236.417 230.865 236 230.469C235.604 230.073 235.292 229.604 235.062 229.062C234.833 228.521 234.719 227.948 234.719 227.344C234.719 226.719 234.833 226.135 235.062 225.594C235.292 225.052 235.604 224.583 236 224.188C236.417 223.771 236.885 223.448 237.406 223.219C237.948 222.969 238.521 222.844 239.125 222.844C239.75 222.844 240.333 222.969 240.875 223.219C241.417 223.448 241.885 223.771 242.281 224.188C242.698 224.583 243.021 225.052 243.25 225.594C243.5 226.135 243.625 226.719 243.625 227.344ZM242.156 238.344C242.094 241.323 242.031 244.062 241.969 246.562C241.927 249.042 241.885 251.302 241.844 253.344C241.802 255.385 241.76 257.219 241.719 258.844C241.698 260.448 241.677 261.854 241.656 263.062C241.594 265.938 241.562 268.198 241.562 269.844H235.156C235.198 267.594 235.25 264.917 235.312 261.812C235.354 259.146 235.406 255.885 235.469 252.031C235.552 248.177 235.625 243.698 235.688 238.594L242.156 238.344ZM282.531 253.844C282.531 256.469 282.094 258.896 281.219 261.125C280.344 263.354 279.146 265.292 277.625 266.938C276.104 268.583 274.323 269.865 272.281 270.781C270.24 271.719 268.062 272.188 265.75 272.188C263.438 272.188 261.271 271.75 259.25 270.875C257.229 270 255.458 268.76 253.938 267.156C252.438 265.531 251.25 263.594 250.375 261.344C249.5 259.094 249.062 256.594 249.062 253.844C249.062 251.073 249.5 248.562 250.375 246.312C251.25 244.042 252.438 242.104 253.938 240.5C255.458 238.896 257.229 237.656 259.25 236.781C261.271 235.906 263.438 235.469 265.75 235.469C268.062 235.469 270.24 235.938 272.281 236.875C274.323 237.792 276.104 239.073 277.625 240.719C279.146 242.344 280.344 244.281 281.219 246.531C282.094 248.76 282.531 251.198 282.531 253.844ZM275.938 253.781C275.938 252.281 275.75 250.771 275.375 249.25C275 247.708 274.406 246.333 273.594 245.125C272.781 243.896 271.729 242.896 270.438 242.125C269.146 241.354 267.583 240.969 265.75 240.969C263.979 240.969 262.458 241.354 261.188 242.125C259.917 242.896 258.875 243.896 258.062 245.125C257.25 246.333 256.656 247.708 256.281 249.25C255.906 250.771 255.719 252.281 255.719 253.781C255.719 255.281 255.917 256.792 256.312 258.312C256.729 259.833 257.354 261.208 258.188 262.438C259.021 263.646 260.062 264.635 261.312 265.406C262.583 266.177 264.062 266.562 265.75 266.562C267.521 266.562 269.042 266.177 270.312 265.406C271.604 264.635 272.667 263.646 273.5 262.438C274.333 261.208 274.948 259.833 275.344 258.312C275.74 256.792 275.938 255.281 275.938 253.781ZM290.375 271.312C290.25 267.729 290.135 264.49 290.031 261.594C289.927 258.677 289.833 256.073 289.75 253.781C289.667 251.49 289.594 249.469 289.531 247.719C289.49 245.969 289.448 244.458 289.406 243.188C289.323 240.208 289.26 238 289.219 236.562L296.344 236.438L296.469 245.438C297.156 244.25 297.938 243.135 298.812 242.094C299.688 241.031 300.635 240.094 301.656 239.281C302.677 238.469 303.76 237.812 304.906 237.312C306.073 236.812 307.292 236.521 308.562 236.438C310.146 236.333 311.521 236.469 312.688 236.844C313.875 237.219 314.885 237.74 315.719 238.406C316.552 239.073 317.24 239.865 317.781 240.781C318.323 241.677 318.75 242.615 319.062 243.594C319.375 244.552 319.594 245.51 319.719 246.469C319.865 247.427 319.958 248.302 320 249.094C320.125 252.677 320.156 256.281 320.094 259.906C320.031 263.531 319.958 267.292 319.875 271.188L313.469 270.969C313.635 267.615 313.781 264.26 313.906 260.906C314.052 257.552 314.042 254.167 313.875 250.75C313.875 250.375 313.844 249.896 313.781 249.312C313.74 248.708 313.625 248.073 313.438 247.406C313.271 246.74 313.031 246.083 312.719 245.438C312.406 244.771 312 244.198 311.5 243.719C311 243.219 310.385 242.844 309.656 242.594C308.948 242.344 308.115 242.292 307.156 242.438C305.51 242.688 303.833 243.896 302.125 246.062C300.438 248.208 298.615 251.354 296.656 255.5C296.74 258.854 296.802 261.531 296.844 263.531C296.906 265.51 296.958 267.01 297 268.031C297.042 269.24 297.073 270.052 297.094 270.469L290.375 271.312Z"/>
</mask>
<path d="M146.531 160.156L127.969 161.062L128.219 177L122.219 177.25L121.5 132.719L155.438 132.188L155.219 138.156L127.656 138.594L127.906 154.906L146.406 154.156L146.531 160.156ZM173.219 178.531C171.74 178.51 170.427 178.26 169.281 177.781C168.156 177.302 167.156 176.688 166.281 175.938C165.427 175.167 164.688 174.292 164.062 173.312C163.458 172.333 162.948 171.344 162.531 170.344C161.531 167.969 160.906 165.281 160.656 162.281L161.5 122.656H168.031C167.927 126.365 167.823 129.771 167.719 132.875C167.635 135.958 167.562 138.771 167.5 141.312C167.438 143.833 167.375 146.094 167.312 148.094C167.271 150.094 167.229 151.854 167.188 153.375C167.104 156.958 167.042 159.781 167 161.844C167.042 163.781 167.323 165.51 167.844 167.031C168.052 167.677 168.323 168.312 168.656 168.938C169.01 169.562 169.427 170.125 169.906 170.625C170.406 171.125 170.99 171.531 171.656 171.844C172.344 172.135 173.135 172.292 174.031 172.312L173.219 178.531ZM203.188 178.969L203.625 174.562C201.083 176.188 198.583 177.365 196.125 178.094C193.688 178.823 191.406 179.188 189.281 179.188C187.781 179.188 186.323 178.99 184.906 178.594C183.51 178.219 182.271 177.635 181.188 176.844C180.125 176.031 179.26 175.01 178.594 173.781C177.948 172.531 177.625 171.062 177.625 169.375C177.625 167.688 177.875 166.177 178.375 164.844C178.875 163.51 179.562 162.333 180.438 161.312C181.312 160.292 182.344 159.417 183.531 158.688C184.719 157.958 185.99 157.365 187.344 156.906C188.719 156.448 190.156 156.115 191.656 155.906C193.156 155.677 194.646 155.562 196.125 155.562C197.5 155.562 198.781 155.615 199.969 155.719C201.156 155.823 202.208 155.958 203.125 156.125C202.854 155.083 202.521 154.062 202.125 153.062C201.729 152.042 201.219 151.135 200.594 150.344C199.99 149.531 199.24 148.875 198.344 148.375C197.448 147.875 196.375 147.625 195.125 147.625C194.312 147.625 193.385 147.75 192.344 148C191.302 148.229 190.156 148.656 188.906 149.281C187.656 149.906 186.292 150.771 184.812 151.875C183.333 152.958 181.75 154.354 180.062 156.062L176.281 151.469C178.281 149.594 180.198 148.062 182.031 146.875C183.865 145.688 185.583 144.76 187.188 144.094C188.812 143.406 190.312 142.938 191.688 142.688C193.083 142.438 194.333 142.312 195.438 142.312C197.354 142.312 199.062 142.646 200.562 143.312C202.062 143.958 203.375 144.854 204.5 146C205.646 147.125 206.604 148.458 207.375 150C208.167 151.521 208.812 153.167 209.312 154.938C209.812 156.688 210.167 158.51 210.375 160.406C210.604 162.302 210.719 164.188 210.719 166.062C210.719 168.062 210.604 170.208 210.375 172.5C210.146 174.792 209.792 177.292 209.312 180L203.188 178.969ZM204.062 167.594C204.104 166.552 204.135 165.521 204.156 164.5C204.177 163.479 204.125 162.417 204 161.312C202.979 161 201.906 160.75 200.781 160.562C199.656 160.375 198.531 160.281 197.406 160.281C195.531 160.281 193.708 160.5 191.938 160.938C190.188 161.375 188.677 162.01 187.406 162.844C186.135 163.677 185.177 164.698 184.531 165.906C183.906 167.115 183.781 168.49 184.156 170.031C184.448 171.281 185.01 172.156 185.844 172.656C186.698 173.156 187.719 173.406 188.906 173.406C190.115 173.406 191.417 173.208 192.812 172.812C194.229 172.396 195.625 171.896 197 171.312C198.396 170.708 199.708 170.073 200.938 169.406C202.167 168.74 203.208 168.135 204.062 167.594ZM247.844 145.312L235.562 178.219L226.75 178.094L215.781 146.531L222.125 145.562L231.469 172.406L241.406 144.438L247.844 145.312ZM284.656 161.844C284.656 164.469 284.219 166.896 283.344 169.125C282.469 171.354 281.271 173.292 279.75 174.938C278.229 176.583 276.448 177.865 274.406 178.781C272.365 179.719 270.188 180.188 267.875 180.188C265.562 180.188 263.396 179.75 261.375 178.875C259.354 178 257.583 176.76 256.062 175.156C254.562 173.531 253.375 171.594 252.5 169.344C251.625 167.094 251.188 164.594 251.188 161.844C251.188 159.073 251.625 156.562 252.5 154.312C253.375 152.042 254.562 150.104 256.062 148.5C257.583 146.896 259.354 145.656 261.375 144.781C263.396 143.906 265.562 143.469 267.875 143.469C270.188 143.469 272.365 143.938 274.406 144.875C276.448 145.792 278.229 147.073 279.75 148.719C281.271 150.344 282.469 152.281 283.344 154.531C284.219 156.76 284.656 159.198 284.656 161.844ZM278.062 161.781C278.062 160.281 277.875 158.771 277.5 157.25C277.125 155.708 276.531 154.333 275.719 153.125C274.906 151.896 273.854 150.896 272.562 150.125C271.271 149.354 269.708 148.969 267.875 148.969C266.104 148.969 264.583 149.354 263.312 150.125C262.042 150.896 261 151.896 260.188 153.125C259.375 154.333 258.781 155.708 258.406 157.25C258.031 158.771 257.844 160.281 257.844 161.781C257.844 163.281 258.042 164.792 258.438 166.312C258.854 167.833 259.479 169.208 260.312 170.438C261.146 171.646 262.188 172.635 263.438 173.406C264.708 174.177 266.188 174.562 267.875 174.562C269.646 174.562 271.167 174.177 272.438 173.406C273.729 172.635 274.792 171.646 275.625 170.438C276.458 169.208 277.073 167.833 277.469 166.312C277.865 164.792 278.062 163.281 278.062 161.781ZM315.156 159.406C315.135 158.385 315.042 157.5 314.875 156.75C314.729 156 314.531 155.354 314.281 154.812C314.052 154.271 313.781 153.823 313.469 153.469C313.177 153.115 312.875 152.823 312.562 152.594C311.833 152.073 311.01 151.823 310.094 151.844C309.51 151.927 308.885 152.177 308.219 152.594C307.573 152.99 306.906 153.51 306.219 154.156C305.531 154.781 304.833 155.5 304.125 156.312C303.438 157.104 302.771 157.927 302.125 158.781C301.479 159.615 300.865 160.448 300.281 161.281C299.698 162.115 299.177 162.875 298.719 163.562C298.74 165.125 298.771 166.667 298.812 168.188C298.854 169.688 298.885 171.094 298.906 172.406C298.948 173.698 298.99 174.875 299.031 175.938C299.094 176.979 299.156 177.823 299.219 178.469L292.5 179.312C292.375 175.729 292.26 172.49 292.156 169.594C292.052 166.677 291.958 164.073 291.875 161.781C291.792 159.49 291.719 157.469 291.656 155.719C291.615 153.969 291.573 152.458 291.531 151.188C291.448 148.208 291.385 146 291.344 144.562L298.469 144.438C298.49 145.708 298.5 147.01 298.5 148.344C298.521 149.656 298.542 150.865 298.562 151.969C298.583 153.26 298.594 154.521 298.594 155.75C299.198 154.792 299.927 153.74 300.781 152.594C301.656 151.448 302.635 150.365 303.719 149.344C304.823 148.323 306.021 147.438 307.312 146.688C308.625 145.917 310.021 145.438 311.5 145.25C313.167 145.167 314.688 145.521 316.062 146.312C316.646 146.646 317.219 147.094 317.781 147.656C318.365 148.198 318.896 148.906 319.375 149.781C319.875 150.635 320.292 151.667 320.625 152.875C320.958 154.062 321.188 155.469 321.312 157.094L315.156 159.406ZM146.531 252.156L127.969 253.062L128.219 269L122.219 269.25L121.5 224.719L155.438 224.188L155.219 230.156L127.656 230.594L127.906 246.906L146.406 246.156L146.531 252.156ZM183.719 271.25L183.594 262.281C182.906 263.51 182.125 264.677 181.25 265.781C180.375 266.865 179.427 267.823 178.406 268.656C177.385 269.469 176.292 270.115 175.125 270.594C173.979 271.073 172.771 271.292 171.5 271.25C169.625 271.188 168.01 270.833 166.656 270.188C165.323 269.542 164.198 268.688 163.281 267.625C162.365 266.542 161.625 265.302 161.062 263.906C160.521 262.49 160.104 261 159.812 259.438C159.521 257.875 159.323 256.281 159.219 254.656C159.135 253.01 159.094 251.417 159.094 249.875C159.094 247.708 159.188 245.521 159.375 243.312C159.562 241.083 159.833 238.812 160.188 236.5L166.594 236.688C166.26 239.271 166.031 241.594 165.906 243.656C165.802 245.719 165.75 247.531 165.75 249.094C165.75 249.802 165.76 250.698 165.781 251.781C165.802 252.865 165.875 254.021 166 255.25C166.146 256.458 166.365 257.656 166.656 258.844C166.948 260.031 167.354 261.094 167.875 262.031C168.417 262.948 169.094 263.656 169.906 264.156C170.719 264.656 171.719 264.823 172.906 264.656C174.51 264.427 176.177 263.323 177.906 261.344C179.656 259.365 181.49 256.323 183.406 252.219C183.344 248.906 183.281 246.26 183.219 244.281C183.177 242.302 183.146 240.792 183.125 239.75C183.083 238.521 183.052 237.667 183.031 237.188L189.75 236.438C189.875 240.021 189.979 243.26 190.062 246.156C190.167 249.031 190.26 251.625 190.344 253.938C190.427 256.229 190.49 258.25 190.531 260C190.594 261.729 190.646 263.229 190.688 264.5C190.771 267.479 190.823 269.688 190.844 271.125L183.719 271.25ZM228.406 262.156C228.406 264.135 228 265.802 227.188 267.156C226.396 268.49 225.323 269.573 223.969 270.406C222.635 271.26 221.094 271.885 219.344 272.281C217.615 272.698 215.812 272.948 213.938 273.031C212.021 273.01 210.083 272.812 208.125 272.438C207.292 272.292 206.406 272.083 205.469 271.812C204.552 271.562 203.615 271.25 202.656 270.875C201.698 270.5 200.74 270.052 199.781 269.531C198.823 269.01 197.906 268.406 197.031 267.719L200.062 262.969C201.208 263.573 202.375 264.156 203.562 264.719C204.771 265.281 206 265.781 207.25 266.219C208.5 266.635 209.781 266.969 211.094 267.219C212.406 267.469 213.76 267.594 215.156 267.594C216.302 267.594 217.271 267.49 218.062 267.281C218.854 267.052 219.5 266.781 220 266.469C220.521 266.135 220.917 265.771 221.188 265.375C221.479 264.958 221.688 264.562 221.812 264.188C221.917 263.854 221.958 263.49 221.938 263.094C221.917 262.677 221.802 262.26 221.594 261.844C221.406 261.427 221.104 261.021 220.688 260.625C220.292 260.208 219.76 259.844 219.094 259.531C218.427 259.198 217.615 258.927 216.656 258.719C215.698 258.51 214.562 258.375 213.25 258.312C211.375 258.229 209.562 258.042 207.812 257.75C206.083 257.438 204.531 256.958 203.156 256.312C201.802 255.667 200.677 254.823 199.781 253.781C198.906 252.719 198.375 251.396 198.188 249.812C198.042 248.312 198.135 246.948 198.469 245.719C198.823 244.469 199.344 243.354 200.031 242.375C200.74 241.396 201.604 240.542 202.625 239.812C203.646 239.062 204.76 238.448 205.969 237.969C207.177 237.469 208.448 237.104 209.781 236.875C211.135 236.625 212.5 236.5 213.875 236.5C214.688 236.5 215.646 236.542 216.75 236.625C217.854 236.708 219.01 236.875 220.219 237.125C221.427 237.375 222.646 237.74 223.875 238.219C225.104 238.677 226.25 239.292 227.312 240.062L225.156 245.781C223.781 245.052 222.469 244.49 221.219 244.094C219.99 243.677 218.896 243.354 217.938 243.125C216.812 242.875 215.76 242.708 214.781 242.625C211.51 242.438 208.958 242.781 207.125 243.656C205.312 244.531 204.406 245.854 204.406 247.625C204.406 248.875 204.75 249.792 205.438 250.375C206.125 250.938 207.062 251.344 208.25 251.594C209.438 251.844 210.823 252.01 212.406 252.094C213.99 252.177 215.677 252.354 217.469 252.625C219.51 252.938 221.229 253.406 222.625 254.031C224.021 254.656 225.146 255.385 226 256.219C226.854 257.052 227.469 257.979 227.844 259C228.219 260 228.406 261.052 228.406 262.156ZM243.625 227.344C243.625 227.948 243.5 228.521 243.25 229.062C243.021 229.604 242.698 230.073 242.281 230.469C241.885 230.865 241.417 231.177 240.875 231.406C240.333 231.635 239.75 231.75 239.125 231.75C238.521 231.75 237.948 231.635 237.406 231.406C236.885 231.177 236.417 230.865 236 230.469C235.604 230.073 235.292 229.604 235.062 229.062C234.833 228.521 234.719 227.948 234.719 227.344C234.719 226.719 234.833 226.135 235.062 225.594C235.292 225.052 235.604 224.583 236 224.188C236.417 223.771 236.885 223.448 237.406 223.219C237.948 222.969 238.521 222.844 239.125 222.844C239.75 222.844 240.333 222.969 240.875 223.219C241.417 223.448 241.885 223.771 242.281 224.188C242.698 224.583 243.021 225.052 243.25 225.594C243.5 226.135 243.625 226.719 243.625 227.344ZM242.156 238.344C242.094 241.323 242.031 244.062 241.969 246.562C241.927 249.042 241.885 251.302 241.844 253.344C241.802 255.385 241.76 257.219 241.719 258.844C241.698 260.448 241.677 261.854 241.656 263.062C241.594 265.938 241.562 268.198 241.562 269.844H235.156C235.198 267.594 235.25 264.917 235.312 261.812C235.354 259.146 235.406 255.885 235.469 252.031C235.552 248.177 235.625 243.698 235.688 238.594L242.156 238.344ZM282.531 253.844C282.531 256.469 282.094 258.896 281.219 261.125C280.344 263.354 279.146 265.292 277.625 266.938C276.104 268.583 274.323 269.865 272.281 270.781C270.24 271.719 268.062 272.188 265.75 272.188C263.438 272.188 261.271 271.75 259.25 270.875C257.229 270 255.458 268.76 253.938 267.156C252.438 265.531 251.25 263.594 250.375 261.344C249.5 259.094 249.062 256.594 249.062 253.844C249.062 251.073 249.5 248.562 250.375 246.312C251.25 244.042 252.438 242.104 253.938 240.5C255.458 238.896 257.229 237.656 259.25 236.781C261.271 235.906 263.438 235.469 265.75 235.469C268.062 235.469 270.24 235.938 272.281 236.875C274.323 237.792 276.104 239.073 277.625 240.719C279.146 242.344 280.344 244.281 281.219 246.531C282.094 248.76 282.531 251.198 282.531 253.844ZM275.938 253.781C275.938 252.281 275.75 250.771 275.375 249.25C275 247.708 274.406 246.333 273.594 245.125C272.781 243.896 271.729 242.896 270.438 242.125C269.146 241.354 267.583 240.969 265.75 240.969C263.979 240.969 262.458 241.354 261.188 242.125C259.917 242.896 258.875 243.896 258.062 245.125C257.25 246.333 256.656 247.708 256.281 249.25C255.906 250.771 255.719 252.281 255.719 253.781C255.719 255.281 255.917 256.792 256.312 258.312C256.729 259.833 257.354 261.208 258.188 262.438C259.021 263.646 260.062 264.635 261.312 265.406C262.583 266.177 264.062 266.562 265.75 266.562C267.521 266.562 269.042 266.177 270.312 265.406C271.604 264.635 272.667 263.646 273.5 262.438C274.333 261.208 274.948 259.833 275.344 258.312C275.74 256.792 275.938 255.281 275.938 253.781ZM290.375 271.312C290.25 267.729 290.135 264.49 290.031 261.594C289.927 258.677 289.833 256.073 289.75 253.781C289.667 251.49 289.594 249.469 289.531 247.719C289.49 245.969 289.448 244.458 289.406 243.188C289.323 240.208 289.26 238 289.219 236.562L296.344 236.438L296.469 245.438C297.156 244.25 297.938 243.135 298.812 242.094C299.688 241.031 300.635 240.094 301.656 239.281C302.677 238.469 303.76 237.812 304.906 237.312C306.073 236.812 307.292 236.521 308.562 236.438C310.146 236.333 311.521 236.469 312.688 236.844C313.875 237.219 314.885 237.74 315.719 238.406C316.552 239.073 317.24 239.865 317.781 240.781C318.323 241.677 318.75 242.615 319.062 243.594C319.375 244.552 319.594 245.51 319.719 246.469C319.865 247.427 319.958 248.302 320 249.094C320.125 252.677 320.156 256.281 320.094 259.906C320.031 263.531 319.958 267.292 319.875 271.188L313.469 270.969C313.635 267.615 313.781 264.26 313.906 260.906C314.052 257.552 314.042 254.167 313.875 250.75C313.875 250.375 313.844 249.896 313.781 249.312C313.74 248.708 313.625 248.073 313.438 247.406C313.271 246.74 313.031 246.083 312.719 245.438C312.406 244.771 312 244.198 311.5 243.719C311 243.219 310.385 242.844 309.656 242.594C308.948 242.344 308.115 242.292 307.156 242.438C305.51 242.688 303.833 243.896 302.125 246.062C300.438 248.208 298.615 251.354 296.656 255.5C296.74 258.854 296.802 261.531 296.844 263.531C296.906 265.51 296.958 267.01 297 268.031C297.042 269.24 297.073 270.052 297.094 270.469L290.375 271.312Z" fill="#04D473"/>
<path d="M146.531 160.156L146.58 161.155L147.551 161.108L147.531 160.135L146.531 160.156ZM127.969 161.062L127.92 160.064L126.954 160.111L126.969 161.078L127.969 161.062ZM128.219 177L128.26 177.999L129.234 177.959L129.219 176.984L128.219 177ZM122.219 177.25L121.219 177.266L121.235 178.292L122.26 178.249L122.219 177.25ZM121.5 132.719L121.484 131.719L120.484 131.735L120.5 132.735L121.5 132.719ZM155.438 132.188L156.437 132.224L156.475 131.171L155.422 131.188L155.438 132.188ZM155.219 138.156L155.235 139.156L156.183 139.141L156.218 138.193L155.219 138.156ZM127.656 138.594L127.64 137.594L126.641 137.61L126.656 138.609L127.656 138.594ZM127.906 154.906L126.906 154.922L126.922 155.947L127.947 155.905L127.906 154.906ZM146.406 154.156L147.406 154.135L147.385 153.116L146.366 153.157L146.406 154.156ZM146.482 159.157L127.92 160.064L128.018 162.061L146.58 161.155L146.482 159.157ZM126.969 161.078L127.219 177.016L129.219 176.984L128.969 161.047L126.969 161.078ZM128.177 176.001L122.177 176.251L122.26 178.249L128.26 177.999L128.177 176.001ZM123.219 177.234L122.5 132.703L120.5 132.735L121.219 177.266L123.219 177.234ZM121.516 133.719L155.453 133.187L155.422 131.188L121.484 131.719L121.516 133.719ZM154.438 132.151L154.219 138.12L156.218 138.193L156.437 132.224L154.438 132.151ZM155.203 137.156L127.64 137.594L127.672 139.594L155.235 139.156L155.203 137.156ZM126.656 138.609L126.906 154.922L128.906 154.891L128.656 138.578L126.656 138.609ZM127.947 155.905L146.447 155.155L146.366 153.157L127.866 153.907L127.947 155.905ZM145.406 154.177L145.531 160.177L147.531 160.135L147.406 154.135L145.406 154.177ZM173.219 178.531L173.205 179.531L174.095 179.544L174.21 178.661L173.219 178.531ZM169.281 177.781L168.889 178.701L168.895 178.704L169.281 177.781ZM166.281 175.938L165.611 176.68L165.621 176.688L165.63 176.697L166.281 175.938ZM164.062 173.312L163.211 173.838L163.215 173.844L163.22 173.851L164.062 173.312ZM162.531 170.344L163.454 169.959L163.453 169.956L162.531 170.344ZM160.656 162.281L159.656 162.26L159.655 162.312L159.66 162.364L160.656 162.281ZM161.5 122.656V121.656H160.521L160.5 122.635L161.5 122.656ZM168.031 122.656L169.031 122.684L169.06 121.656H168.031V122.656ZM167.719 132.875L166.719 132.841L166.719 132.848L167.719 132.875ZM167.5 141.312L168.5 141.337L168.5 141.337L167.5 141.312ZM167.312 148.094L166.313 148.063L166.313 148.073L167.312 148.094ZM167.188 153.375L166.188 153.348L166.188 153.352L167.188 153.375ZM167 161.844L166 161.824L166 161.844L166 161.865L167 161.844ZM167.844 167.031L168.795 166.724L168.793 166.716L168.79 166.707L167.844 167.031ZM168.656 168.938L167.774 169.408L167.78 169.419L167.786 169.431L168.656 168.938ZM169.906 170.625L169.184 171.317L169.192 171.325L169.199 171.332L169.906 170.625ZM171.656 171.844L171.232 172.749L171.249 172.757L171.266 172.764L171.656 171.844ZM174.031 172.312L175.023 172.442L175.167 171.339L174.054 171.313L174.031 172.312ZM173.233 177.531C171.857 177.512 170.675 177.28 169.667 176.859L168.895 178.704C170.179 179.241 171.622 179.509 173.205 179.531L173.233 177.531ZM169.673 176.861C168.636 176.42 167.725 175.858 166.932 175.178L165.63 176.697C166.588 177.517 167.676 178.185 168.889 178.701L169.673 176.861ZM166.951 175.195C166.164 174.485 165.483 173.679 164.905 172.774L163.22 173.851C163.892 174.905 164.69 175.848 165.611 176.68L166.951 175.195ZM164.914 172.787C164.335 171.85 163.85 170.908 163.454 169.959L161.608 170.728C162.046 171.78 162.581 172.816 163.211 173.838L164.914 172.787ZM163.453 169.956C162.5 167.693 161.895 165.11 161.653 162.198L159.66 162.364C159.917 165.452 160.563 168.245 161.61 170.732L163.453 169.956ZM161.656 162.303L162.5 122.678L160.5 122.635L159.656 162.26L161.656 162.303ZM161.5 123.656H168.031V121.656H161.5V123.656ZM167.032 122.628C166.928 126.335 166.823 129.739 166.719 132.841L168.718 132.909C168.822 129.802 168.927 126.394 169.031 122.684L167.032 122.628ZM166.719 132.848C166.636 135.932 166.563 138.745 166.5 141.288L168.5 141.337C168.562 138.796 168.635 135.985 168.718 132.902L166.719 132.848ZM166.5 141.288C166.438 143.807 166.375 146.065 166.313 148.063L168.312 148.125C168.375 146.122 168.437 143.86 168.5 141.337L166.5 141.288ZM166.313 148.073C166.271 150.071 166.229 151.83 166.188 153.348L168.187 153.402C168.229 151.879 168.271 150.116 168.312 148.115L166.313 148.073ZM166.188 153.352C166.104 156.935 166.042 159.76 166 161.824L168 161.864C168.041 159.803 168.104 156.981 168.187 153.398L166.188 153.352ZM166 161.865C166.044 163.885 166.337 165.719 166.898 167.355L168.79 166.707C168.308 165.302 168.04 163.677 168 161.822L166 161.865ZM166.892 167.338C167.119 168.043 167.414 168.733 167.774 169.408L169.539 168.467C169.232 167.892 168.985 167.311 168.795 166.724L166.892 167.338ZM167.786 169.431C168.18 170.125 168.646 170.755 169.184 171.317L170.628 169.933C170.209 169.495 169.841 169 169.526 168.444L167.786 169.431ZM169.199 171.332C169.785 171.917 170.465 172.39 171.232 172.749L172.081 170.938C171.515 170.673 171.028 170.333 170.613 169.918L169.199 171.332ZM171.266 172.764C172.09 173.114 173.01 173.289 174.008 173.312L174.054 171.313C173.26 171.294 172.597 171.157 172.047 170.923L171.266 172.764ZM173.04 172.183L172.227 178.402L174.21 178.661L175.023 172.442L173.04 172.183ZM203.188 178.969L202.192 178.87L202.1 179.8L203.021 179.955L203.188 178.969ZM203.625 174.562L204.62 174.661L204.824 172.609L203.086 173.72L203.625 174.562ZM196.125 178.094L195.841 177.135L195.838 177.136L196.125 178.094ZM184.906 178.594L185.175 177.631L185.166 177.628L184.906 178.594ZM181.188 176.844L180.58 177.638L180.589 177.645L180.597 177.651L181.188 176.844ZM178.594 173.781L177.705 174.24L177.71 174.249L177.715 174.258L178.594 173.781ZM180.438 161.312L179.678 160.662L180.438 161.312ZM187.344 156.906L187.028 155.958L187.023 155.959L187.344 156.906ZM191.656 155.906L191.794 156.897L191.807 156.895L191.656 155.906ZM203.125 156.125L202.946 157.109L204.487 157.389L204.093 155.873L203.125 156.125ZM202.125 153.062L201.193 153.424L201.195 153.431L202.125 153.062ZM200.594 150.344L199.791 150.94L199.8 150.952L199.809 150.963L200.594 150.344ZM192.344 148L192.559 148.977L192.568 148.975L192.577 148.972L192.344 148ZM184.812 151.875L185.403 152.682L185.411 152.676L184.812 151.875ZM180.062 156.062L179.29 156.698L179.995 157.554L180.774 156.765L180.062 156.062ZM176.281 151.469L175.597 150.739L174.913 151.38L175.509 152.104L176.281 151.469ZM187.188 144.094L187.571 145.017L187.577 145.015L187.188 144.094ZM191.688 142.688L191.511 141.703L191.509 141.704L191.688 142.688ZM200.562 143.312L200.156 144.226L200.167 144.231L200.562 143.312ZM204.5 146L203.786 146.701L203.793 146.707L203.799 146.714L204.5 146ZM207.375 150L206.481 150.447L206.484 150.455L206.488 150.462L207.375 150ZM209.312 154.938L208.35 155.209L208.351 155.212L209.312 154.938ZM210.375 160.406L209.381 160.515L209.382 160.526L210.375 160.406ZM209.312 180L209.146 180.986L210.124 181.151L210.297 180.174L209.312 180ZM204.062 167.594L204.598 168.438L205.041 168.158L205.062 167.634L204.062 167.594ZM204 161.312L204.994 161.2L204.92 160.548L204.293 160.356L204 161.312ZM191.938 160.938L191.698 159.967L191.695 159.967L191.938 160.938ZM184.531 165.906L183.649 165.435L183.643 165.447L184.531 165.906ZM184.156 170.031L185.13 169.804L185.128 169.795L184.156 170.031ZM185.844 172.656L185.329 173.514L185.339 173.519L185.844 172.656ZM192.812 172.812L193.085 173.775L193.095 173.772L192.812 172.812ZM197 171.312L197.391 172.233L197.397 172.23L197 171.312ZM200.938 169.406L200.461 168.527L200.938 169.406ZM204.183 179.068L204.62 174.661L202.63 174.464L202.192 178.87L204.183 179.068ZM203.086 173.72C200.61 175.303 198.195 176.437 195.841 177.135L196.409 179.052C198.972 178.292 201.557 177.072 204.164 175.405L203.086 173.72ZM195.838 177.136C193.476 177.842 191.292 178.188 189.281 178.188V180.188C191.52 180.188 193.899 179.803 196.412 179.052L195.838 177.136ZM189.281 178.188C187.87 178.188 186.503 178.002 185.175 177.631L184.637 179.557C186.143 179.978 187.692 180.188 189.281 180.188V178.188ZM185.166 177.628C183.88 177.282 182.754 176.75 181.778 176.036L180.597 177.651C181.788 178.521 183.141 179.155 184.647 179.56L185.166 177.628ZM181.795 176.049C180.849 175.326 180.075 174.416 179.473 173.304L177.715 174.258C178.445 175.605 179.401 176.736 180.58 177.638L181.795 176.049ZM179.482 173.322C178.923 172.24 178.625 170.934 178.625 169.375H176.625C176.625 171.191 176.973 172.823 177.705 174.24L179.482 173.322ZM178.625 169.375C178.625 167.786 178.86 166.397 179.311 165.195L177.439 164.493C176.89 165.957 176.625 167.589 176.625 169.375H178.625ZM179.311 165.195C179.773 163.964 180.402 162.89 181.197 161.963L179.678 160.662C178.723 161.776 177.977 163.056 177.439 164.493L179.311 165.195ZM181.197 161.963C182.002 161.024 182.952 160.216 184.055 159.54L183.008 157.835C181.735 158.617 180.623 159.559 179.678 160.662L181.197 161.963ZM184.055 159.54C185.177 158.851 186.379 158.288 187.664 157.853L187.023 155.959C185.6 156.441 184.261 157.066 183.008 157.835L184.055 159.54ZM187.66 157.855C188.974 157.417 190.352 157.097 191.794 156.897L191.519 154.916C189.961 155.132 188.463 155.479 187.028 155.958L187.66 157.855ZM191.807 156.895C193.259 156.673 194.698 156.562 196.125 156.562V154.562C194.594 154.562 193.054 154.681 191.505 154.918L191.807 156.895ZM196.125 156.562C197.475 156.562 198.727 156.614 199.881 156.715L200.056 154.723C198.836 154.616 197.525 154.562 196.125 154.562V156.562ZM199.881 156.715C201.046 156.817 202.067 156.949 202.946 157.109L203.304 155.141C202.35 154.968 201.266 154.829 200.056 154.723L199.881 156.715ZM204.093 155.873C203.812 154.792 203.466 153.732 203.055 152.694L201.195 153.431C201.576 154.393 201.897 155.374 202.157 156.377L204.093 155.873ZM203.057 152.701C202.629 151.595 202.07 150.6 201.379 149.724L199.809 150.963C200.367 151.67 200.83 152.488 201.193 153.424L203.057 152.701ZM201.396 149.747C200.707 148.82 199.849 148.07 198.831 147.502L197.856 149.248C198.631 149.68 199.273 150.243 199.791 150.94L201.396 149.747ZM198.831 147.502C197.757 146.902 196.509 146.625 195.125 146.625V148.625C196.241 148.625 197.139 148.848 197.856 149.248L198.831 147.502ZM195.125 146.625C194.214 146.625 193.206 146.765 192.11 147.028L192.577 148.972C193.565 148.735 194.411 148.625 195.125 148.625V146.625ZM192.129 147.023C190.986 147.275 189.761 147.736 188.459 148.387L189.353 150.176C190.551 149.577 191.618 149.184 192.559 148.977L192.129 147.023ZM188.459 148.387C187.142 149.045 185.727 149.945 184.214 151.074L185.411 152.676C186.857 151.597 188.17 150.767 189.353 150.176L188.459 148.387ZM184.222 151.068C182.689 152.191 181.065 153.624 179.351 155.36L180.774 156.765C182.435 155.084 183.978 153.726 185.403 152.682L184.222 151.068ZM180.835 155.427L177.053 150.833L175.509 152.104L179.29 156.698L180.835 155.427ZM176.965 152.198C178.932 150.354 180.802 148.863 182.575 147.714L181.488 146.036C179.594 147.262 177.63 148.833 175.597 150.739L176.965 152.198ZM182.575 147.714C184.37 146.552 186.035 145.656 187.571 145.017L186.804 143.17C185.132 143.865 183.359 144.823 181.488 146.036L182.575 147.714ZM187.577 145.015C189.151 144.349 190.58 143.905 191.866 143.671L191.509 141.704C190.045 141.97 188.474 142.464 186.798 143.173L187.577 145.015ZM191.864 143.672C193.217 143.429 194.406 143.312 195.438 143.312V141.312C194.26 141.312 192.95 141.446 191.511 141.703L191.864 143.672ZM195.438 143.312C197.237 143.312 198.804 143.625 200.156 144.226L200.969 142.399C199.321 141.666 197.471 141.312 195.438 141.312V143.312ZM200.167 144.231C201.55 144.826 202.754 145.649 203.786 146.701L205.214 145.299C203.996 144.059 202.575 143.09 200.958 142.394L200.167 144.231ZM203.799 146.714C204.861 147.756 205.756 148.997 206.481 150.447L208.269 149.553C207.453 147.92 206.431 146.494 205.201 145.286L203.799 146.714ZM206.488 150.462C207.246 151.918 207.867 153.499 208.35 155.209L210.275 154.666C209.758 152.834 209.087 151.124 208.262 149.538L206.488 150.462ZM208.351 155.212C208.835 156.906 209.179 158.673 209.381 160.515L211.369 160.297C211.155 158.348 210.79 156.469 210.274 154.663L208.351 155.212ZM209.382 160.526C209.607 162.383 209.719 164.228 209.719 166.062H211.719C211.719 164.147 211.602 162.221 211.368 160.286L209.382 160.526ZM209.719 166.062C209.719 168.025 209.606 170.137 209.38 172.4L211.37 172.6C211.602 170.28 211.719 168.1 211.719 166.062H209.719ZM209.38 172.4C209.154 174.663 208.803 177.138 208.328 179.826L210.297 180.174C210.78 177.446 211.138 174.92 211.37 172.6L209.38 172.4ZM209.479 179.014L203.354 177.983L203.021 179.955L209.146 180.986L209.479 179.014ZM205.062 167.634C205.104 166.586 205.135 165.548 205.156 164.52L203.156 164.48C203.136 165.494 203.105 166.518 203.063 167.554L205.062 167.634ZM205.156 164.52C205.178 163.451 205.123 162.344 204.994 161.2L203.006 161.425C203.127 162.489 203.176 163.507 203.156 164.48L205.156 164.52ZM204.293 160.356C203.227 160.03 202.111 159.77 200.946 159.576L200.617 161.549C201.701 161.73 202.731 161.97 203.707 162.269L204.293 160.356ZM200.946 159.576C199.767 159.38 198.587 159.281 197.406 159.281V161.281C198.475 161.281 199.545 161.37 200.617 161.549L200.946 159.576ZM197.406 159.281C195.453 159.281 193.549 159.509 191.698 159.967L192.177 161.908C193.868 161.491 195.61 161.281 197.406 161.281V159.281ZM191.695 159.967C189.856 160.427 188.238 161.102 186.858 162.008L187.955 163.68C189.116 162.918 190.519 162.323 192.18 161.908L191.695 159.967ZM186.858 162.008C185.463 162.922 184.382 164.063 183.649 165.435L185.413 166.378C185.972 165.333 186.808 164.432 187.955 163.68L186.858 162.008ZM183.643 165.447C182.889 166.904 182.763 168.533 183.185 170.268L185.128 169.795C184.8 168.446 184.923 167.325 185.419 166.366L183.643 165.447ZM183.182 170.258C183.515 171.684 184.196 172.834 185.329 173.514L186.358 171.799C185.825 171.479 185.381 170.879 185.13 169.804L183.182 170.258ZM185.339 173.519C186.374 174.125 187.577 174.406 188.906 174.406V172.406C187.861 172.406 187.022 172.187 186.349 171.793L185.339 173.519ZM188.906 174.406C190.223 174.406 191.618 174.191 193.085 173.775L192.54 171.85C191.215 172.226 190.006 172.406 188.906 172.406V174.406ZM193.095 173.772C194.549 173.344 195.981 172.831 197.391 172.233L196.609 170.392C195.269 170.96 193.91 171.447 192.53 171.853L193.095 173.772ZM197.397 172.23C198.818 171.615 200.157 170.967 201.414 170.285L200.461 168.527C199.26 169.179 197.974 169.801 196.603 170.395L197.397 172.23ZM201.414 170.285C202.656 169.612 203.719 168.996 204.598 168.438L203.527 166.749C202.698 167.275 201.677 167.868 200.461 168.527L201.414 170.285ZM247.844 145.312L248.781 145.662L249.218 144.49L247.978 144.322L247.844 145.312ZM235.562 178.219L235.548 179.219L236.253 179.229L236.499 178.568L235.562 178.219ZM226.75 178.094L225.805 178.422L226.035 179.084L226.736 179.094L226.75 178.094ZM215.781 146.531L215.63 145.543L214.442 145.724L214.837 146.86L215.781 146.531ZM222.125 145.562L223.069 145.234L222.796 144.448L221.974 144.574L222.125 145.562ZM231.469 172.406L230.524 172.735L231.459 175.42L232.411 172.741L231.469 172.406ZM241.406 144.438L241.541 143.447L240.736 143.337L240.464 144.103L241.406 144.438ZM246.907 144.963L234.626 177.869L236.499 178.568L248.781 145.662L246.907 144.963ZM235.577 177.219L226.764 177.094L226.736 179.094L235.548 179.219L235.577 177.219ZM227.695 177.765L216.726 146.203L214.837 146.86L225.805 178.422L227.695 177.765ZM215.932 147.52L222.276 146.551L221.974 144.574L215.63 145.543L215.932 147.52ZM221.181 145.891L230.524 172.735L232.413 172.078L223.069 145.234L221.181 145.891ZM232.411 172.741L242.349 144.772L240.464 144.103L230.526 172.071L232.411 172.741ZM241.272 145.428L247.709 146.303L247.978 144.322L241.541 143.447L241.272 145.428ZM283.344 169.125L282.413 168.76L283.344 169.125ZM279.75 174.938L279.016 174.259L279.75 174.938ZM274.406 178.781L273.997 177.869L273.989 177.872L274.406 178.781ZM256.062 175.156L255.328 175.835L255.337 175.844L256.062 175.156ZM252.5 154.312L253.432 154.675L253.433 154.672L252.5 154.312ZM256.062 148.5L255.337 147.812L255.332 147.817L256.062 148.5ZM274.406 144.875L273.989 145.784L273.997 145.787L274.406 144.875ZM279.75 148.719L279.016 149.397L279.02 149.402L279.75 148.719ZM283.344 154.531L282.412 154.894L282.413 154.897L283.344 154.531ZM277.5 157.25L276.528 157.486L276.529 157.489L277.5 157.25ZM275.719 153.125L274.885 153.676L274.889 153.683L275.719 153.125ZM260.188 153.125L261.017 153.683L261.022 153.676L260.188 153.125ZM258.406 157.25L259.377 157.489L259.378 157.486L258.406 157.25ZM258.438 166.312L257.47 166.564L257.473 166.577L258.438 166.312ZM260.312 170.438L259.485 170.999L259.489 171.005L260.312 170.438ZM263.438 173.406L262.913 174.257L262.919 174.261L263.438 173.406ZM272.438 173.406L271.925 172.548L271.919 172.551L272.438 173.406ZM275.625 170.438L276.448 171.005L276.453 170.999L275.625 170.438ZM283.656 161.844C283.656 164.356 283.238 166.658 282.413 168.76L284.275 169.49C285.2 167.134 285.656 164.582 285.656 161.844H283.656ZM282.413 168.76C281.58 170.881 280.446 172.71 279.016 174.259L280.484 175.616C282.095 173.873 283.357 171.827 284.275 169.49L282.413 168.76ZM279.016 174.259C277.586 175.806 275.915 177.008 273.997 177.869L274.816 179.694C276.981 178.722 278.872 177.361 280.484 175.616L279.016 174.259ZM273.989 177.872C272.082 178.748 270.048 179.188 267.875 179.188V181.188C270.327 181.188 272.647 180.689 274.824 179.69L273.989 177.872ZM267.875 179.188C265.692 179.188 263.661 178.775 261.772 177.957L260.978 179.793C263.13 180.725 265.433 181.188 267.875 181.188V179.188ZM261.772 177.957C259.876 177.136 258.217 175.975 256.788 174.468L255.337 175.844C256.95 177.546 258.833 178.864 260.978 179.793L261.772 177.957ZM256.797 174.478C255.39 172.953 254.266 171.125 253.432 168.981L251.568 169.706C252.484 172.062 253.735 174.109 255.328 175.835L256.797 174.478ZM253.432 168.981C252.608 166.862 252.188 164.487 252.188 161.844H250.188C250.188 164.701 250.642 167.326 251.568 169.706L253.432 168.981ZM252.188 161.844C252.188 159.179 252.608 156.794 253.432 154.675L251.568 153.95C250.642 156.331 250.188 158.967 250.188 161.844H252.188ZM253.433 154.672C254.267 152.508 255.39 150.684 256.793 149.183L255.332 147.817C253.735 149.525 252.483 151.575 251.567 153.953L253.433 154.672ZM256.788 149.188C258.217 147.681 259.876 146.52 261.772 145.699L260.978 143.864C258.833 144.792 256.95 146.11 255.337 147.812L256.788 149.188ZM261.772 145.699C263.661 144.881 265.692 144.469 267.875 144.469V142.469C265.433 142.469 263.13 142.932 260.978 143.864L261.772 145.699ZM267.875 144.469C270.048 144.469 272.082 144.908 273.989 145.784L274.824 143.966C272.647 142.967 270.327 142.469 267.875 142.469V144.469ZM273.997 145.787C275.915 146.649 277.586 147.85 279.016 149.397L280.484 148.04C278.872 146.295 276.981 144.935 274.816 143.963L273.997 145.787ZM279.02 149.402C280.446 150.926 281.579 152.752 282.412 154.894L284.276 154.169C283.358 151.81 282.095 149.761 280.48 148.035L279.02 149.402ZM282.413 154.897C283.238 156.998 283.656 159.31 283.656 161.844H285.656C285.656 159.086 285.2 156.523 284.275 154.166L282.413 154.897ZM279.062 161.781C279.062 160.197 278.864 158.606 278.471 157.011L276.529 157.489C276.886 158.935 277.062 160.365 277.062 161.781H279.062ZM278.472 157.014C278.071 155.368 277.433 153.882 276.549 152.567L274.889 153.683C275.63 154.785 276.179 156.049 276.528 157.486L278.472 157.014ZM276.553 152.574C275.656 151.216 274.493 150.112 273.075 149.266L272.05 150.984C273.216 151.679 274.157 152.575 274.885 153.676L276.553 152.574ZM273.075 149.266C271.598 148.385 269.849 147.969 267.875 147.969V149.969C269.567 149.969 270.944 150.324 272.05 150.984L273.075 149.266ZM267.875 147.969C265.957 147.969 264.249 148.388 262.794 149.27L263.831 150.98C264.918 150.321 266.252 149.969 267.875 149.969V147.969ZM262.794 149.27C261.398 150.117 260.248 151.22 259.353 152.574L261.022 153.676C261.752 152.572 262.685 151.675 263.831 150.98L262.794 149.27ZM259.358 152.567C258.474 153.882 257.835 155.368 257.435 157.014L259.378 157.486C259.728 156.049 260.276 154.785 261.017 153.683L259.358 152.567ZM257.435 157.011C257.042 158.606 256.844 160.197 256.844 161.781H258.844C258.844 160.365 259.021 158.935 259.377 157.489L257.435 157.011ZM256.844 161.781C256.844 163.37 257.054 164.965 257.47 166.564L259.405 166.061C259.03 164.618 258.844 163.192 258.844 161.781H256.844ZM257.473 166.577C257.917 168.197 258.586 169.673 259.485 170.999L261.14 169.876C260.372 168.743 259.791 167.47 259.402 166.048L257.473 166.577ZM259.489 171.005C260.401 172.328 261.545 173.414 262.913 174.257L263.962 172.555C262.83 171.857 261.89 170.964 261.136 169.87L259.489 171.005ZM262.919 174.261C264.366 175.139 266.03 175.562 267.875 175.562V173.562C266.345 173.562 265.05 173.215 263.956 172.551L262.919 174.261ZM267.875 175.562C269.793 175.562 271.501 175.144 272.956 174.261L271.919 172.551C270.832 173.21 269.498 173.562 267.875 173.562V175.562ZM272.95 174.265C274.362 173.422 275.531 172.335 276.448 171.005L274.802 169.87C274.052 170.957 273.097 171.848 271.925 172.548L272.95 174.265ZM276.453 170.999C277.354 169.67 278.014 168.189 278.437 166.564L276.501 166.061C276.132 167.478 275.563 168.747 274.797 169.876L276.453 170.999ZM278.437 166.564C278.853 164.965 279.062 163.37 279.062 161.781H277.062C277.062 163.192 276.876 164.618 276.501 166.061L278.437 166.564ZM315.156 159.406L314.156 159.427L314.185 160.839L315.508 160.342L315.156 159.406ZM314.875 156.75L313.893 156.941L313.896 156.954L313.899 156.967L314.875 156.75ZM314.281 154.812L313.36 155.202L313.367 155.217L313.373 155.232L314.281 154.812ZM313.469 153.469L312.697 154.104L312.708 154.118L312.719 154.13L313.469 153.469ZM312.562 152.594L313.154 151.787L313.144 151.78L312.562 152.594ZM310.094 151.844L310.071 150.844L310.011 150.845L309.952 150.854L310.094 151.844ZM308.219 152.594L308.741 153.446L308.749 153.442L308.219 152.594ZM306.219 154.156L306.891 154.896L306.897 154.891L306.903 154.885L306.219 154.156ZM304.125 156.312L303.371 155.655L303.37 155.657L304.125 156.312ZM302.125 158.781L302.915 159.394L302.923 159.384L302.125 158.781ZM300.281 161.281L299.462 160.708L300.281 161.281ZM298.719 163.562L297.887 163.008L297.715 163.266L297.719 163.576L298.719 163.562ZM298.812 168.188L297.813 168.215L297.813 168.215L298.812 168.188ZM298.906 172.406L297.906 172.422L297.907 172.43L297.907 172.438L298.906 172.406ZM299.031 175.938L298.032 175.977L298.032 175.987L298.033 175.997L299.031 175.938ZM299.219 178.469L299.343 179.461L300.308 179.34L300.214 178.372L299.219 178.469ZM292.5 179.312L291.501 179.347L291.539 180.441L292.625 180.305L292.5 179.312ZM292.156 169.594L291.157 169.629L291.157 169.63L292.156 169.594ZM291.656 155.719L290.656 155.743L290.657 155.754L291.656 155.719ZM291.531 151.188L290.532 151.215L290.532 151.22L291.531 151.188ZM291.344 144.562L291.326 143.563L290.315 143.58L290.344 144.591L291.344 144.562ZM298.469 144.438L299.469 144.421L299.452 143.42L298.451 143.438L298.469 144.438ZM298.5 148.344H297.5V148.352L297.5 148.36L298.5 148.344ZM298.562 151.969L299.562 151.953L299.562 151.95L298.562 151.969ZM298.594 155.75H297.594V159.211L299.44 156.283L298.594 155.75ZM300.781 152.594L299.986 151.987L299.98 151.996L300.781 152.594ZM303.719 149.344L303.04 148.609L303.033 148.616L303.719 149.344ZM307.312 146.688L307.815 147.552L307.819 147.55L307.312 146.688ZM311.5 145.25L311.45 144.251L311.412 144.253L311.374 144.258L311.5 145.25ZM316.062 146.312L315.564 147.179L315.566 147.181L316.062 146.312ZM317.781 147.656L317.074 148.363L317.087 148.376L317.101 148.389L317.781 147.656ZM319.375 149.781L318.498 150.262L318.505 150.274L318.512 150.286L319.375 149.781ZM320.625 152.875L319.661 153.141L319.662 153.145L320.625 152.875ZM321.312 157.094L321.664 158.03L322.367 157.766L322.31 157.017L321.312 157.094ZM316.156 159.386C316.134 158.319 316.036 157.365 315.851 156.533L313.899 156.967C314.047 157.635 314.137 158.452 314.156 159.427L316.156 159.386ZM315.857 156.559C315.7 155.751 315.481 155.025 315.189 154.393L313.373 155.232C313.582 155.683 313.759 156.249 313.893 156.941L315.857 156.559ZM315.202 154.423C314.941 153.805 314.617 153.259 314.219 152.807L312.719 154.13C312.945 154.387 313.163 154.736 313.36 155.202L315.202 154.423ZM314.241 152.833C313.906 152.426 313.544 152.074 313.154 151.787L311.971 153.4C312.206 153.572 312.449 153.803 312.697 154.104L314.241 152.833ZM313.144 151.78C312.234 151.13 311.198 150.818 310.071 150.844L310.116 152.843C310.822 152.827 311.432 153.015 311.981 153.407L313.144 151.78ZM309.952 150.854C309.193 150.962 308.436 151.279 307.689 151.746L308.749 153.442C309.335 153.076 309.828 152.892 310.235 152.834L309.952 150.854ZM307.696 151.741C306.98 152.18 306.26 152.746 305.534 153.427L306.903 154.885C307.553 154.275 308.166 153.799 308.741 153.446L307.696 151.741ZM305.546 153.416C304.826 154.071 304.101 154.818 303.371 155.655L304.879 156.97C305.566 156.182 306.237 155.491 306.891 154.896L305.546 153.416ZM303.37 155.657C302.667 156.466 301.986 157.306 301.327 158.178L302.923 159.384C303.555 158.548 304.208 157.742 304.88 156.968L303.37 155.657ZM301.335 158.169C300.679 159.014 300.055 159.861 299.462 160.708L301.1 161.855C301.674 161.035 302.279 160.215 302.915 159.394L301.335 158.169ZM299.462 160.708C298.875 161.546 298.35 162.313 297.887 163.008L299.551 164.117C300.004 163.437 300.521 162.683 301.1 161.855L299.462 160.708ZM297.719 163.576C297.74 165.143 297.771 166.689 297.813 168.215L299.812 168.16C299.771 166.644 299.739 165.107 299.719 163.549L297.719 163.576ZM297.813 168.215C297.854 169.712 297.886 171.114 297.906 172.422L299.906 172.39C299.885 171.073 299.854 169.663 299.812 168.16L297.813 168.215ZM297.907 172.438C297.948 173.732 297.99 174.911 298.032 175.977L300.03 175.898C299.989 174.839 299.947 173.664 299.906 172.374L297.907 172.438ZM298.033 175.997C298.096 177.045 298.159 177.902 298.223 178.565L300.214 178.372C300.153 177.744 300.092 176.913 300.029 175.878L298.033 175.997ZM299.094 177.477L292.375 178.32L292.625 180.305L299.343 179.461L299.094 177.477ZM293.499 179.278C293.374 175.694 293.26 172.454 293.156 169.558L291.157 169.63C291.261 172.525 291.376 175.764 291.501 179.347L293.499 179.278ZM293.156 169.558C293.051 166.641 292.958 164.037 292.874 161.745L290.876 161.818C290.959 164.109 291.053 166.713 291.157 169.629L293.156 169.558ZM292.874 161.745C292.791 159.453 292.718 157.433 292.656 155.683L290.657 155.754C290.719 157.505 290.792 159.526 290.876 161.818L292.874 161.745ZM292.656 155.695C292.614 153.943 292.573 152.429 292.531 151.155L290.532 151.22C290.573 152.487 290.615 153.995 290.657 155.743L292.656 155.695ZM292.531 151.16C292.448 148.18 292.385 145.972 292.343 144.534L290.344 144.591C290.386 146.028 290.448 148.236 290.532 151.215L292.531 151.16ZM291.361 145.562L298.486 145.437L298.451 143.438L291.326 143.563L291.361 145.562ZM297.469 144.454C297.49 145.719 297.5 147.016 297.5 148.344H299.5C299.5 147.005 299.49 145.698 299.469 144.421L297.469 144.454ZM297.5 148.36C297.521 149.673 297.542 150.882 297.563 151.988L299.562 151.95C299.542 150.847 299.521 149.64 299.5 148.328L297.5 148.36ZM297.563 151.985C297.583 153.271 297.594 154.526 297.594 155.75H299.594C299.594 154.515 299.583 153.249 299.562 151.953L297.563 151.985ZM299.44 156.283C300.027 155.352 300.741 154.321 301.583 153.191L299.98 151.996C299.114 153.158 298.369 154.232 297.748 155.217L299.44 156.283ZM301.576 153.201C302.417 152.099 303.359 151.056 304.405 150.072L303.033 148.616C301.911 149.673 300.896 150.796 299.986 151.987L301.576 153.201ZM304.398 150.078C305.448 149.107 306.587 148.265 307.815 147.552L306.81 145.823C305.455 146.61 304.198 147.539 303.04 148.609L304.398 150.078ZM307.819 147.55C309.017 146.846 310.284 146.412 311.626 146.242L311.374 144.258C309.758 144.463 308.233 144.987 306.806 145.825L307.819 147.55ZM311.55 146.249C313.035 146.174 314.364 146.488 315.564 147.179L316.561 145.446C315.011 144.553 313.298 144.159 311.45 144.251L311.55 146.249ZM315.566 147.181C316.06 147.463 316.563 147.853 317.074 148.363L318.488 146.949C317.874 146.335 317.232 145.829 316.559 145.444L315.566 147.181ZM317.101 148.389C317.588 148.842 318.058 149.458 318.498 150.262L320.252 149.301C319.734 148.355 319.141 147.554 318.462 146.923L317.101 148.389ZM318.512 150.286C318.958 151.049 319.345 151.995 319.661 153.141L321.589 152.609C321.238 151.338 320.792 150.222 320.238 149.276L318.512 150.286ZM319.662 153.145C319.973 154.253 320.194 155.591 320.315 157.17L322.31 157.017C322.181 155.346 321.943 153.872 321.588 152.605L319.662 153.145ZM320.961 156.158L314.805 158.47L315.508 160.342L321.664 158.03L320.961 156.158ZM146.531 252.156L146.58 253.155L147.551 253.108L147.531 252.135L146.531 252.156ZM127.969 253.062L127.92 252.064L126.954 252.111L126.969 253.078L127.969 253.062ZM128.219 269L128.26 269.999L129.234 269.959L129.219 268.984L128.219 269ZM122.219 269.25L121.219 269.266L121.235 270.292L122.26 270.249L122.219 269.25ZM121.5 224.719L121.484 223.719L120.484 223.735L120.5 224.735L121.5 224.719ZM155.438 224.188L156.437 224.224L156.475 223.171L155.422 223.188L155.438 224.188ZM155.219 230.156L155.235 231.156L156.183 231.141L156.218 230.193L155.219 230.156ZM127.656 230.594L127.64 229.594L126.641 229.61L126.656 230.609L127.656 230.594ZM127.906 246.906L126.906 246.922L126.922 247.947L127.947 247.905L127.906 246.906ZM146.406 246.156L147.406 246.135L147.385 245.116L146.366 245.157L146.406 246.156ZM146.482 251.157L127.92 252.064L128.018 254.061L146.58 253.155L146.482 251.157ZM126.969 253.078L127.219 269.016L129.219 268.984L128.969 253.047L126.969 253.078ZM128.177 268.001L122.177 268.251L122.26 270.249L128.26 269.999L128.177 268.001ZM123.219 269.234L122.5 224.703L120.5 224.735L121.219 269.266L123.219 269.234ZM121.516 225.719L155.453 225.187L155.422 223.188L121.484 223.719L121.516 225.719ZM154.438 224.151L154.219 230.12L156.218 230.193L156.437 224.224L154.438 224.151ZM155.203 229.156L127.64 229.594L127.672 231.594L155.235 231.156L155.203 229.156ZM126.656 230.609L126.906 246.922L128.906 246.891L128.656 230.578L126.656 230.609ZM127.947 247.905L146.447 247.155L146.366 245.157L127.866 245.907L127.947 247.905ZM145.406 246.177L145.531 252.177L147.531 252.135L147.406 246.135L145.406 246.177ZM183.719 271.25L182.719 271.264L182.733 272.267L183.736 272.25L183.719 271.25ZM183.594 262.281L184.594 262.267L184.542 258.538L182.721 261.793L183.594 262.281ZM181.25 265.781L182.028 266.41L182.034 266.402L181.25 265.781ZM178.406 268.656L179.029 269.439L179.039 269.431L178.406 268.656ZM175.125 270.594L174.745 269.669L174.739 269.671L175.125 270.594ZM171.5 271.25L171.467 272.249L171.467 272.249L171.5 271.25ZM166.656 270.188L166.22 271.087L166.226 271.09L166.656 270.188ZM163.281 267.625L162.518 268.271L162.524 268.278L163.281 267.625ZM161.062 263.906L160.128 264.263L160.132 264.272L160.135 264.28L161.062 263.906ZM159.219 254.656L158.22 254.707L158.221 254.72L159.219 254.656ZM159.375 243.312L160.371 243.397L160.371 243.396L159.375 243.312ZM160.188 236.5L160.217 235.5L159.333 235.475L159.199 236.349L160.188 236.5ZM166.594 236.688L167.586 236.815L167.727 235.72L166.623 235.688L166.594 236.688ZM165.906 243.656L164.908 243.596L164.908 243.606L165.906 243.656ZM166 255.25L165.005 255.351L165.006 255.361L165.007 255.37L166 255.25ZM167.875 262.031L167.001 262.517L167.007 262.529L167.014 262.54L167.875 262.031ZM172.906 264.656L173.045 265.647L173.048 265.646L172.906 264.656ZM177.906 261.344L177.157 260.681L177.153 260.686L177.906 261.344ZM183.406 252.219L184.312 252.642L184.41 252.432L184.406 252.2L183.406 252.219ZM183.219 244.281L182.219 244.302L182.219 244.313L183.219 244.281ZM183.125 239.75L184.125 239.73L184.124 239.716L183.125 239.75ZM183.031 237.188L182.92 236.194L181.992 236.297L182.032 237.231L183.031 237.188ZM189.75 236.438L190.749 236.403L190.712 235.324L189.639 235.444L189.75 236.438ZM190.062 246.156L189.063 246.185L189.063 246.192L190.062 246.156ZM190.344 253.938L189.344 253.974L189.344 253.974L190.344 253.938ZM190.531 260L189.531 260.024L189.532 260.036L190.531 260ZM190.688 264.5L191.687 264.472L191.687 264.467L190.688 264.5ZM190.844 271.125L190.861 272.125L191.858 272.107L191.844 271.111L190.844 271.125ZM184.719 271.236L184.594 262.267L182.594 262.295L182.719 271.264L184.719 271.236ZM182.721 261.793C182.06 262.976 181.308 264.098 180.466 265.16L182.034 266.402C182.942 265.256 183.753 264.045 184.467 262.769L182.721 261.793ZM180.472 265.153C179.638 266.186 178.738 267.094 177.774 267.882L179.039 269.431C180.116 268.552 181.112 267.544 182.028 266.41L180.472 265.153ZM177.784 267.874C176.834 268.63 175.822 269.227 174.745 269.669L175.505 271.519C176.762 271.003 177.937 270.308 179.029 269.439L177.784 267.874ZM174.739 269.671C173.729 270.094 172.664 270.288 171.533 270.251L171.467 272.249C172.878 272.296 174.229 272.052 175.511 271.516L174.739 269.671ZM171.533 270.251C169.763 270.192 168.29 269.859 167.087 269.285L166.226 271.09C167.731 271.808 169.487 272.183 171.467 272.249L171.533 270.251ZM167.092 269.288C165.875 268.698 164.861 267.925 164.038 266.972L162.524 268.278C163.535 269.45 164.771 270.386 166.22 271.087L167.092 269.288ZM164.045 266.979C163.201 265.982 162.515 264.835 161.99 263.532L160.135 264.28C160.735 265.769 161.528 267.101 162.518 268.271L164.045 266.979ZM161.997 263.549C161.477 262.191 161.077 260.76 160.796 259.254L158.829 259.621C159.132 261.24 159.564 262.788 160.128 264.263L161.997 263.549ZM160.796 259.254C160.511 257.732 160.318 256.178 160.217 254.592L158.221 254.72C158.327 256.384 158.53 258.018 158.829 259.621L160.796 259.254ZM160.217 254.606C160.135 252.976 160.094 251.399 160.094 249.875H158.094C158.094 251.435 158.136 253.045 158.22 254.707L160.217 254.606ZM160.094 249.875C160.094 247.737 160.186 245.578 160.371 243.397L158.379 243.228C158.189 245.464 158.094 247.679 158.094 249.875H160.094ZM160.371 243.396C160.557 241.191 160.825 238.942 161.176 236.651L159.199 236.349C158.842 238.683 158.568 240.976 158.379 243.229L160.371 243.396ZM160.158 237.5L166.564 237.687L166.623 235.688L160.217 235.5L160.158 237.5ZM165.602 236.56C165.266 239.16 165.035 241.506 164.908 243.596L166.904 243.717C167.028 241.682 167.254 239.382 167.586 236.815L165.602 236.56ZM164.908 243.606C164.803 245.68 164.75 247.51 164.75 249.094H166.75C166.75 247.552 166.801 245.757 166.905 243.707L164.908 243.606ZM164.75 249.094C164.75 249.811 164.761 250.714 164.781 251.8L166.781 251.762C166.76 250.682 166.75 249.793 166.75 249.094H164.75ZM164.781 251.8C164.803 252.915 164.878 254.098 165.005 255.351L166.995 255.149C166.872 253.943 166.801 252.815 166.781 251.762L164.781 251.8ZM165.007 255.37C165.158 256.618 165.384 257.856 165.685 259.082L167.627 258.605C167.345 257.457 167.134 256.298 166.993 255.13L165.007 255.37ZM165.685 259.082C165.995 260.344 166.431 261.492 167.001 262.517L168.749 261.546C168.277 260.696 167.901 259.718 167.627 258.605L165.685 259.082ZM167.014 262.54C167.629 263.58 168.416 264.413 169.382 265.008L170.43 263.305C169.772 262.899 169.205 262.316 168.736 261.523L167.014 262.54ZM169.382 265.008C170.439 265.659 171.688 265.837 173.045 265.647L172.767 263.666C171.749 263.809 170.998 263.654 170.43 263.305L169.382 265.008ZM173.048 265.646C174.998 265.368 176.864 264.056 178.659 262.002L177.153 260.686C175.49 262.59 174.023 263.487 172.765 263.666L173.048 265.646ZM178.655 262.006C180.498 259.922 182.38 256.78 184.312 252.642L182.5 251.796C180.6 255.865 178.814 258.807 177.157 260.681L178.655 262.006ZM184.406 252.2C184.344 248.886 184.281 246.235 184.218 244.25L182.219 244.313C182.282 246.286 182.344 248.927 182.406 252.238L184.406 252.2ZM184.219 244.26C184.177 242.281 184.146 240.771 184.125 239.73L182.125 239.77C182.146 240.812 182.177 242.323 182.219 244.302L184.219 244.26ZM184.124 239.716C184.083 238.487 184.051 237.629 184.03 237.144L182.032 237.231C182.053 237.705 182.084 238.554 182.126 239.784L184.124 239.716ZM183.142 238.181L189.861 237.431L189.639 235.444L182.92 236.194L183.142 238.181ZM188.751 236.472C188.876 240.054 188.98 243.292 189.063 246.185L191.062 246.127C190.979 243.229 190.874 239.988 190.749 236.403L188.751 236.472ZM189.063 246.192C189.167 249.067 189.261 251.661 189.344 253.974L191.343 253.901C191.26 251.589 191.166 248.995 191.062 246.12L189.063 246.192ZM189.344 253.974C189.428 256.263 189.49 258.279 189.532 260.024L191.531 259.976C191.489 258.221 191.427 256.196 191.343 253.901L189.344 253.974ZM189.532 260.036C189.594 261.765 189.646 263.263 189.688 264.533L191.687 264.467C191.645 263.195 191.593 261.694 191.531 259.964L189.532 260.036ZM189.688 264.528C189.771 267.506 189.823 269.709 189.844 271.139L191.844 271.111C191.823 269.666 191.77 267.452 191.687 264.472L189.688 264.528ZM190.826 270.125L183.701 270.25L183.736 272.25L190.861 272.125L190.826 270.125ZM227.188 267.156L226.33 266.642L226.328 266.646L227.188 267.156ZM223.969 270.406L223.445 269.555L223.437 269.559L223.429 269.564L223.969 270.406ZM219.344 272.281L219.123 271.306L219.109 271.309L219.344 272.281ZM213.938 273.031L213.927 274.031L213.954 274.031L213.982 274.03L213.938 273.031ZM208.125 272.438L208.313 271.455L208.305 271.454L208.297 271.452L208.125 272.438ZM205.469 271.812L205.746 270.852L205.739 270.85L205.732 270.848L205.469 271.812ZM202.656 270.875L202.292 271.806L202.656 270.875ZM197.031 267.719L196.188 267.181L195.701 267.945L196.413 268.505L197.031 267.719ZM200.062 262.969L200.529 262.084L199.715 261.655L199.22 262.431L200.062 262.969ZM203.562 264.719L203.134 265.623L203.14 265.625L203.562 264.719ZM207.25 266.219L206.92 267.163L206.927 267.165L206.934 267.167L207.25 266.219ZM218.062 267.281L218.317 268.248L218.329 268.245L218.341 268.242L218.062 267.281ZM220 266.469L220.53 267.317L220.539 267.311L220 266.469ZM221.188 265.375L220.368 264.802L220.362 264.81L221.188 265.375ZM221.812 264.188L222.761 264.504L222.764 264.495L222.767 264.486L221.812 264.188ZM221.938 263.094L220.939 263.144L220.939 263.146L221.938 263.094ZM221.594 261.844L220.682 262.254L220.69 262.273L220.699 262.291L221.594 261.844ZM220.688 260.625L219.963 261.314L219.98 261.332L219.999 261.35L220.688 260.625ZM219.094 259.531L218.647 260.426L218.658 260.431L218.669 260.437L219.094 259.531ZM213.25 258.312L213.298 257.314L213.294 257.313L213.25 258.312ZM207.812 257.75L207.635 258.734L207.648 258.736L207.812 257.75ZM203.156 256.312L202.726 257.215L202.731 257.218L203.156 256.312ZM199.781 253.781L199.009 254.417L199.016 254.425L199.023 254.433L199.781 253.781ZM198.188 249.812L197.192 249.909L197.193 249.92L197.194 249.93L198.188 249.812ZM198.469 245.719L197.507 245.446L197.504 245.457L198.469 245.719ZM200.031 242.375L199.221 241.789L199.213 241.8L200.031 242.375ZM202.625 239.812L203.206 240.626L203.217 240.618L202.625 239.812ZM205.969 237.969L206.337 238.898L206.344 238.896L206.351 238.893L205.969 237.969ZM209.781 236.875L209.951 237.861L209.963 237.858L209.781 236.875ZM223.875 238.219L223.512 239.15L223.519 239.153L223.526 239.156L223.875 238.219ZM227.312 240.062L228.248 240.415L228.517 239.701L227.9 239.253L227.312 240.062ZM225.156 245.781L224.688 246.665L225.691 247.197L226.092 246.134L225.156 245.781ZM221.219 244.094L220.898 245.041L220.907 245.044L220.917 245.047L221.219 244.094ZM217.938 243.125L218.17 242.152L218.162 242.151L218.154 242.149L217.938 243.125ZM214.781 242.625L214.866 241.629L214.852 241.627L214.838 241.627L214.781 242.625ZM207.125 243.656L206.694 242.754L206.69 242.756L207.125 243.656ZM205.438 250.375L204.791 251.138L204.797 251.143L204.804 251.149L205.438 250.375ZM217.469 252.625L217.62 251.637L217.618 251.636L217.469 252.625ZM227.844 259L226.905 259.345L226.907 259.351L227.844 259ZM227.406 262.156C227.406 264 227.028 265.478 226.33 266.642L228.045 267.671C228.972 266.126 229.406 264.271 229.406 262.156H227.406ZM226.328 266.646C225.621 267.836 224.665 268.804 223.445 269.555L224.493 271.258C225.981 270.342 227.171 269.143 228.047 267.667L226.328 266.646ZM223.429 269.564C222.206 270.348 220.775 270.932 219.123 271.306L219.564 273.257C221.413 272.839 223.065 272.173 224.508 271.248L223.429 269.564ZM219.109 271.309C217.446 271.71 215.708 271.952 213.893 272.032L213.982 274.03C215.917 273.944 217.783 273.686 219.578 273.253L219.109 271.309ZM213.948 272.031C212.094 272.011 210.215 271.82 208.313 271.455L207.937 273.42C209.951 273.805 211.948 274.01 213.927 274.031L213.948 272.031ZM208.297 271.452C207.504 271.314 206.654 271.114 205.746 270.852L205.191 272.773C206.158 273.053 207.079 273.27 207.953 273.423L208.297 271.452ZM205.732 270.848C204.852 270.608 203.949 270.307 203.021 269.944L202.292 271.806C203.281 272.193 204.252 272.517 205.206 272.777L205.732 270.848ZM203.021 269.944C202.103 269.585 201.183 269.155 200.259 268.653L199.304 270.41C200.296 270.949 201.293 271.415 202.292 271.806L203.021 269.944ZM200.259 268.653C199.351 268.159 198.481 267.586 197.649 266.932L196.413 268.505C197.332 269.227 198.295 269.862 199.304 270.41L200.259 268.653ZM197.874 268.257L200.905 263.507L199.22 262.431L196.188 267.181L197.874 268.257ZM199.596 263.853C200.755 264.464 201.934 265.054 203.134 265.622L203.991 263.815C202.816 263.259 201.662 262.682 200.529 262.084L199.596 263.853ZM203.14 265.625C204.379 266.202 205.638 266.714 206.92 267.163L207.58 265.275C206.362 264.848 205.163 264.361 203.985 263.812L203.14 265.625ZM206.934 267.167C208.227 267.598 209.551 267.943 210.907 268.201L211.281 266.236C210.011 265.995 208.773 265.672 207.566 265.27L206.934 267.167ZM210.907 268.201C212.284 268.463 213.7 268.594 215.156 268.594V266.594C213.82 266.594 212.529 266.474 211.281 266.236L210.907 268.201ZM215.156 268.594C216.357 268.594 217.417 268.485 218.317 268.248L217.808 266.314C217.125 266.494 216.248 266.594 215.156 266.594V268.594ZM218.341 268.242C219.189 267.996 219.927 267.693 220.53 267.317L219.47 265.621C219.073 265.869 218.52 266.108 217.784 266.321L218.341 268.242ZM220.539 267.311C221.142 266.925 221.648 266.473 222.013 265.94L220.362 264.81C220.186 265.068 219.9 265.345 219.461 265.626L220.539 267.311ZM222.007 265.948C222.339 265.474 222.598 264.992 222.761 264.504L220.864 263.871C220.777 264.133 220.62 264.443 220.368 264.802L222.007 265.948ZM222.767 264.486C222.911 264.025 222.962 263.54 222.936 263.041L220.939 263.146C220.954 263.439 220.922 263.684 220.858 263.889L222.767 264.486ZM222.936 263.044C222.908 262.474 222.751 261.923 222.488 261.397L220.699 262.291C220.853 262.598 220.926 262.881 220.939 263.144L222.936 263.044ZM222.506 261.433C222.253 260.872 221.864 260.363 221.376 259.9L219.999 261.35C220.345 261.679 220.559 261.982 220.682 262.254L222.506 261.433ZM221.412 259.936C220.91 259.408 220.267 258.977 219.518 258.626L218.669 260.437C219.253 260.711 219.673 261.009 219.963 261.314L221.412 259.936ZM219.541 258.637C218.781 258.257 217.884 257.962 216.869 257.742L216.444 259.696C217.345 259.892 218.074 260.139 218.647 260.426L219.541 258.637ZM216.869 257.742C215.841 257.518 214.648 257.378 213.298 257.314L213.202 259.311C214.477 259.372 215.554 259.503 216.444 259.696L216.869 257.742ZM213.294 257.313C211.457 257.232 209.685 257.048 207.977 256.764L207.648 258.736C209.44 259.035 211.293 259.226 213.206 259.312L213.294 257.313ZM207.99 256.766C206.334 256.467 204.867 256.011 203.581 255.407L202.731 257.218C204.196 257.906 205.833 258.408 207.635 258.734L207.99 256.766ZM203.587 255.41C202.346 254.818 201.337 254.056 200.539 253.129L199.023 254.433C200.018 255.59 201.258 256.515 202.726 257.215L203.587 255.41ZM200.553 253.146C199.818 252.253 199.349 251.119 199.181 249.695L197.194 249.93C197.401 251.673 197.994 253.184 199.009 254.417L200.553 253.146ZM199.183 249.716C199.047 248.314 199.137 247.074 199.434 245.98L197.504 245.457C197.133 246.822 197.037 248.311 197.192 249.909L199.183 249.716ZM199.431 245.991C199.757 244.84 200.232 243.829 200.85 242.95L199.213 241.8C198.455 242.879 197.889 244.097 197.507 245.446L199.431 245.991ZM200.841 242.961C201.484 242.073 202.27 241.295 203.206 240.626L202.044 238.999C200.938 239.788 199.995 240.719 199.221 241.789L200.841 242.961ZM203.217 240.618C204.167 239.92 205.206 239.347 206.337 238.898L205.6 237.039C204.314 237.549 203.124 238.205 202.033 239.007L203.217 240.618ZM206.351 238.893C207.489 238.422 208.688 238.078 209.951 237.861L209.612 235.889C208.208 236.131 206.866 236.515 205.586 237.045L206.351 238.893ZM209.963 237.858C211.257 237.619 212.561 237.5 213.875 237.5V235.5C212.439 235.5 211.014 235.631 209.6 235.892L209.963 237.858ZM213.875 237.5C214.655 237.5 215.587 237.54 216.675 237.622L216.825 235.628C215.704 235.543 214.72 235.5 213.875 235.5V237.5ZM216.675 237.622C217.732 237.702 218.845 237.862 220.016 238.104L220.421 236.146C219.176 235.888 217.977 235.715 216.825 235.628L216.675 237.622ZM220.016 238.104C221.166 238.342 222.331 238.69 223.512 239.15L224.238 237.287C222.96 236.789 221.688 236.408 220.421 236.146L220.016 238.104ZM223.526 239.156C224.67 239.582 225.736 240.154 226.725 240.872L227.9 239.253C226.764 238.429 225.538 237.772 224.224 237.282L223.526 239.156ZM226.377 239.71L224.221 245.428L226.092 246.134L228.248 240.415L226.377 239.71ZM225.625 244.898C224.206 244.145 222.838 243.557 221.521 243.14L220.917 245.047C222.1 245.422 223.356 245.959 224.688 246.665L225.625 244.898ZM221.54 243.147C220.29 242.723 219.166 242.391 218.17 242.152L217.705 244.098C218.626 244.318 219.689 244.631 220.898 245.041L221.54 243.147ZM218.154 242.149C216.993 241.891 215.896 241.716 214.866 241.629L214.696 243.621C215.624 243.7 216.632 243.859 217.721 244.101L218.154 242.149ZM214.838 241.627C211.492 241.435 208.745 241.775 206.694 242.754L207.556 244.559C209.171 243.788 211.529 243.44 214.724 243.623L214.838 241.627ZM206.69 242.756C205.666 243.25 204.835 243.902 204.261 244.74C203.682 245.585 203.406 246.56 203.406 247.625H205.406C205.406 246.919 205.584 246.348 205.911 245.87C206.243 245.385 206.771 244.938 207.56 244.557L206.69 242.756ZM203.406 247.625C203.406 249.05 203.802 250.299 204.791 251.138L206.084 249.612C205.698 249.284 205.406 248.7 205.406 247.625H203.406ZM204.804 251.149C205.653 251.843 206.754 252.301 208.044 252.572L208.456 250.615C207.371 250.387 206.597 250.032 206.071 249.601L204.804 251.149ZM208.044 252.572C209.295 252.836 210.733 253.007 212.354 253.092L212.459 251.095C210.912 251.014 209.58 250.852 208.456 250.615L208.044 252.572ZM212.354 253.092C213.9 253.174 215.555 253.347 217.319 253.614L217.618 251.636C215.799 251.361 214.079 251.18 212.459 251.095L212.354 253.092ZM217.317 253.613C219.299 253.917 220.925 254.366 222.216 254.944L223.034 253.119C221.533 252.447 219.722 251.958 217.62 251.637L217.317 253.613ZM222.216 254.944C223.534 255.534 224.552 256.203 225.302 256.935L226.698 255.503C225.74 254.568 224.508 253.779 223.034 253.119L222.216 254.944ZM225.302 256.935C226.06 257.674 226.586 258.477 226.905 259.345L228.782 258.655C228.351 257.481 227.649 256.43 226.698 255.503L225.302 256.935ZM226.907 259.351C227.239 260.235 227.406 261.168 227.406 262.156H229.406C229.406 260.936 229.199 259.765 228.78 258.649L226.907 259.351ZM243.25 229.062L242.342 228.643L242.335 228.658L242.329 228.673L243.25 229.062ZM242.281 230.469L241.593 229.744L241.583 229.753L241.574 229.762L242.281 230.469ZM237.406 231.406L237.004 232.322L237.01 232.324L237.017 232.327L237.406 231.406ZM236 230.469L235.293 231.176L235.302 231.185L235.311 231.194L236 230.469ZM236 224.188L235.293 223.48L236 224.188ZM237.406 223.219L237.809 224.134L237.817 224.13L237.825 224.127L237.406 223.219ZM240.875 223.219L240.456 224.127L240.471 224.133L240.485 224.14L240.875 223.219ZM242.281 224.188L241.556 224.876L241.574 224.895L241.593 224.912L242.281 224.188ZM243.25 225.594L242.329 225.983L242.335 225.998L242.342 226.013L243.25 225.594ZM242.156 238.344L243.156 238.365L243.178 237.304L242.118 237.344L242.156 238.344ZM241.969 246.562L240.969 246.538L240.969 246.546L241.969 246.562ZM241.719 258.844L240.719 258.818L240.719 258.831L241.719 258.844ZM241.656 263.062L242.656 263.084L242.656 263.08L241.656 263.062ZM241.562 269.844V270.844H242.562V269.844H241.562ZM235.156 269.844L234.156 269.825L234.138 270.844H235.156V269.844ZM235.312 261.812L236.312 261.833L236.312 261.828L235.312 261.812ZM235.469 252.031L234.469 252.01L234.469 252.015L235.469 252.031ZM235.688 238.594L235.649 237.594L234.699 237.631L234.688 238.582L235.688 238.594ZM242.625 227.344C242.625 227.805 242.531 228.235 242.342 228.643L244.158 229.482C244.469 228.807 244.625 228.091 244.625 227.344H242.625ZM242.329 228.673C242.152 229.091 241.907 229.445 241.593 229.744L242.97 231.194C243.489 230.701 243.89 230.117 244.171 229.452L242.329 228.673ZM241.574 229.762C241.274 230.062 240.915 230.304 240.485 230.485L241.265 232.327C241.919 232.05 242.497 231.667 242.988 231.176L241.574 229.762ZM240.485 230.485C240.075 230.659 239.625 230.75 239.125 230.75V232.75C239.875 232.75 240.592 232.612 241.265 232.327L240.485 230.485ZM239.125 230.75C238.651 230.75 238.211 230.661 237.796 230.485L237.017 232.327C237.685 232.61 238.391 232.75 239.125 232.75V230.75ZM237.809 230.491C237.395 230.309 237.023 230.061 236.689 229.744L235.311 231.194C235.811 231.668 236.376 232.045 237.004 232.322L237.809 230.491ZM236.707 229.762C236.407 229.461 236.165 229.102 235.983 228.673L234.142 229.452C234.418 230.106 234.801 230.684 235.293 231.176L236.707 229.762ZM235.983 228.673C235.808 228.258 235.719 227.818 235.719 227.344H233.719C233.719 228.078 233.859 228.784 234.142 229.452L235.983 228.673ZM235.719 227.344C235.719 226.844 235.81 226.394 235.983 225.983L234.142 225.204C233.857 225.877 233.719 226.593 233.719 227.344H235.719ZM235.983 225.983C236.165 225.554 236.407 225.195 236.707 224.895L235.293 223.48C234.801 223.972 234.418 224.55 234.142 225.204L235.983 225.983ZM236.707 224.895C237.039 224.562 237.406 224.312 237.809 224.134L237.004 222.303C236.365 222.584 235.794 222.979 235.293 223.48L236.707 224.895ZM237.825 224.127C238.234 223.938 238.664 223.844 239.125 223.844V221.844C238.378 221.844 237.662 221.999 236.987 222.311L237.825 224.127ZM239.125 223.844C239.612 223.844 240.052 223.94 240.456 224.127L241.294 222.311C240.615 221.997 239.888 221.844 239.125 221.844V223.844ZM240.485 224.14C240.904 224.317 241.257 224.562 241.556 224.876L243.006 223.499C242.514 222.98 241.93 222.579 241.265 222.298L240.485 224.14ZM241.593 224.912C241.907 225.211 242.152 225.565 242.329 225.983L244.171 225.204C243.89 224.539 243.489 223.955 242.97 223.463L241.593 224.912ZM242.342 226.013C242.529 226.417 242.625 226.856 242.625 227.344H244.625C244.625 226.581 244.471 225.854 244.158 225.175L242.342 226.013ZM241.156 238.323C241.094 241.301 241.032 244.039 240.969 246.538L242.968 246.587C243.031 244.086 243.094 241.345 243.156 238.365L241.156 238.323ZM240.969 246.546C240.927 249.024 240.886 251.283 240.844 253.323L242.844 253.364C242.885 251.321 242.927 249.059 242.969 246.579L240.969 246.546ZM240.844 253.323C240.802 255.364 240.761 257.195 240.719 258.818L242.718 258.869C242.76 257.242 242.802 255.407 242.844 253.364L240.844 253.323ZM240.719 258.831C240.698 260.434 240.677 261.839 240.656 263.045L242.656 263.08C242.677 261.87 242.698 260.462 242.719 258.857L240.719 258.831ZM240.656 263.041C240.594 265.919 240.562 268.187 240.562 269.844H242.562C242.562 268.209 242.594 265.956 242.656 263.084L240.656 263.041ZM241.562 268.844H235.156V270.844H241.562V268.844ZM236.156 269.862C236.198 267.613 236.25 264.936 236.312 261.833L234.313 261.792C234.25 264.897 234.198 267.575 234.156 269.825L236.156 269.862ZM236.312 261.828C236.354 259.162 236.406 255.902 236.469 252.047L234.469 252.015C234.406 255.869 234.354 259.13 234.313 261.797L236.312 261.828ZM236.469 252.053C236.552 248.195 236.625 243.712 236.687 238.606L234.688 238.582C234.625 243.683 234.552 248.159 234.469 252.01L236.469 252.053ZM235.726 239.593L242.195 239.343L242.118 237.344L235.649 237.594L235.726 239.593ZM281.219 261.125L280.288 260.76L281.219 261.125ZM277.625 266.938L276.891 266.259L277.625 266.938ZM272.281 270.781L271.872 269.869L271.864 269.872L272.281 270.781ZM253.938 267.156L253.203 267.835L253.212 267.844L253.938 267.156ZM250.375 246.312L251.307 246.675L251.308 246.672L250.375 246.312ZM253.938 240.5L253.212 239.812L253.207 239.817L253.938 240.5ZM272.281 236.875L271.864 237.784L271.872 237.787L272.281 236.875ZM277.625 240.719L276.891 241.397L276.895 241.402L277.625 240.719ZM281.219 246.531L280.287 246.894L280.288 246.897L281.219 246.531ZM275.375 249.25L274.403 249.486L274.404 249.489L275.375 249.25ZM273.594 245.125L272.76 245.676L272.764 245.683L273.594 245.125ZM258.062 245.125L258.892 245.683L258.897 245.676L258.062 245.125ZM256.281 249.25L257.252 249.489L257.253 249.486L256.281 249.25ZM256.312 258.312L255.345 258.564L255.348 258.577L256.312 258.312ZM258.188 262.438L257.36 262.999L257.364 263.005L258.188 262.438ZM261.312 265.406L260.788 266.257L260.794 266.261L261.312 265.406ZM270.312 265.406L269.8 264.548L269.794 264.551L270.312 265.406ZM273.5 262.438L274.323 263.005L274.328 262.999L273.5 262.438ZM281.531 253.844C281.531 256.356 281.113 258.658 280.288 260.76L282.15 261.49C283.075 259.134 283.531 256.582 283.531 253.844H281.531ZM280.288 260.76C279.455 262.881 278.321 264.71 276.891 266.259L278.359 267.616C279.97 265.873 281.232 263.827 282.15 261.49L280.288 260.76ZM276.891 266.259C275.461 267.806 273.79 269.008 271.872 269.869L272.691 271.694C274.856 270.722 276.747 269.361 278.359 267.616L276.891 266.259ZM271.864 269.872C269.957 270.748 267.923 271.188 265.75 271.188V273.188C268.202 273.188 270.522 272.689 272.699 271.69L271.864 269.872ZM265.75 271.188C263.567 271.188 261.536 270.775 259.647 269.957L258.853 271.793C261.005 272.725 263.308 273.188 265.75 273.188V271.188ZM259.647 269.957C257.751 269.136 256.092 267.975 254.663 266.468L253.212 267.844C254.825 269.546 256.708 270.864 258.853 271.793L259.647 269.957ZM254.672 266.478C253.265 264.953 252.141 263.125 251.307 260.981L249.443 261.706C250.359 264.062 251.61 266.109 253.203 267.835L254.672 266.478ZM251.307 260.981C250.483 258.862 250.062 256.487 250.062 253.844H248.062C248.062 256.701 248.517 259.326 249.443 261.706L251.307 260.981ZM250.062 253.844C250.062 251.179 250.483 248.794 251.307 246.675L249.443 245.95C248.517 248.331 248.062 250.967 248.062 253.844H250.062ZM251.308 246.672C252.142 244.508 253.265 242.684 254.668 241.183L253.207 239.817C251.61 241.525 250.358 243.575 249.442 245.953L251.308 246.672ZM254.663 241.188C256.092 239.681 257.751 238.52 259.647 237.699L258.853 235.864C256.708 236.792 254.825 238.11 253.212 239.812L254.663 241.188ZM259.647 237.699C261.536 236.881 263.567 236.469 265.75 236.469V234.469C263.308 234.469 261.005 234.932 258.853 235.864L259.647 237.699ZM265.75 236.469C267.923 236.469 269.957 236.908 271.864 237.784L272.699 235.966C270.522 234.967 268.202 234.469 265.75 234.469V236.469ZM271.872 237.787C273.79 238.649 275.461 239.85 276.891 241.397L278.359 240.04C276.747 238.295 274.856 236.935 272.691 235.963L271.872 237.787ZM276.895 241.402C278.321 242.926 279.454 244.752 280.287 246.894L282.151 246.169C281.233 243.81 279.97 241.761 278.355 240.035L276.895 241.402ZM280.288 246.897C281.113 248.998 281.531 251.31 281.531 253.844H283.531C283.531 251.086 283.075 248.523 282.15 246.166L280.288 246.897ZM276.938 253.781C276.938 252.197 276.739 250.606 276.346 249.011L274.404 249.489C274.761 250.935 274.938 252.365 274.938 253.781H276.938ZM276.347 249.014C275.946 247.368 275.308 245.882 274.424 244.567L272.764 245.683C273.505 246.785 274.054 248.049 274.403 249.486L276.347 249.014ZM274.428 244.574C273.531 243.216 272.368 242.112 270.95 241.266L269.925 242.984C271.091 243.679 272.032 244.575 272.76 245.676L274.428 244.574ZM270.95 241.266C269.473 240.385 267.724 239.969 265.75 239.969V241.969C267.442 241.969 268.819 242.324 269.925 242.984L270.95 241.266ZM265.75 239.969C263.832 239.969 262.124 240.388 260.669 241.27L261.706 242.98C262.793 242.321 264.127 241.969 265.75 241.969V239.969ZM260.669 241.27C259.273 242.117 258.123 243.22 257.228 244.574L258.897 245.676C259.627 244.572 260.56 243.675 261.706 242.98L260.669 241.27ZM257.233 244.567C256.349 245.882 255.71 247.368 255.31 249.014L257.253 249.486C257.603 248.049 258.151 246.785 258.892 245.683L257.233 244.567ZM255.31 249.011C254.917 250.606 254.719 252.197 254.719 253.781H256.719C256.719 252.365 256.896 250.935 257.252 249.489L255.31 249.011ZM254.719 253.781C254.719 255.37 254.929 256.965 255.345 258.564L257.28 258.061C256.905 256.618 256.719 255.192 256.719 253.781H254.719ZM255.348 258.577C255.792 260.197 256.461 261.673 257.36 262.999L259.015 261.876C258.247 260.743 257.666 259.47 257.277 258.048L255.348 258.577ZM257.364 263.005C258.276 264.328 259.42 265.414 260.788 266.257L261.837 264.555C260.705 263.857 259.765 262.964 259.011 261.87L257.364 263.005ZM260.794 266.261C262.241 267.139 263.905 267.562 265.75 267.562V265.562C264.22 265.562 262.925 265.215 261.831 264.551L260.794 266.261ZM265.75 267.562C267.668 267.562 269.376 267.144 270.831 266.261L269.794 264.551C268.707 265.21 267.373 265.562 265.75 265.562V267.562ZM270.825 266.265C272.237 265.422 273.406 264.335 274.323 263.005L272.677 261.87C271.927 262.957 270.972 263.848 269.8 264.548L270.825 266.265ZM274.328 262.999C275.229 261.67 275.889 260.189 276.312 258.564L274.376 258.061C274.007 259.478 273.438 260.747 272.672 261.876L274.328 262.999ZM276.312 258.564C276.728 256.965 276.938 255.37 276.938 253.781H274.938C274.938 255.192 274.751 256.618 274.376 258.061L276.312 258.564ZM290.375 271.312L289.376 271.347L289.414 272.441L290.5 272.305L290.375 271.312ZM290.031 261.594L289.032 261.629L289.032 261.63L290.031 261.594ZM289.531 247.719L288.531 247.743L288.532 247.754L289.531 247.719ZM289.406 243.188L288.407 243.215L288.407 243.22L289.406 243.188ZM289.219 236.562L289.201 235.563L288.19 235.58L288.219 236.591L289.219 236.562ZM296.344 236.438L297.344 236.424L297.33 235.42L296.326 235.438L296.344 236.438ZM296.469 245.438L295.469 245.451L295.519 249.074L297.334 245.939L296.469 245.438ZM298.812 242.094L299.578 242.737L299.584 242.729L298.812 242.094ZM301.656 239.281L302.279 240.064L301.656 239.281ZM304.906 237.312L304.512 236.393L304.506 236.396L304.906 237.312ZM308.562 236.438L308.628 237.435L308.628 237.435L308.562 236.438ZM312.688 236.844L312.381 237.796L312.386 237.797L312.688 236.844ZM317.781 240.781L316.92 241.29L316.926 241.299L317.781 240.781ZM319.062 243.594L318.11 243.898L318.112 243.904L319.062 243.594ZM319.719 246.469L318.727 246.598L318.729 246.609L318.73 246.619L319.719 246.469ZM320 249.094L320.999 249.059L320.999 249.05L320.999 249.041L320 249.094ZM319.875 271.188L319.841 272.187L320.853 272.221L320.875 271.209L319.875 271.188ZM313.469 270.969L312.47 270.919L312.42 271.934L313.435 271.968L313.469 270.969ZM313.906 260.906L312.907 260.863L312.907 260.869L313.906 260.906ZM313.875 250.75H312.875V250.774L312.876 250.799L313.875 250.75ZM313.781 249.312L312.784 249.381L312.785 249.4L312.787 249.419L313.781 249.312ZM313.438 247.406L312.467 247.649L312.471 247.663L312.475 247.677L313.438 247.406ZM312.719 245.438L311.813 245.862L311.819 245.873L312.719 245.438ZM311.5 243.719L310.793 244.426L310.8 244.433L310.808 244.441L311.5 243.719ZM309.656 242.594L309.323 243.537L309.332 243.54L309.656 242.594ZM307.156 242.438L307.306 243.426L307.307 243.426L307.156 242.438ZM302.125 246.062L301.34 245.443L301.339 245.444L302.125 246.062ZM296.656 255.5L295.752 255.073L295.651 255.288L295.657 255.525L296.656 255.5ZM296.844 263.531L295.844 263.552L295.844 263.563L296.844 263.531ZM297 268.031L297.999 267.997L297.999 267.99L297 268.031ZM297.094 270.469L297.218 271.461L298.139 271.345L298.093 270.419L297.094 270.469ZM291.374 271.278C291.249 267.694 291.135 264.454 291.031 261.558L289.032 261.63C289.136 264.525 289.251 267.764 289.376 271.347L291.374 271.278ZM291.031 261.558C290.926 258.641 290.833 256.037 290.749 253.745L288.751 253.818C288.834 256.109 288.928 258.713 289.032 261.629L291.031 261.558ZM290.749 253.745C290.666 251.453 290.593 249.433 290.531 247.683L288.532 247.754C288.594 249.505 288.667 251.526 288.751 253.818L290.749 253.745ZM290.531 247.695C290.489 245.943 290.448 244.429 290.406 243.155L288.407 243.22C288.448 244.487 288.49 245.995 288.532 247.743L290.531 247.695ZM290.406 243.16C290.323 240.18 290.26 237.972 290.218 236.534L288.219 236.591C288.261 238.028 288.323 240.236 288.407 243.215L290.406 243.16ZM289.236 237.562L296.361 237.437L296.326 235.438L289.201 235.563L289.236 237.562ZM295.344 236.451L295.469 245.451L297.469 245.424L297.344 236.424L295.344 236.451ZM297.334 245.939C297.993 244.801 298.741 243.734 299.578 242.737L298.047 241.451C297.134 242.537 296.32 243.699 295.603 244.936L297.334 245.939ZM299.584 242.729C300.417 241.718 301.316 240.83 302.279 240.064L301.034 238.499C299.955 239.357 298.958 240.345 298.041 241.458L299.584 242.729ZM302.279 240.064C303.235 239.303 304.244 238.693 305.306 238.229L304.506 236.396C303.277 236.932 302.119 237.634 301.034 238.499L302.279 240.064ZM305.3 238.232C306.362 237.776 307.47 237.511 308.628 237.435L308.497 235.44C307.113 235.53 305.784 235.849 304.512 236.393L305.3 238.232ZM308.628 237.435C310.121 237.337 311.364 237.469 312.381 237.796L312.994 235.892C311.677 235.469 310.171 235.33 308.497 235.44L308.628 237.435ZM312.386 237.797C313.476 238.141 314.372 238.609 315.094 239.187L316.343 237.625C315.399 236.87 314.274 236.296 312.989 235.89L312.386 237.797ZM315.094 239.187C315.833 239.778 316.44 240.478 316.92 241.29L318.642 240.273C318.039 239.251 317.271 238.368 316.343 237.625L315.094 239.187ZM316.926 241.299C317.427 242.129 317.822 242.995 318.11 243.898L320.015 243.29C319.678 242.234 319.218 241.225 318.637 240.264L316.926 241.299ZM318.112 243.904C318.406 244.806 318.61 245.704 318.727 246.598L320.71 246.339C320.577 245.317 320.344 244.298 320.013 243.284L318.112 243.904ZM318.73 246.619C318.872 247.552 318.962 248.394 319.001 249.146L320.999 249.041C320.955 248.211 320.857 247.302 320.707 246.318L318.73 246.619ZM319.001 249.129C319.125 252.694 319.156 256.281 319.094 259.889L321.094 259.923C321.156 256.281 321.125 252.66 320.999 249.059L319.001 249.129ZM319.094 259.889C319.031 263.513 318.959 267.272 318.875 271.166L320.875 271.209C320.958 267.312 321.031 263.55 321.094 259.923L319.094 259.889ZM319.909 270.188L313.503 269.969L313.435 271.968L319.841 272.187L319.909 270.188ZM314.468 271.018C314.634 267.66 314.78 264.302 314.906 260.943L312.907 260.869C312.782 264.219 312.636 267.569 312.47 270.919L314.468 271.018ZM314.905 260.95C315.052 257.564 315.042 254.148 314.874 250.701L312.876 250.799C313.041 254.185 313.052 257.54 312.907 260.863L314.905 260.95ZM314.875 250.75C314.875 250.325 314.84 249.807 314.776 249.206L312.787 249.419C312.848 249.984 312.875 250.425 312.875 250.75H314.875ZM314.779 249.244C314.732 248.562 314.604 247.859 314.4 247.136L312.475 247.677C312.646 248.287 312.747 248.854 312.784 249.381L314.779 249.244ZM314.408 247.164C314.224 246.428 313.96 245.707 313.619 245.002L311.819 245.873C312.103 246.46 312.318 247.052 312.467 247.649L314.408 247.164ZM313.624 245.013C313.263 244.242 312.786 243.566 312.192 242.997L310.808 244.441C311.214 244.829 311.55 245.3 311.813 245.862L313.624 245.013ZM312.207 243.012C311.59 242.394 310.841 241.943 309.981 241.648L309.332 243.54C309.93 243.745 310.41 244.043 310.793 244.426L312.207 243.012ZM309.989 241.651C309.087 241.333 308.081 241.285 307.006 241.449L307.307 243.426C308.148 243.298 308.808 243.355 309.323 243.537L309.989 241.651ZM307.006 241.449C304.988 241.755 303.108 243.2 301.34 245.443L302.91 246.682C304.558 244.591 306.032 243.62 307.306 243.426L307.006 241.449ZM301.339 245.444C299.584 247.676 297.724 250.898 295.752 255.073L297.56 255.927C299.505 251.81 301.291 248.741 302.911 246.681L301.339 245.444ZM295.657 255.525C295.74 258.878 295.802 261.554 295.844 263.552L297.844 263.51C297.802 261.508 297.739 258.83 297.656 255.475L295.657 255.525ZM295.844 263.563C295.907 265.543 295.959 267.046 296.001 268.072L297.999 267.99C297.958 266.974 297.906 265.478 297.843 263.5L295.844 263.563ZM296.001 268.066C296.042 269.273 296.074 270.093 296.095 270.519L298.093 270.419C298.072 270.011 298.041 269.206 297.999 267.997L296.001 268.066ZM296.969 269.477L290.25 270.32L290.5 272.305L297.218 271.461L296.969 269.477Z" fill="#04D573" fill-opacity="0.9" mask="url(#path-2-outside-1_115_35)"/>
<path d="M75 304.96C156.181 346.316 305.165 322.299 364.859 292" stroke="#04D573" stroke-opacity="0.9" stroke-width="7" stroke-linecap="round" stroke-linejoin="round"/>
<path d="M260 321.865C326.318 340.985 371.043 330.803 322.638 310" stroke="#04D573" stroke-opacity="0.9" stroke-width="7" stroke-linecap="round" stroke-linejoin="round"/>
</svg>
