<svg width="102" height="30" viewBox="0 0 102 30" fill="none" xmlns="http://www.w3.org/2000/svg">
<path d="M7.22561 12.2241L2.83266 12.4365L2.89182 16.1719L1.47186 16.2305L1.30176 5.79348L9.33337 5.66896L9.28161 7.06787L2.75868 7.17043L2.81784 10.9937L7.19603 10.8179L7.22561 12.2241ZM13.5415 16.5308C13.1914 16.5259 12.8808 16.4673 12.6096 16.355C12.3434 16.2427 12.1067 16.0986 11.8996 15.9229C11.6975 15.7422 11.5225 15.5371 11.3746 15.3076C11.2316 15.0781 11.1108 14.8462 11.0122 14.6118C10.7755 14.0552 10.6276 13.4253 10.5684 12.7222L10.7681 3.43506H12.3138C12.2891 4.30421 12.2645 5.10254 12.2398 5.83009C12.2201 6.55274 12.2029 7.21192 12.1881 7.80763C12.1733 8.39844 12.1585 8.92825 12.1437 9.397C12.1338 9.86575 12.124 10.2783 12.1141 10.6348C12.0944 11.4746 12.0796 12.1362 12.0697 12.6197C12.0796 13.0737 12.1462 13.479 12.2694 13.8354C12.3187 13.9868 12.3828 14.1358 12.4617 14.2822C12.5455 14.4287 12.6441 14.5606 12.7575 14.6777C12.8758 14.7949 13.0139 14.8901 13.1717 14.9634C13.3344 15.0317 13.5217 15.0684 13.7337 15.0733L13.5415 16.5308ZM20.6338 16.6333L20.7374 15.6006C20.1359 15.9815 19.5442 16.2573 18.9624 16.4282C18.3856 16.5991 17.8457 16.6846 17.3428 16.6846C16.9878 16.6846 16.6427 16.6382 16.3074 16.5454C15.9771 16.4575 15.6837 16.3208 15.4273 16.1353C15.1759 15.9448 14.9713 15.7056 14.8135 15.4175C14.6607 15.1245 14.5842 14.7803 14.5842 14.3848C14.5842 13.9893 14.6434 13.6353 14.7617 13.3228C14.8801 13.0103 15.0428 12.7344 15.2498 12.4951C15.4569 12.2559 15.701 12.0508 15.982 11.8799C16.2631 11.709 16.5638 11.5698 16.8843 11.4624C17.2097 11.355 17.5499 11.2769 17.9048 11.228C18.2598 11.1743 18.6124 11.1475 18.9624 11.1475C19.2878 11.1475 19.591 11.1597 19.8721 11.1841C20.1531 11.2085 20.4021 11.2402 20.619 11.2793C20.555 11.0352 20.4761 10.7959 20.3824 10.5615C20.2887 10.3223 20.1679 10.1099 20.02 9.92434C19.877 9.73389 19.6995 9.58009 19.4875 9.4629C19.2755 9.34571 19.0216 9.28712 18.7258 9.28712C18.5335 9.28712 18.3141 9.31642 18.0676 9.37501C17.821 9.42873 17.5499 9.52881 17.254 9.67529C16.9582 9.82178 16.6353 10.0244 16.2852 10.2832C15.9352 10.5371 15.5605 10.8643 15.1611 11.2647L14.2662 10.188C14.7395 9.74856 15.1931 9.38966 15.627 9.11134C16.0609 8.83302 16.4676 8.61573 16.8473 8.4595C17.2319 8.29834 17.5869 8.18849 17.9123 8.12989C18.2426 8.0713 18.5384 8.042 18.7997 8.042C19.2533 8.042 19.6576 8.12012 20.0126 8.27638C20.3676 8.42774 20.6782 8.63771 20.9444 8.90626C21.2156 9.16993 21.4424 9.48243 21.6248 9.84376C21.8122 10.2002 21.965 10.586 22.0834 11.001C22.2017 11.4111 22.2855 11.8384 22.3348 12.2827C22.3891 12.7271 22.4162 13.169 22.4162 13.6084C22.4162 14.0772 22.3891 14.5801 22.3348 15.1172C22.2806 15.6543 22.1968 16.2403 22.0834 16.875L20.6338 16.6333ZM20.8409 13.9673C20.8508 13.7232 20.8582 13.4814 20.8631 13.2422C20.868 13.0029 20.8557 12.7539 20.8261 12.4951C20.5845 12.4219 20.3306 12.3633 20.0644 12.3193C19.7981 12.2754 19.5319 12.2534 19.2656 12.2534C18.8219 12.2534 18.3905 12.3047 17.9714 12.4072C17.5573 12.5098 17.1998 12.6587 16.899 12.854C16.5983 13.0493 16.3715 13.2886 16.2187 13.5718C16.0707 13.855 16.0412 14.1773 16.1299 14.5386C16.1989 14.8315 16.3321 15.0366 16.5293 15.1538C16.7314 15.271 16.973 15.3296 17.254 15.3296C17.54 15.3296 17.8482 15.2832 18.1785 15.1904C18.5138 15.0928 18.8441 14.9756 19.1695 14.8389C19.4998 14.6973 19.8105 14.5483 20.1014 14.3921C20.3923 14.2359 20.6388 14.0942 20.8409 13.9673ZM31.2022 8.74513L28.2955 16.4575L26.2101 16.4282L23.6142 9.03076L25.1156 8.80372L27.3269 15.0952L29.6786 8.54005L31.2022 8.74513ZM39.9141 12.6197C39.9141 13.2349 39.8107 13.8037 39.6036 14.3262C39.3965 14.8487 39.113 15.3028 38.753 15.6885C38.3931 16.0742 37.9716 16.3745 37.4883 16.5894C37.0053 16.8091 36.4901 16.919 35.9427 16.919C35.3953 16.919 34.8827 16.8164 34.4044 16.6113C33.9261 16.4063 33.507 16.1157 33.1471 15.7397C32.7921 15.3589 32.5112 14.9048 32.3041 14.3775C32.097 13.8501 31.9936 13.2642 31.9936 12.6197C31.9936 11.9702 32.097 11.3818 32.3041 10.8545C32.5112 10.3223 32.7921 9.86818 33.1471 9.4922C33.507 9.11621 33.9261 8.82568 34.4044 8.62061C34.8827 8.41553 35.3953 8.31301 35.9427 8.31301C36.4901 8.31301 37.0053 8.42286 37.4883 8.64259C37.9716 8.85744 38.3931 9.15772 38.753 9.54348C39.113 9.92434 39.3965 10.3784 39.6036 10.9058C39.8107 11.4282 39.9141 11.9995 39.9141 12.6197ZM38.3536 12.605C38.3536 12.2534 38.3093 11.8994 38.2206 11.543C38.1318 11.1816 37.9912 10.8594 37.7991 10.5762C37.6067 10.2881 37.3577 10.0537 37.0519 9.87306C36.7464 9.6924 36.3765 9.60207 35.9427 9.60207C35.5236 9.60207 35.1636 9.6924 34.8628 9.87306C34.5623 10.0537 34.3157 10.2881 34.1235 10.5762C33.9311 10.8594 33.7905 11.1816 33.7018 11.543C33.613 11.8994 33.5688 12.2534 33.5688 12.605C33.5688 12.9565 33.6156 13.3106 33.7094 13.667C33.8078 14.0234 33.9557 14.3457 34.1529 14.6338C34.3502 14.917 34.5968 15.1489 34.8927 15.3296C35.1932 15.5103 35.5435 15.6006 35.9427 15.6006C36.3618 15.6006 36.7218 15.5103 37.0226 15.3296C37.3281 15.1489 37.5797 14.917 37.7768 14.6338C37.974 14.3457 38.1195 14.0234 38.2132 13.667C38.3069 13.3106 38.3536 12.9565 38.3536 12.605ZM47.1322 12.0483C47.1272 11.8091 47.1052 11.6016 47.0657 11.4258C47.0311 11.25 46.9843 11.0987 46.9251 10.9717C46.8709 10.8447 46.8068 10.7398 46.7329 10.6568C46.6638 10.5737 46.5924 10.5054 46.5183 10.4517C46.3458 10.3296 46.151 10.271 45.9342 10.2759C45.796 10.2954 45.6481 10.354 45.4905 10.4517C45.3376 10.5444 45.1797 10.6665 45.0172 10.8179C44.8543 10.9644 44.6891 11.1328 44.5216 11.3233C44.359 11.5088 44.2012 11.7017 44.0483 11.9019C43.8954 12.0972 43.7501 12.2925 43.6119 12.4878C43.4739 12.6831 43.3506 12.8613 43.2422 13.0225C43.2472 13.3887 43.2545 13.75 43.2642 14.1065C43.2742 14.458 43.2815 14.7876 43.2865 15.0952C43.2964 15.398 43.3064 15.6738 43.3161 15.9229C43.331 16.167 43.3456 16.3648 43.3605 16.5161L41.7704 16.7139C41.7409 15.874 41.7136 15.1148 41.689 14.4361C41.6644 13.7525 41.6422 13.1421 41.6225 12.605C41.6029 12.0679 41.5856 11.5943 41.5707 11.1841C41.561 10.7739 41.5511 10.4199 41.5411 10.1221C41.5215 9.42383 41.5066 8.90626 41.4969 8.56935L43.1831 8.54005C43.188 8.83789 43.1904 9.14307 43.1904 9.45559C43.1954 9.76318 43.2003 10.0464 43.2051 10.3052C43.21 10.6079 43.2126 10.9033 43.2126 11.1914C43.3556 10.9668 43.5281 10.7202 43.7302 10.4517C43.9373 10.1831 44.169 9.92921 44.4255 9.68996C44.6868 9.45069 44.9703 9.24318 45.2758 9.06739C45.5866 8.88674 45.9169 8.77443 46.267 8.73048C46.6615 8.71096 47.0214 8.79395 47.3466 8.9795C47.4848 9.05762 47.6204 9.16262 47.7534 9.29443C47.8916 9.42139 48.0173 9.5874 48.1306 9.79248C48.249 9.99268 48.3477 10.2344 48.4265 10.5176C48.5053 10.7959 48.5597 11.1255 48.5891 11.5064L47.1322 12.0483ZM59.7639 12.2241L55.371 12.4365L55.4302 16.1719L54.0102 16.2305L53.84 5.79348L61.8718 5.66896L61.8199 7.06787L55.2969 7.17043L55.3561 10.9937L59.7343 10.8179L59.7639 12.2241ZM68.5647 16.6992L68.5351 14.5972C68.3723 14.8853 68.1875 15.1587 67.9804 15.4175C67.7733 15.6714 67.549 15.896 67.3074 16.0913C67.0657 16.2818 66.8071 16.4331 66.5309 16.5454C66.2597 16.6577 65.9738 16.709 65.673 16.6992C65.2293 16.6846 64.847 16.6016 64.5266 16.4502C64.2111 16.2988 63.9449 16.0986 63.7279 15.8496C63.5111 15.5957 63.336 15.3052 63.2027 14.978C63.0747 14.646 62.976 14.2969 62.9069 13.9307C62.8381 13.5645 62.7912 13.1909 62.7666 12.8101C62.7467 12.4243 62.737 12.0508 62.737 11.6895C62.737 11.1816 62.7592 10.6689 62.8035 10.1514C62.8478 9.62891 62.9119 9.09669 62.9959 8.5547L64.5119 8.59864C64.4329 9.20411 64.3787 9.74856 64.3491 10.2319C64.3245 10.7154 64.3122 11.1401 64.3122 11.5064C64.3122 11.6724 64.3146 11.8823 64.3195 12.1362C64.3245 12.3902 64.3418 12.6611 64.3714 12.9492C64.4059 13.2324 64.4577 13.5132 64.5266 13.7915C64.5957 14.0698 64.6918 14.3189 64.8151 14.5386C64.9434 14.7534 65.1036 14.9194 65.2958 15.0366C65.4882 15.1538 65.7248 15.1929 66.0057 15.1538C66.3853 15.1001 66.7798 14.8413 67.189 14.3775C67.6032 13.9136 68.0372 13.2007 68.4906 12.2388C68.476 11.4624 68.4611 10.8423 68.4464 10.3784C68.4365 9.91457 68.4291 9.56057 68.4241 9.31642C68.4142 9.02832 68.4069 8.82814 68.4019 8.71583L69.992 8.54005C70.0216 9.37989 70.0462 10.1392 70.0659 10.8179C70.0907 11.4917 70.1127 12.0996 70.1326 12.6416C70.1522 13.1787 70.1671 13.6524 70.1768 14.0625C70.1918 14.4678 70.2041 14.8194 70.214 15.1172C70.2336 15.8154 70.2459 16.333 70.2509 16.6699L68.5647 16.6992ZM79.1403 14.5679C79.1403 15.0317 79.0442 15.4224 78.852 15.7397C78.6646 16.0523 78.4107 16.3062 78.0902 16.5015C77.7745 16.7017 77.4098 16.8482 76.9957 16.9409C76.5865 17.0386 76.1598 17.0972 75.7163 17.1167C75.2626 17.1118 74.804 17.0654 74.3406 16.9776C74.1435 16.9434 73.9338 16.8945 73.7121 16.8311C73.495 16.7725 73.2733 16.6992 73.0463 16.6113C72.8196 16.5234 72.5929 16.4185 72.3659 16.2964C72.1392 16.1743 71.9222 16.0327 71.7151 15.8716L72.4324 14.7583C72.7037 14.8999 72.9798 15.0366 73.2607 15.1685C73.5469 15.3003 73.8377 15.4175 74.1335 15.52C74.4294 15.6177 74.7325 15.6958 75.0433 15.7544C75.3538 15.813 75.6742 15.8423 76.0046 15.8423C76.2758 15.8423 76.5051 15.8179 76.6923 15.769C76.8797 15.7153 77.0326 15.6519 77.1509 15.5786C77.2742 15.5005 77.368 15.415 77.4321 15.3223C77.501 15.2246 77.5504 15.1318 77.5798 15.044C77.6046 14.9658 77.6143 14.8804 77.6096 14.7876C77.6046 14.69 77.5774 14.5923 77.5282 14.4947C77.4837 14.397 77.4122 14.3018 77.3138 14.209C77.22 14.1113 77.0941 14.0259 76.9365 13.9526C76.7787 13.8745 76.5865 13.8111 76.3596 13.7622C76.1328 13.7134 75.864 13.6817 75.5535 13.667C75.1098 13.6475 74.6807 13.6035 74.2665 13.5352C73.8574 13.4619 73.4901 13.3496 73.1647 13.1983C72.8442 13.0469 72.578 12.8491 72.3659 12.605C72.1589 12.356 72.0332 12.0459 71.9889 11.6748C71.9544 11.3233 71.9764 11.0034 72.0554 10.7154C72.1392 10.4224 72.2625 10.1612 72.4251 9.93165C72.5929 9.70215 72.7974 9.50197 73.039 9.33107C73.2806 9.15529 73.5443 9.01124 73.8304 8.89895C74.1163 8.78176 74.4171 8.69631 74.7325 8.64259C75.053 8.584 75.376 8.5547 75.7014 8.5547C75.8938 8.5547 76.1205 8.56447 76.3818 8.584C76.6431 8.60352 76.9167 8.64259 77.2028 8.70118C77.4887 8.75978 77.7771 8.84523 78.068 8.95754C78.3589 9.06496 78.6301 9.209 78.8814 9.38966L78.3712 10.73C78.0458 10.5591 77.7353 10.4273 77.4394 10.3345C77.1486 10.2368 76.8897 10.1612 76.663 10.1074C76.3965 10.0488 76.1475 10.0098 75.9158 9.99025C75.1417 9.9463 74.5378 10.0269 74.104 10.2319C73.6749 10.437 73.4605 10.7471 73.4605 11.1621C73.4605 11.4551 73.5419 11.6699 73.7047 11.8067C73.8673 11.9385 74.0891 12.0337 74.3702 12.0923C74.6514 12.1509 74.9791 12.1899 75.3538 12.2095C75.7286 12.229 76.1279 12.2705 76.552 12.334C77.035 12.4072 77.4418 12.5171 77.7722 12.6636C78.1026 12.8101 78.3688 12.981 78.5709 13.1763C78.773 13.3716 78.9185 13.5889 79.0073 13.8281C79.096 14.0625 79.1403 14.3091 79.1403 14.5679ZM82.742 6.40871C82.742 6.5503 82.7124 6.68457 82.6533 6.81154C82.5991 6.9385 82.5226 7.04835 82.4239 7.14114C82.3302 7.2339 82.2195 7.30714 82.0912 7.36084C81.9629 7.41456 81.825 7.44142 81.677 7.44142C81.5341 7.44142 81.3985 7.41456 81.2702 7.36084C81.1469 7.30714 81.0362 7.2339 80.9375 7.14114C80.8438 7.04835 80.7699 6.9385 80.7155 6.81154C80.6613 6.68457 80.6343 6.5503 80.6343 6.40871C80.6343 6.26223 80.6613 6.1255 80.7155 5.99856C80.7699 5.8716 80.8438 5.76172 80.9375 5.66896C81.0362 5.57129 81.1469 5.49561 81.2702 5.44192C81.3985 5.38332 81.5341 5.35403 81.677 5.35403C81.825 5.35403 81.9629 5.38332 82.0912 5.44192C82.2195 5.49561 82.3302 5.57129 82.4239 5.66896C82.5226 5.76172 82.5991 5.8716 82.6533 5.99856C82.7124 6.1255 82.742 6.26223 82.742 6.40871ZM82.3944 8.98684C82.3797 9.68507 82.3648 10.3272 82.3501 10.9131C82.3402 11.4942 82.3302 12.0239 82.3205 12.5025C82.3106 12.981 82.3006 13.4107 82.2909 13.7915C82.286 14.1675 82.281 14.4971 82.276 14.7803C82.2614 15.4541 82.2538 15.9839 82.2538 16.3697H80.7377C80.7477 15.8423 80.76 15.2149 80.7747 14.4873C80.7846 13.8623 80.7969 13.0982 80.8118 12.1948C80.8315 11.2915 80.8487 10.2417 80.8636 9.04543L82.3944 8.98684ZM91.9495 12.6197C91.9495 13.2349 91.846 13.8037 91.639 14.3262C91.4319 14.8487 91.1484 15.3028 90.7884 15.6885C90.4285 16.0742 90.007 16.3745 89.5237 16.5894C89.0407 16.8091 88.5252 16.919 87.9781 16.919C87.4309 16.919 86.9181 16.8164 86.4398 16.6113C85.9615 16.4063 85.5424 16.1157 85.1827 15.7397C84.8277 15.3589 84.5465 14.9048 84.3395 14.3775C84.1324 13.8501 84.0287 13.2642 84.0287 12.6197C84.0287 11.9702 84.1324 11.3818 84.3395 10.8545C84.5465 10.3223 84.8277 9.86818 85.1827 9.4922C85.5424 9.11621 85.9615 8.82568 86.4398 8.62061C86.9181 8.41553 87.4309 8.31301 87.9781 8.31301C88.5252 8.31301 89.0407 8.42286 89.5237 8.64259C90.007 8.85744 90.4285 9.15772 90.7884 9.54348C91.1484 9.92434 91.4319 10.3784 91.639 10.9058C91.846 11.4282 91.9495 11.9995 91.9495 12.6197ZM90.3892 12.605C90.3892 12.2534 90.3447 11.8994 90.2559 11.543C90.1672 11.1816 90.0266 10.8594 89.8344 10.5762C89.642 10.2881 89.3931 10.0537 89.0875 9.87306C88.7818 9.6924 88.4119 9.60207 87.9781 9.60207C87.559 9.60207 87.199 9.6924 86.8985 9.87306C86.5977 10.0537 86.3511 10.2881 86.1587 10.5762C85.9665 10.8594 85.8259 11.1816 85.7372 11.543C85.6484 11.8994 85.6042 12.2534 85.6042 12.605C85.6042 12.9565 85.651 13.3106 85.7445 13.667C85.8432 14.0234 85.9911 14.3457 86.1885 14.6338C86.3856 14.917 86.632 15.1489 86.9278 15.3296C87.2286 15.5103 87.5786 15.6006 87.9781 15.6006C88.3972 15.6006 88.7572 15.5103 89.0577 15.3296C89.3635 15.1489 89.6151 14.917 89.8122 14.6338C90.0093 14.3457 90.1549 14.0234 90.2486 13.667C90.3423 13.3106 90.3892 12.9565 90.3892 12.605ZM93.8058 16.7139C93.7762 15.874 93.749 15.1148 93.7244 14.4361C93.6998 13.7525 93.6775 13.1421 93.6579 12.605C93.6383 12.0679 93.621 11.5943 93.6061 11.1841C93.5964 10.7739 93.5864 10.4199 93.5765 10.1221C93.5569 9.42383 93.5419 8.90626 93.5322 8.56935L95.2184 8.54005L95.248 10.6494C95.4106 10.3711 95.5957 10.1099 95.8025 9.86575C96.0098 9.6167 96.2339 9.397 96.4756 9.20654C96.7172 9.01614 96.9735 8.86232 97.2447 8.74513C97.5209 8.62794 97.8094 8.55957 98.1099 8.54005C98.4848 8.51563 98.8102 8.54739 99.0864 8.63528C99.3673 8.72317 99.6063 8.84523 99.8037 9.00146C100.001 9.15772 100.164 9.34328 100.292 9.55811C100.42 9.76808 100.521 9.98781 100.595 10.2173C100.669 10.4419 100.721 10.6665 100.75 10.8911C100.785 11.1157 100.807 11.3208 100.817 11.5064C100.846 12.3462 100.854 13.1909 100.839 14.0405C100.824 14.8901 100.807 15.7715 100.787 16.6846L99.2712 16.6333C99.3105 15.8472 99.3451 15.061 99.3746 14.2749C99.4092 13.4888 99.4068 12.6953 99.3673 11.8945C99.3673 11.8067 99.36 11.6943 99.3451 11.5576C99.3354 11.416 99.3081 11.2671 99.2639 11.1108C99.2244 10.9546 99.1676 10.8008 99.0937 10.6494C99.0196 10.4932 98.9236 10.3589 98.8052 10.2466C98.6869 10.1294 98.5414 10.0415 98.3688 9.98293C98.2013 9.92434 98.0041 9.91213 97.7772 9.9463C97.3877 10.0049 96.9908 10.2881 96.5866 10.7959C96.1873 11.2988 95.7559 12.0362 95.2923 13.0078C95.3122 13.794 95.3268 14.4214 95.3368 14.8901C95.3514 15.354 95.3637 15.7056 95.3737 15.9448C95.3836 16.228 95.391 16.4185 95.3959 16.5161L93.8058 16.7139Z" fill="#157347"/>
<path d="M16.5664 22.725C35.7786 32.4178 71.037 26.7888 85.1641 19.6875" stroke="#157347" stroke-opacity="0.9" stroke-linecap="round" stroke-linejoin="round"/>
<path d="M60.3477 26.6871C76.0424 31.1684 86.627 28.782 75.1715 23.9062" stroke="#157347" stroke-opacity="0.9" stroke-linecap="round" stroke-linejoin="round"/>
</svg>
