<svg width="300" height="300" viewBox="0 0 300 300" fill="none" xmlns="http://www.w3.org/2000/svg">
<circle cx="150" cy="150" r="150" fill="white"/>
<path d="M229.968 112.861C230.26 112.804 230.131 112.776 230.359 112.909C230.276 113.187 230.171 113.309 229.94 113.477C229.044 114.126 228.094 114.184 227.036 114.036C226.715 113.846 226.457 113.766 226.278 113.43C226.664 113.148 229.242 113.014 229.968 112.861Z" fill="#231F20"/>
<path d="M215.372 95.3588C215.386 95.3822 215.404 95.4034 215.413 95.4294C215.562 95.8875 215.314 96.6836 215.059 97.0746C213.784 99.0224 211.051 99.7473 208.912 100.124L208.843 100.048C208.853 99.8144 210.811 99.1157 211.198 98.9166C212.897 98.0415 214.185 96.8368 215.372 95.3588Z" fill="#231F20"/>
<path d="M167.108 201.468C167.429 201.536 167.592 201.603 167.807 201.861C168.451 202.633 168.632 204.007 168.567 204.975C168.531 205.51 168.363 205.732 167.963 206.074C167.676 205.994 167.378 205.918 167.143 205.724C166.639 205.307 166.391 204.577 166.352 203.943C166.295 203.017 166.493 202.167 167.108 201.468Z" fill="#231F20"/>
<path d="M155.71 130.453C157.079 130.353 158.389 130.238 159.699 130.76C160.854 131.219 162.398 132.152 162.889 133.348L162.655 133.384C160.287 132.299 157.866 131.672 155.403 130.877L155.38 130.758L155.71 130.453Z" fill="#231F20"/>
<path d="M172.308 161.884C172.371 161.878 172.434 161.87 172.496 161.866C172.779 161.85 173.018 161.872 173.227 162.077C173.506 162.352 173.567 162.658 173.556 163.037C173.52 164.349 172.684 165.688 171.733 166.537C171.664 166.54 171.594 166.545 171.525 166.546C171.205 166.553 170.889 166.439 170.681 166.184C170.43 165.875 170.419 165.428 170.467 165.051C170.627 163.815 171.342 162.641 172.308 161.884Z" fill="#231F20"/>
<path d="M154.759 126.505C154.88 126.491 155.002 126.48 155.124 126.476C158.222 126.368 162.031 127.818 164.301 129.931C164.491 130.108 164.494 130.058 164.506 130.331L164.055 130.233C161.661 129.375 159.372 128.268 156.936 127.516C155.839 127.177 154.688 127.076 153.574 126.79C153.939 126.593 154.353 126.568 154.759 126.505Z" fill="#231F20"/>
<path d="M167.998 173.723C168.316 173.829 168.538 173.923 168.75 174.189C169.08 174.604 169.11 175.287 169.048 175.787C168.915 176.849 168.366 178.102 167.523 178.781C167.192 178.703 166.808 178.642 166.578 178.366C166.168 177.873 166.134 177.084 166.244 176.483C166.465 175.285 166.994 174.399 167.998 173.723Z" fill="#231F20"/>
<path d="M204.846 84.0068L205.177 84.0313L205.254 84.1261C203.306 85.1955 201.739 86.6487 200.961 88.778C199.877 91.7462 200.946 94.2978 202.158 96.9958C201.265 96.2135 200.616 95.2805 200.186 94.1765C199.414 92.189 199.423 89.8068 200.336 87.8708C201.257 85.9199 202.834 84.7017 204.846 84.0068Z" fill="#231F20"/>
<path d="M129.813 216.82C130.244 216.9 130.676 216.981 131.102 217.082C134.672 217.924 140.418 220.617 142.335 223.868C142.593 224.305 142.592 224.442 142.457 224.933C141.603 224.39 140.965 223.43 140.223 222.732C138.412 221.031 136.143 219.623 133.84 218.68C132.994 218.334 130.159 217.892 129.723 217.27L129.813 216.82Z" fill="#231F20"/>
<path d="M77.9325 215.608C78.0348 215.611 78.1703 215.658 78.271 215.683L78.4259 215.985C78.3772 216.062 78.3527 216.161 78.2797 216.215C77.8767 216.515 74.4514 216.542 73.7565 216.606C69.2181 217.021 63.9258 218.745 60.6898 222.079C60.4904 222.139 60.4299 222.051 60.249 221.963C60.2914 221.598 60.4618 221.368 60.6965 221.097C64.0283 217.242 73.1578 215.895 77.9325 215.608Z" fill="#231F20"/>
<path d="M136.712 210.5C137.569 210.432 138.584 210.398 139.415 210.631C139.992 210.793 140.436 211.021 140.729 211.56C140.731 211.774 140.774 211.888 140.645 212.073C140.109 212.844 138.842 212.86 138 212.968C137.564 213.002 137.132 213.013 136.695 213.01C135.952 213.006 134.673 212.927 134.185 212.26C133.964 211.957 133.987 211.868 134.032 211.52C134.679 210.692 135.74 210.647 136.712 210.5Z" fill="#231F20"/>
<path d="M136.618 211.265C137.075 211.233 137.585 211.165 138.04 211.226C138.46 211.282 138.736 211.371 138.976 211.712C138.657 211.925 138.506 211.886 138.129 211.892C137.322 211.875 136.516 211.871 135.722 211.717L135.636 211.565C135.955 211.406 136.272 211.346 136.618 211.265Z" fill="#FEFEFE"/>
<path d="M67.4765 180.941C66.1737 179.969 64.8979 178.898 63.4429 178.157C62.6947 177.776 61.0095 177.514 60.5789 176.852C60.8408 176.697 60.7146 176.727 61.0281 176.726C63.3536 176.713 66.2722 178.97 67.8729 180.493C69.4872 181.796 76.1218 188.731 76.2415 190.505C76.2443 190.545 76.2379 190.585 76.2358 190.625C75.5912 190.501 74.8981 189.315 74.5019 188.797C72.2392 185.835 70.0714 183.573 67.4765 180.941Z" fill="#231F20"/>
<path d="M66.0147 205.504C66.515 205.443 67.003 205.433 67.5043 205.501C68.827 205.679 70.9746 206.661 71.7172 207.814C71.9295 208.143 71.9282 208.276 71.8427 208.649C71.568 208.967 71.416 209.071 71.0234 209.222C70.2389 209.198 69.4469 209.089 68.678 208.933C67.5586 208.705 65.4221 208.111 64.903 207.025C64.8244 206.86 64.789 206.672 64.8548 206.499C65.0523 205.981 65.5431 205.729 66.0147 205.504Z" fill="#231F20"/>
<path d="M67.6498 206.512C68.6786 206.708 69.6227 206.993 70.3898 207.741L70.2985 207.878L69.9566 207.93C69.237 207.759 68.186 207.639 67.547 207.274C67.3095 207.138 67.2834 207.14 67.2194 206.866L67.6498 206.512Z" fill="#FEFEFE"/>
<path d="M148.292 167.613C148.577 167.632 148.616 167.633 148.844 167.8C148.647 168.343 143.462 170.891 142.391 171.534C135.465 175.691 129.777 182.172 127.791 190.102L127.447 190.078L127.287 189.883C127.229 189.155 127.55 188.326 127.794 187.647C131.216 178.121 139.449 171.804 148.292 167.613Z" fill="#231F20"/>
<path d="M141.235 189.731C141.931 189.756 142.603 189.877 143.221 190.222C143.522 190.39 143.575 190.554 143.675 190.868C143.606 191.26 143.461 191.528 143.2 191.825C142.075 193.104 140.288 193.559 138.659 193.702C138.08 193.731 137.546 193.639 137.014 193.397C136.805 193.302 136.607 193.118 136.555 192.888C136.453 192.444 136.685 191.996 136.952 191.653C137.941 190.378 139.695 189.882 141.235 189.731Z" fill="#231F20"/>
<path d="M141.084 190.847C141.345 190.832 141.499 190.858 141.745 190.948L141.767 191.148C141.001 191.792 139.936 191.981 138.982 192.183C138.911 192.176 138.839 192.171 138.767 192.16C138.486 192.117 138.369 192.145 138.205 191.91C138.632 191.298 140.345 191.037 141.084 190.847Z" fill="#FEFEFE"/>
<path d="M73.455 159.093C75.2509 159.294 76.8894 160.719 78.0925 161.975C83.4106 167.529 86.2401 175.61 87.858 182.992C88.1893 184.503 88.7164 186.314 88.6804 187.859C88.4131 187.805 88.2133 187.838 88.0424 187.589C87.875 187.345 87.8087 186.174 87.7493 185.827C87.2467 182.9 86.5156 180.011 85.6391 177.174C83.9414 171.678 81.1057 165.563 76.7994 161.66C75.7846 160.74 74.3321 160.322 73.5265 159.571C73.3747 159.43 73.4461 159.286 73.455 159.093Z" fill="#231F20"/>
<path d="M89.5325 212.923C92.3777 212.777 95.3434 213.51 98.1352 214.015C100.663 214.471 103.189 214.914 105.73 215.285C112.466 216.268 119.255 216.545 126.055 216.443C125.842 217.206 125.691 218.103 125.16 218.715C124.21 219.809 121.334 219.524 119.889 219.616C117.149 219.729 114.414 219.976 111.67 220.075C105.789 220.287 89.4435 220.638 84.5969 217.795C84.0974 217.502 83.6961 217.133 83.5627 216.55C83.4596 216.101 83.5476 215.643 83.8198 215.268C84.8382 213.868 87.891 213.119 89.5325 212.923Z" fill="#231F20"/>
<path d="M123.632 135.619L123.73 135.728C123.519 136.771 120.008 140.018 119.138 141.539C117.583 144.256 116.42 152.14 116.443 155.364C116.456 157.194 116.768 159.082 117.177 160.862C117.623 162.803 118.705 164.425 119.179 166.307C119.56 167.821 119.283 169.193 118.466 170.508C117.056 172.774 114.243 175.067 111.591 175.624C109.57 176.048 107.809 175.168 106.164 174.113C105.936 173.935 105.708 173.756 105.485 173.572C103.377 171.834 101.492 169.078 101.252 166.3C100.425 156.751 111.953 148.092 118.043 142.097C120.047 140.124 121.803 137.762 123.632 135.619Z" fill="#231F20"/>
<path d="M107.298 166.002C107.701 166.095 107.919 166.411 108.25 166.632C109.101 167.2 109.385 166.289 110.129 166.15C110.3 166.449 110.257 166.632 110.254 166.972C110.14 167.09 110.029 167.209 109.896 167.306C109.441 167.637 108.751 167.734 108.206 167.64C107.831 167.575 107.481 167.38 107.298 167.033C107.1 166.659 107.193 166.378 107.298 166.002Z" fill="#FEFEFE"/>
<path d="M113.44 155.052C113.646 155.111 113.798 155.161 113.988 155.264C114.21 156.507 113.603 158.185 113.512 159.474C113.447 160.383 113.656 161.48 113.815 162.377C113.949 163.139 114.344 164.12 113.957 164.803C113.918 164.795 113.878 164.788 113.84 164.777C113.506 164.685 113.357 164.54 113.199 164.239C112.094 162.128 112.721 157.269 113.44 155.052Z" fill="#FEFEFE"/>
<path d="M114.624 156.618C114.869 156.761 114.924 156.789 115.03 157.056C115.479 158.194 115.547 160.464 115.774 161.755C116.104 163.63 116.633 165.52 116.86 167.404C116.908 167.808 116.896 168.073 116.763 168.458L116.288 168.5L116.076 168.309C115.3 166.044 113.996 158.734 114.624 156.618Z" fill="#FEFEFE"/>
<path d="M104.159 161.812C104.274 161.833 104.682 161.925 104.735 162.027C105.293 163.097 103.961 166.906 106.355 169.878C107.72 171.572 109.095 171.264 110.984 171.489C111.219 171.761 111.152 171.829 111.132 172.193C110.329 172.447 109.543 172.549 108.708 172.399C107.31 172.148 106.222 171.272 105.431 170.125C103.786 167.74 103.62 164.57 104.159 161.812Z" fill="#FEFEFE"/>
<path d="M129.549 196.247C129.965 196.238 130.41 196.207 130.822 196.268C131.218 196.327 131.564 196.479 131.783 196.827C132.013 197.194 131.824 197.862 131.728 198.258C131.256 200.207 130.487 202.156 129.864 204.069C128.664 207.753 127.501 211.419 126.495 215.163C120.895 215.25 115.234 215.019 109.666 214.389C107.337 214.125 104.995 213.81 102.69 213.378C97.589 212.421 92.1131 210.746 86.9499 211.974C85.9134 212.22 84.3259 213.593 83.4091 213.445L83.193 212.976C81.3218 208.459 79.6969 203.729 77.6275 199.307C76.9247 198.893 76.3977 198.67 76.1255 197.845C76.1566 197.63 76.1339 197.496 76.2872 197.327C76.6421 196.935 77.2443 196.824 77.7502 196.782C79.4186 196.643 81.1803 196.729 82.8586 196.718L92.8914 196.636L129.549 196.247Z" fill="#231F20"/>
<path d="M211.274 75.7933C211.663 75.764 212.069 75.7729 212.459 75.777C216.105 75.8142 219.735 77.3536 222.266 79.9894C224.985 82.821 225.824 86.2454 225.767 90.0656C227.273 90.1856 228.802 90.6057 230.157 91.2728C232.428 92.3903 234.245 94.2606 235.058 96.6808C235.851 99.039 235.641 101.781 234.508 103.996C233.384 106.195 231.399 107.734 229.057 108.464C226.458 109.274 224.078 108.988 221.687 107.737C224.74 108.254 227.784 108.288 230.577 106.753C232.344 105.781 233.556 104.266 234.108 102.328C234.731 100.141 234.459 97.7578 233.332 95.7814C231.539 92.6391 228.19 91.5211 224.907 90.6029C224.626 91.5525 224.264 92.3136 223.745 93.1497C224.147 89.7497 224.903 87.401 223.434 84.0805C222.151 81.1796 219.665 79.0954 216.723 77.9797C213.512 76.7615 209.94 77.0202 206.779 78.2891C205.642 78.7454 204.586 79.3674 203.472 79.8737C201.608 78.7541 200.178 77.9119 197.981 77.6088C195.272 77.2348 192.53 77.9912 190.356 79.643C188.603 80.9754 187.416 82.9127 187.126 85.1037C186.558 89.39 188.844 90.7242 191.004 93.7121C192.009 95.1016 192.126 96.4266 191.898 98.0721C192.621 98.1547 193.321 98.2992 194.028 98.4682C204.471 100.962 214.657 106.423 221.875 114.433C223.026 115.71 224.281 117.051 225.179 118.519C225.468 118.528 225.755 118.531 226.044 118.53C229.009 118.52 232.274 117.859 234.405 115.633C236.074 113.89 237.004 110.855 236.423 108.487C236.18 107.498 235.6 106.435 235.567 105.424L235.72 105.351C236.036 105.543 236.273 105.821 236.52 106.093C237.61 107.292 237.975 109.174 237.886 110.763C237.752 113.18 236.649 115.546 234.821 117.143C231.832 119.753 228.169 119.945 224.402 119.687C222.798 121.327 221.332 123.1 219.734 124.745C218.028 126.5 216.184 128.143 214.395 129.814C222.957 129.746 231.77 129.904 240.231 131.236C239.773 133.533 239.402 135.876 239.071 138.194C236.592 137.069 233.891 136.339 231.279 135.593C225.39 133.91 219.374 132.628 213.55 130.744C213.202 131.202 212.542 131.554 212.275 132.026C212.11 132.317 212.397 133.503 212.316 133.944C212.105 135.098 211.322 136.458 210.852 137.536C212.026 137.837 213.048 138.389 213.802 139.365C214.556 140.34 214.873 141.595 214.7 142.813C214.508 144.159 213.661 145.386 212.584 146.189C211.061 147.323 209.362 147.49 207.548 147.212C206.132 150.424 204.512 152.67 201.956 155.07C207.717 160.403 210.902 165.19 213.013 172.835C215.713 182.615 215.978 192.865 215.79 202.942C215.763 204.422 215.965 207.468 215.284 208.669C214.808 208.834 214.768 208.304 214.179 208.454C213.319 208.674 212.463 209.091 211.595 209.341C208.93 210.108 206.242 210.731 203.509 211.208C193.021 213.04 180.57 213.09 170.109 211.063C168.337 210.72 166.429 210.38 164.757 209.691C166.336 209.673 167.954 209.906 169.527 210.049C172.509 210.322 175.487 210.606 178.482 210.685C186.684 210.904 194.906 210.836 203.055 209.771C206.953 209.262 210.783 208.388 214.654 207.722C214.692 195.321 214.056 175.899 208.024 164.941C206.141 161.522 203.462 158.714 200.852 155.852C198.174 157.592 195.322 158.673 192.153 159.131C187.124 159.856 179.69 159.347 175.522 156.203C171.897 153.469 170.55 150.066 169.964 145.748C168.811 145.493 167.616 145.522 166.438 145.239C155.966 142.727 145.922 137.978 137.728 130.96C136.703 133.027 135.537 134.985 134.023 136.734C137.983 142.036 141.344 145.743 146.438 150.016C149.18 152.23 152.092 154.249 155.072 156.128C157.889 157.903 160.733 159.539 163.454 161.471C164.258 158.965 164.968 156.6 167.191 154.993C164.419 162.281 162.528 170.144 161.912 177.925C161.768 179.753 161.684 181.582 161.636 183.414C161.601 184.737 161.683 186.176 161.427 187.469C161.474 187.485 161.52 187.503 161.566 187.519C163.334 188.119 164.777 188.037 166.454 187.238C166.474 187.179 166.493 187.12 166.515 187.061C166.545 186.981 166.578 186.902 166.609 186.822C166.624 186.781 166.638 186.74 166.655 186.699C166.764 186.434 166.898 186.266 167.125 186.092C168.204 185.264 169.456 184.591 170.588 183.826C172.505 182.53 174.361 181.103 176.135 179.618C178.52 177.621 186.379 169.856 188.749 169.024C189.108 168.898 189.386 168.956 189.707 169.13L189.698 169.397C189.02 170.238 186.665 171.64 185.594 172.551C182.759 174.963 180.162 177.646 177.341 180.073C174.385 182.616 171.163 184.773 167.861 186.835C168.711 189.376 169.555 191.957 170.248 194.545C175.156 193.631 179.919 192.884 184.657 191.226C191.977 188.666 200.447 184.099 204.91 177.588C205.542 176.666 205.807 175.638 206.336 174.678C206.5 174.381 206.675 174.336 206.983 174.241C207.294 174.344 207.307 174.36 207.5 174.625C207.547 174.981 207.515 175.271 207.423 175.62C206.012 180.976 199.21 185.927 194.566 188.598C187.828 192.472 181.728 194.106 174.158 195.417C172.904 195.634 170.89 196.244 169.683 195.857C169.128 195.679 168.925 195.206 168.673 194.728C165.948 195.879 162.851 196.375 160.385 197.998C160.997 200.931 161.706 203.891 162.228 206.838C162.347 207.505 162.573 208.724 162.103 209.287C161.972 209.444 161.854 209.395 161.667 209.404C160.394 208.536 160.182 199.465 159.283 198.576C158.384 198.539 157.413 199.043 156.507 199.134C155.637 199.222 154.198 199.091 153.525 198.507C153.219 198.241 153.096 197.922 153.104 197.523C153.125 196.49 154.209 195.771 154.927 195.199C154.084 195.322 153.089 195.522 152.259 195.274C151.846 195.15 151.392 194.882 151.219 194.465C151.1 194.178 151.175 193.942 151.316 193.681C152.182 192.067 156.082 190.869 157.771 190.343C156.696 189.636 155.32 189.28 154.365 188.41C154.082 188.153 153.814 187.823 153.862 187.416C153.907 187.038 154.226 186.687 154.541 186.497C155.923 185.665 158.456 186.278 159.916 186.58C159.875 177.928 160.774 170.827 163.204 162.519C161.38 161.603 159.566 160.672 157.773 159.697C149.064 154.963 141.29 149.329 135.195 141.418C134.126 140.03 132.711 138.372 132.215 136.695L133.256 135.467C132.291 135.807 131.339 136.126 130.3 135.957C129.423 135.815 128.694 135.324 128.198 134.592C127.5 133.559 127.301 132.255 127.522 131.049C125.153 131.993 122.901 132.947 120.752 134.345C119.45 135.193 118.261 136.216 116.931 137.015L116.797 137.094C116.682 136.969 116.569 136.844 116.462 136.713C115.839 135.952 114.721 134.397 114.814 133.395C115.915 132.217 120.977 129.727 122.652 128.782C124.396 127.797 126.099 126.745 127.85 125.774C127.709 125.624 127.572 125.47 127.438 125.313C126.684 124.435 126.017 123.138 126.159 121.943C126.21 121.51 126.392 121.087 126.783 120.854C127.116 120.656 127.52 120.644 127.889 120.721C129.633 121.087 130.765 123.131 131.608 124.522C133.476 123.687 135.212 122.507 137.009 121.523C143.097 118.186 165.901 109.373 172.2 111.463C172.596 111.594 172.752 111.746 172.923 112.119C172.908 112.306 172.88 112.462 172.788 112.63C172.248 113.611 171.005 114.425 170.04 114.958C167.609 116.302 164.825 117.213 162.243 118.237C159.22 119.436 156.16 120.514 153.106 121.627C147.238 123.766 141.414 125.8 135.349 127.33C135.954 127.903 136.933 129.578 137.65 129.751C137.756 129.68 137.86 129.608 137.967 129.541C138.075 129.473 138.299 129.34 138.425 129.339C138.646 129.337 140.966 131.282 141.353 131.563C149.931 137.798 159.599 142.032 169.881 144.535C171.147 135.021 177.003 125.604 183.434 118.68C183.177 118.134 182.764 117.295 182.76 116.689C182.752 115.709 183.653 116.419 184.053 115.929C184.35 115.563 184.582 114.812 184.783 114.371C186.664 110.257 188.056 106.195 189.392 101.877C189.831 100.459 190.436 98.9773 190.717 97.5289C190.825 96.9719 190.855 96.355 190.703 95.8031C190.006 93.2728 186.16 92.2863 185.65 86.9052C185.411 84.3897 186.21 81.9693 187.816 80.031C189.673 77.791 192.47 76.1486 195.392 75.8874C198.363 75.6217 201.358 76.259 203.679 78.1897C205.924 76.6162 208.565 75.9437 211.274 75.7933Z" fill="#231F20"/>
<path d="M155.797 187.046C158.909 186.767 159.487 187.825 162.025 188.75C163.554 189.307 165.18 188.788 166.587 188.143C166.908 189.923 167.553 191.629 168.037 193.37C166.399 193.862 164.681 194.391 163.108 195.06C160.528 196.157 158.804 197.482 155.846 197.513C155.229 197.426 154.719 197.236 154.149 197.002C155.738 195.31 157.704 194.655 159.577 193.394C157.87 193.524 154.966 194.38 153.359 193.867C153.096 193.783 153.09 193.78 152.967 193.524C153.577 191.701 159.184 191.863 160.136 191.172C160.303 189.995 155.776 188.157 155.579 187.266L155.797 187.046Z" fill="#FEFEFE"/>
<path d="M169.965 112.245C170.425 112.219 171.101 112.152 171.499 112.407C171.504 113.172 169.594 113.974 168.934 114.244C165.021 115.844 160.694 116.607 156.661 117.904C151.878 119.442 147.178 121.39 142.487 123.189C139.33 124.399 136.009 125.453 132.963 126.909C132.558 127.102 132.049 127.314 131.817 127.711C132.343 128.039 133.275 127.766 133.864 127.661C134.793 128.484 135.446 129.334 136.108 130.38C135.485 131.773 134.593 133.036 133.725 134.284C132.801 134.6 131.795 134.923 130.809 134.775C130.135 134.674 129.554 134.343 129.157 133.784C128.272 132.538 128.485 130.873 128.735 129.462C124.52 130.394 120.257 132.784 117.009 135.58C116.352 135.259 115.923 134.274 115.582 133.65C119.977 131.43 124.638 129.271 128.646 126.403C129.19 126.916 129.899 127.613 130.62 127.842L130.826 127.677C130.854 127.513 130.867 127.483 130.857 127.298C130.777 125.949 128.577 125.101 127.667 124.365C127.21 123.995 126.79 123.533 126.773 122.914C126.76 122.471 126.868 122.08 127.193 121.774C128.907 121.536 130.727 125.189 132.127 126.11C132.165 125.835 131.92 125.497 131.797 125.246C134.67 123.935 137.415 122.377 140.288 121.065C148.391 117.366 161.048 112.668 169.965 112.245Z" fill="#FEFEFE"/>
<path d="M191.509 98.756C191.749 98.7733 191.983 98.8011 192.222 98.8363C194.242 99.133 196.291 99.8169 198.228 100.456C208.372 103.801 216.98 110.081 223.293 118.673C220.816 122.273 216.899 125.383 214.082 128.753C213.154 129.581 212.11 130.237 211.22 131.123C205.62 128.904 200.457 125.506 195.405 122.271C191.965 120.069 188.535 117.643 184.629 116.344C185.559 114.09 186.787 111.952 187.733 109.698C189.229 106.13 190.343 102.44 191.509 98.756Z" fill="#FEFEFE"/>
<path d="M183.582 119.045C184.971 120.468 185.737 122.462 187.414 123.901C190.491 126.54 194.478 128.078 198.063 129.871C202.228 131.954 205.92 134.296 210.521 135.44C210.351 136.157 210.123 136.867 209.917 137.575C209.09 137.771 208.272 137.958 207.717 138.655C207.349 139.117 207.167 139.635 207.231 140.222L207.394 140.345C208.155 139.856 209.126 139.089 210.029 138.917C210.664 138.796 211.443 139.202 211.918 139.589C212.59 140.137 213.096 140.949 213.178 141.823C213.261 142.722 212.761 143.846 212.161 144.5C210.053 146.794 207.808 145.35 205.511 145.395L205.456 145.566C205.835 146.12 206.354 146.502 206.869 146.922C205.58 148.955 204.3 150.68 202.55 152.357C199.147 155.305 195.422 156.879 190.927 157.274C185.515 157.75 179.156 156.955 174.88 153.297C172.754 151.478 171.323 148.805 171.12 146.006C170.924 143.319 171.646 140.642 172.489 138.115C174.857 131.023 178.688 124.682 183.582 119.045Z" fill="#FEFEFE"/>
<path d="M190.503 135.075L190.901 135.164L191.04 135.442C190.988 136.2 190.609 136.923 190.322 137.62C190.084 137.456 190.03 137.379 189.939 137.097C189.74 136.475 190.189 135.587 190.503 135.075Z" fill="#231F20"/>
<path d="M209.687 140.555C210.043 140.659 210.294 140.784 210.521 141.09C210.829 141.505 210.939 141.998 210.852 142.505C210.716 143.306 210.323 143.769 209.67 144.216C209.43 144.249 209.206 144.243 208.964 144.233L208.853 144.071C210.447 141.461 209.168 142.067 209.687 140.555Z" fill="#231F20"/>
<path d="M196.729 136.96L197.076 137.069C197.215 137.29 197.253 137.311 197.275 137.589C197.38 138.915 196.56 140.31 195.734 141.276L195.522 141.303C195.414 141.168 195.378 141.082 195.36 140.908C195.198 139.393 195.82 138.119 196.729 136.96Z" fill="#231F20"/>
<path d="M181.466 128.39C181.742 128.365 182.021 128.34 182.298 128.342C183.688 128.35 184.451 129.078 185.35 130.018C184.531 129.729 184.044 129.397 183.136 129.462C181.772 129.56 180.897 130.461 180.033 131.412C179.337 132.332 178.931 133.453 178.368 134.459C178.375 133.501 178.476 132.603 178.778 131.692C179.267 130.218 180.066 129.101 181.466 128.39Z" fill="#231F20"/>
<path d="M195.649 130.561C196.699 130.52 197.444 130.633 198.294 131.292C200.449 132.962 201.075 136.291 201.459 138.808C200.923 137.91 200.455 136.974 199.975 136.046C199.395 135.189 198.789 134.428 197.951 133.804C196.704 132.876 195.662 133.015 194.226 133.19C193.569 133.271 192.812 133.38 192.259 132.946C192.2 132.678 192.173 132.617 192.322 132.367C192.951 131.309 194.525 130.833 195.649 130.561Z" fill="#231F20"/>
<path d="M182.985 121.407C183.524 121.4 184.011 121.428 184.504 121.666C185.952 122.365 186.737 124.104 187.198 125.563C187.556 126.694 188.296 130.098 187.772 131.098C187.489 130.996 187.446 130.753 187.311 130.494C186.483 128.551 185.196 125.801 183.636 124.372C183.036 123.824 182.245 123.514 181.65 122.956C181.366 122.689 181.271 122.475 181.262 122.091C181.673 121.589 182.382 121.506 182.985 121.407Z" fill="#231F20"/>
<path d="M183.871 132.628C184.02 132.668 184.155 132.747 184.293 132.815C185.198 134.462 180.951 138.615 181.291 139.983C181.847 140.54 183.153 140.461 183.9 140.517L183.924 140.411C184.199 139.246 184.822 136.448 185.842 135.81C186.178 135.855 186.166 135.899 186.391 136.16C186.521 136.587 186.356 136.977 186.242 137.391C185.797 138.522 185.41 139.906 184.773 140.934C184.456 141.445 183.89 141.735 183.308 141.829C182.487 141.962 181.525 141.74 180.851 141.251C180.312 140.859 179.926 140.31 179.851 139.638C179.669 138.002 182.831 133.913 183.871 132.628Z" fill="#231F20"/>
<path d="M192.61 144.017L192.823 144.094C193.167 144.558 193.131 144.976 193.1 145.532C192.947 148.242 192.153 151.172 190.007 153.008C188.608 154.206 186.831 154.481 185.05 154.353C182.401 154.162 180.257 153.193 178.51 151.18C177.542 149.829 177.254 148.407 177.249 146.783C177.039 146.571 176.826 146.359 176.628 146.136C176.361 145.834 176.238 145.616 176.262 145.215L176.484 145.075C177.289 145.403 178.038 145.831 178.869 146.101C183.528 147.619 188.403 146.138 192.61 144.017Z" fill="#231F20"/>
<path d="M188.113 147.644L188.252 147.667C188.208 148.131 187.613 148.655 187.279 148.988C185.892 150.369 183.994 151.624 181.957 151.563C180.876 151.53 180.157 151.091 179.421 150.336C178.842 149.463 178.601 148.665 178.391 147.658C181.694 148.84 184.769 148.538 188.113 147.644Z" fill="#FEFEFE"/>
</svg>
