<svg width="300" height="300" viewBox="0 0 300 300" fill="none" xmlns="http://www.w3.org/2000/svg">
<circle cx="150" cy="150" r="150" fill="white"/>
<path d="M209.263 221.453C209.577 221.479 209.762 221.511 210.051 221.655C210.111 221.746 210.209 221.82 210.231 221.927C210.283 222.182 209.666 224.238 209.603 224.684C209.126 228.058 209.846 230.559 210.286 233.815C210.337 234.193 210.28 234.288 210.049 234.584C209.684 234.652 209.378 234.738 209.015 234.61C208.229 233.769 208.18 230.959 208.113 229.794C207.99 227.635 207.814 223.066 209.263 221.453Z" fill="#231F20"/>
<path d="M118.181 226.234C118.175 226.201 118.172 226.168 118.164 226.135C118.023 225.549 117.619 224.952 117.408 224.372C116.61 222.184 116.652 219.856 117.811 217.8C119.451 214.892 122.553 213.11 125.679 212.275C127.849 211.695 130.122 211.395 132.34 211.051C137.611 210.233 142.896 209.698 148.2 209.153C152.194 208.742 156.267 208.097 160.275 207.928C163.936 207.774 167.554 208.099 171.209 208.138C179.405 208.226 187.576 207.979 195.643 209.767C198.336 210.363 201.097 211.433 203.468 212.833C205.387 213.967 207.849 215.679 208.426 217.962C208.891 219.802 208.349 221.701 207.369 223.273C203.36 229.701 192.802 233.449 185.709 235.037C180.818 236.131 175.757 236.799 170.752 237.046C166.678 237.247 162.643 237.004 158.577 236.853C150.019 236.535 140.288 236.253 132.029 234.088C128.474 233.156 125.124 231.774 122.005 229.816C121.346 229.402 119.03 227.099 118.688 227.146C118.65 227.151 118.62 227.178 118.585 227.194C118.449 228.161 118.945 230.881 119.027 232.072C119.123 233.471 119.472 239.326 118.72 240.187C118.458 240.25 118.313 240.264 118.065 240.104C117.775 239.916 117.774 239.598 117.75 239.288C117.661 238.098 117.758 236.831 117.758 235.636C117.758 233.062 117.674 230.537 117.289 227.989C116.993 227.895 116.793 227.806 116.532 227.627C116.374 227.331 116.361 227.347 116.443 227.025C116.933 226.525 117.523 226.396 118.181 226.234Z" fill="#231F20"/>
<path d="M161.779 209.549C164.975 209.507 168.145 209.867 171.335 209.87C181.611 209.882 197.137 208.827 205.371 216.071C206.285 216.875 207.163 217.925 207.208 219.199C207.285 221.379 205.925 223.407 204.452 224.888C202.734 226.615 200.587 227.977 198.441 229.105C188.026 234.583 175.247 235.469 163.695 235.488C160.046 235.543 156.322 235.336 152.675 235.193C142.732 234.803 128.651 234.301 120.981 227.126C119.451 225.694 118.37 223.934 118.308 221.785C118.25 219.771 119.023 218.009 120.393 216.56C121.769 215.106 123.567 214.094 125.465 213.49C128.789 212.433 132.601 212.195 136.059 211.77C141.756 211.071 147.475 210.555 153.198 210.124C156.056 209.908 158.914 209.635 161.779 209.549Z" fill="#FEFEFE"/>
<path d="M169.72 212.603C170.669 212.511 171.401 212.563 172.254 213.017C173.162 213.499 174.151 214.526 174.405 215.547C174.473 215.816 174.459 216.099 174.283 216.327C173.851 216.882 171.484 216.792 170.788 216.846C169.692 216.938 167.816 217.433 166.808 217.239C166.594 217.197 166.303 216.999 166.216 216.802C166.054 216.435 166.197 216.07 166.358 215.73C167.05 214.266 168.213 213.168 169.72 212.603Z" fill="#231F20"/>
<path d="M157.405 213.977C158.551 213.915 159.5 213.963 160.574 214.397C161.526 214.782 163.643 216.028 163.922 217.045C164.006 217.347 163.898 217.49 163.768 217.748C163.149 218.285 161.48 218.306 160.662 218.411C159.043 218.507 157.07 218.736 155.525 218.142C155.005 217.942 154.384 217.6 154.196 217.035C154.064 216.637 154.201 216.2 154.4 215.849C155.037 214.725 156.23 214.287 157.405 213.977Z" fill="#231F20"/>
<path d="M175.952 216.981L176.39 216.955C176.945 216.927 177.803 216.835 178.287 217.122C178.736 217.389 179.106 218.414 179.429 218.86C180.12 219.814 181.177 220.553 182.041 221.35C182.326 221.613 182.961 222.162 182.939 222.583C182.902 223.282 182.225 224.033 181.752 224.494C181.463 224.776 181.081 225.116 180.681 225.224C178.111 225.922 172.145 225.913 169.234 226.045C164.268 226.27 159.361 226.651 154.381 226.654C152.901 226.639 149.543 226.88 148.398 225.982C147.864 225.563 147.745 224.916 147.695 224.272C147.605 223.13 147.958 222.043 148.699 221.17C149.745 219.94 151.319 219.277 152.868 218.948C155.344 218.422 158.028 219.28 160.579 219.067C162.804 218.882 165.012 218.277 167.214 217.908C170.112 217.423 173.025 217.188 175.952 216.981Z" fill="#231F20"/>
<path d="M129.715 60.3228C136.227 59.7534 143.81 62.5761 149.592 65.423C152.099 66.6576 154.59 68.1516 157.315 68.8424C162.578 70.1756 168.051 68.5732 173.269 69.7872C176.545 70.5491 179.492 72.2965 181.293 75.2041C184.987 81.1678 182.765 89.3853 178.293 94.2735C176.932 95.76 173.5 98.3248 172.735 99.9404C172.47 100.5 173.035 101.258 173.054 101.842C173.063 102.147 172.959 102.492 172.891 102.789C173.982 103.386 174.947 104.073 175.682 105.096C177.244 107.27 177.21 109.826 176.775 112.366C176.322 115.007 175.669 116.498 173.433 118.088C173.913 122.006 174.7 127.309 173.53 131.069C172.956 132.911 171.971 134.612 170.983 136.258C171.581 136.587 172.228 136.847 172.848 137.13C183.862 142.156 194.882 149.863 201.765 159.99C202.787 161.494 204.01 163.218 204.646 164.923C205.611 165.022 206.571 165.129 207.514 165.362C208.701 165.654 210.186 166.161 210.816 167.288C211.125 167.842 211.164 168.483 210.983 169.085C210.362 171.158 207.733 172.613 205.969 173.583C207.112 181.949 204.008 197.595 200.261 205.182C199.84 206.036 199.449 206.967 198.886 207.736C198.592 208.136 198.065 208.736 197.518 208.74C197.219 208.743 197.031 208.616 196.837 208.403C196.372 207.896 196.41 206.82 196.445 206.168C199.291 201.908 201.661 192.622 202.568 187.604C202.951 185.485 203.146 183.315 203.428 181.18C203.735 178.852 204.12 176.581 204.126 174.225C199.894 176.221 195.2 176.642 190.656 177.461C186.983 178.123 183.39 178.908 179.666 179.274C180.211 181.573 180.462 183.884 180.686 186.233C180.904 188.526 180.886 190.766 180.974 193.06C181.058 195.227 181.363 197.69 181.064 199.834C181.005 200.26 180.907 200.619 180.63 200.956C180.364 201.058 180.369 201.067 180.101 200.974C179.827 200.619 179.743 200.265 179.687 199.822C179.52 198.513 179.645 197.111 179.635 195.79C179.623 194.332 179.523 192.864 179.462 191.406C175.984 191.96 172.565 192.771 169.101 193.375C166.325 193.859 163.574 194.158 160.77 194.406C157.183 194.613 153.597 194.565 150.009 194.751C151.904 196.68 152.995 199.417 154.714 201.506C155.165 202.054 155.865 202.349 156.354 202.856C156.549 203.057 156.64 203.183 156.605 203.473C156.568 203.777 156.38 203.977 156.136 204.137C155.137 204.792 152.62 204.108 151.538 203.811C149.686 201.807 148.222 199.416 146.521 197.29C145.943 196.568 145.099 196.014 144.678 195.2C143.528 195.05 142.343 195.135 141.185 195.074C139.755 194.998 138.343 194.677 136.954 194.344C136.92 196.792 137.331 205.922 136.625 207.42C136.49 207.707 136.258 207.997 135.925 208.045C135.668 208.081 135.37 207.975 135.193 207.784C134.848 207.41 134.73 206.822 134.66 206.336C134.47 205 134.562 203.585 134.566 202.236L134.586 195.356C132.533 195.901 130.502 196.295 128.415 195.639C126.347 194.988 125.508 193.61 124.561 191.804C122.653 192.374 120.435 192.55 118.453 192.404C115.699 192.202 111.752 191.377 109.91 189.137C109.041 188.08 108.601 186.676 108.737 185.313C109.611 176.516 120.756 162.385 126.869 156.139C129.45 153.502 132.321 151.121 135.172 148.789C132.937 148.413 130.951 147.723 129.019 146.52C126.801 145.139 125.009 143.31 123.452 141.224C117.883 133.762 117.718 125.103 115.652 116.39C116.197 115.921 116.38 115.565 116.623 114.88C115.009 115.532 113.475 116.387 111.914 117.158C107.602 119.287 102.525 121.851 97.8731 122.996C95.5914 123.558 92.2301 123.899 90.1347 122.555C89.7449 122.305 89.3893 121.947 89.302 121.475C89.148 120.645 89.6033 119.623 90.091 118.976C93.7289 114.152 107.757 111.712 113.657 110.846C113.39 109.155 113.077 107.475 113.07 105.758C110.703 103.974 108.326 102.163 106.132 100.167C102.817 97.1514 99.8429 92.9735 99.6642 88.3501C99.3856 81.1406 103.5 74.4948 108.229 69.3763C113.778 63.3698 121.702 60.6579 129.715 60.3228Z" fill="#231F20"/>
<path d="M149.26 181.885C149.563 182.027 150.172 182.244 150.36 182.524C150.64 182.942 150.768 183.476 150.698 183.974C150.517 185.279 149.383 186.316 148.381 187.061C147.971 187.286 147.547 187.49 147.13 187.702C148.487 186.059 148.802 183.909 149.26 181.885Z" fill="#FEFEFE"/>
<path d="M167.33 99.9118C168.423 100.431 169.482 100.98 170.535 101.575C170.445 101.98 170.476 102.511 170.165 102.809C169.96 102.831 169.766 102.858 169.567 102.912L169.382 102.962C168.644 103.328 167.947 103.767 167.243 104.194C167.137 102.76 167.216 101.342 167.33 99.9118Z" fill="#FEFEFE"/>
<path d="M164.185 98.4623C164.937 98.7367 165.657 99.0336 166.378 99.3826C165.69 101.225 165.811 103.246 165.943 105.169L165.147 105.965L164.253 107.029C163.64 104.196 164.015 101.317 164.185 98.4623Z" fill="#FEFEFE"/>
<path d="M138.464 149.401C139.43 149.56 140.431 149.545 141.407 149.675L141.474 150.063C141.51 150.275 141.537 150.492 141.609 150.696C141.98 151.749 142.856 152.281 143.81 152.717C143.695 152.901 142.918 153.033 142.674 153.1C141.578 153.381 140.489 153.668 139.409 154.008C138.947 152.736 138.401 151.504 137.809 150.288C138.046 150.008 138.252 149.7 138.464 149.401Z" fill="#FEFEFE"/>
<path d="M123.838 97.908L123.999 97.9899C124.027 98.7761 123.629 99.6781 123.323 100.39C122 103.477 119.57 106.062 117.349 108.515C116.955 108.95 116.397 109.784 115.862 110.001L115.714 109.795C115.282 107.826 114.985 105.89 114.893 103.873C116.516 100.894 120.884 99.2197 123.838 97.908Z" fill="#FEFEFE"/>
<path d="M158.304 96.4222C159.862 96.8909 161.495 97.2887 162.938 98.0547C162.331 99.4659 161.637 100.845 160.819 102.146C157.73 107.064 152.605 110.787 146.935 112.082C145.416 112.257 143.967 112.16 142.449 112.049C142.901 111.849 143.349 111.641 143.789 111.416C149.357 108.564 156.329 102.477 158.304 96.4222Z" fill="#FEFEFE"/>
<path d="M134.53 95.4549L134.636 95.5728C134.626 95.6259 134.617 95.6792 134.607 95.7321C134.38 96.8646 133.697 98.1737 133.206 99.2364C129.91 106.368 124.577 109.596 118.316 113.704L118.695 113.278C119.042 112.897 119.422 112.443 119.473 111.909C119.492 111.72 119.411 111.685 119.304 111.547C118.93 111.411 118.604 111.56 118.241 111.668C117.666 111.887 116.888 112.282 116.279 112.269C116.054 112.265 116.138 112.294 115.985 112.124C116.083 111.503 116.974 110.882 117.407 110.463C120.886 107.103 125.323 102.412 125.418 97.3244C126.755 96.8469 128.129 96.3585 129.524 96.0903C131.16 95.7756 132.875 95.6925 134.53 95.4549Z" fill="#FEFEFE"/>
<path d="M149.154 94.805C151.928 95.1748 154.581 95.5664 157.321 96.1773C157.024 96.7636 156.72 97.347 156.404 97.9233C155.378 99.7937 154.049 101.437 152.621 103.012C147.249 108.934 140.448 112.294 132.863 114.495C130.627 115.173 128.431 115.617 126.115 115.908C128.033 114.537 130.225 113.404 132.243 112.169C139.208 107.906 146.181 102.753 149.154 94.805Z" fill="#FEFEFE"/>
<path d="M141.148 94.7661C143.311 94.5873 145.583 94.6805 147.748 94.8279C143.052 105.014 134.56 109.203 125.485 114.732C124.356 115.53 120.224 115.083 118.769 114.948C121.327 113.396 123.908 111.637 126.311 109.851C130.66 106.621 135.249 100.642 136.073 95.1849L141.148 94.7661Z" fill="#FEFEFE"/>
<path d="M137.019 171.766C138.993 171.516 141.153 172.167 142.749 173.342C144.821 174.868 146.804 178.299 147.148 180.859C147.433 182.985 146.919 185.248 145.615 186.956C144.463 185.379 143.302 183.651 142.47 181.884C142.124 181.152 141.714 179.619 141.351 179.081C141.024 178.597 140.581 178.316 140.01 178.242C139.758 178.34 139.644 178.35 139.557 178.635C139.383 179.202 139.715 179.914 139.954 180.419C140.701 182.001 141.772 183.429 142.677 184.923C144.707 188.27 146.719 191.671 148.861 194.947C150.456 197.386 152.384 199.667 153.556 202.342C153.281 202.52 153.049 202.745 152.808 202.964C150.145 201.233 147.071 195.848 145.037 193.196C144.067 191.931 142.901 190.764 141.863 189.547C140.961 188.494 136.059 182.842 135.15 182.595C134.973 182.547 134.927 182.63 134.787 182.718C134.744 182.829 134.698 182.929 134.689 183.051C134.668 183.31 134.794 183.567 134.962 183.756L142.843 192.711C140.26 192.782 135.253 191.994 133.218 190.293C132.385 189.596 131.482 187.63 130.569 187.323C130.409 187.269 130.436 187.301 130.259 187.38C130.056 187.678 129.946 187.872 130.022 188.252C130.394 190.114 133.19 191.903 134.632 192.934C133.564 193.461 132.472 193.856 131.271 193.909C130.008 193.965 128.891 193.549 127.987 192.662C125.507 190.227 124.882 185.562 124.91 182.27C126.261 180.823 127.724 179.485 129.074 178.039C130.711 176.286 132.2 173.729 134.279 172.499C135.063 172.035 136.134 171.921 137.019 171.766Z" fill="#FEFEFE"/>
<path d="M162.277 102.687C162.457 103.247 162.412 104.02 162.469 104.613C162.656 106.569 162.92 108.353 163.709 110.169C163.577 110.62 163.394 111.061 163.481 111.535C163.66 111.743 163.752 111.837 164.05 111.866C164.076 111.869 164.397 111.853 164.442 111.83C164.704 111.703 165.058 110.803 165.195 110.538C165.613 109.732 166.184 109.088 166.863 108.492C168.871 106.728 170.591 105.811 173.285 105.97C174.721 108.528 174.267 111.04 173.685 113.767C173.564 114.333 173.419 114.945 173.061 115.414C172.267 116.456 169.811 117.36 168.549 117.653C168.04 117.772 167.285 117.758 166.87 118.076C166.729 118.184 166.77 118.249 166.761 118.409C166.857 118.541 166.874 118.575 167.008 118.693C167.801 119.389 169.806 118.873 170.779 118.727C171.222 122.332 172.116 126.686 170.779 130.161C169.828 132.633 168.431 134.77 167.103 137.036C166.602 137.891 166.157 138.963 165.454 139.664C163.622 141.49 160.623 142.836 158.256 143.888C153.134 146.164 147.671 147.264 142.096 147.51C140.692 147.572 139.238 147.673 137.844 147.467C136.204 147.226 134.648 146.593 133.11 146C130.879 145.01 128.933 143.542 127.24 141.799C122.065 136.471 120.915 130.326 119.568 123.369C119.125 121.08 118.748 118.119 117.633 116.065C118.751 116.184 123.239 116.11 123.845 116.394C124.145 116.535 124.397 117.199 124.785 117.406C125.277 117.669 126.417 117.363 126.954 117.275C132.135 116.425 136.309 114.766 141.147 112.884C142.093 113.141 143.035 113.315 144.001 113.478C143.604 113.867 143.178 114.279 142.866 114.739C142.566 115.18 142.375 115.697 142.503 116.232C142.606 116.66 142.786 117.195 143.201 117.409C143.921 117.78 145.327 116.146 145.987 115.817C147.078 115.273 148.688 115.956 149.873 115.611C150.189 115.519 150.51 115.335 150.633 115.01C150.748 114.704 150.694 114.348 150.589 114.047C150.344 113.34 149.792 113.14 149.172 112.843C154.846 110.248 158.55 107.913 162.277 102.687Z" fill="#FEFEFE"/>
<path d="M169.762 108.224C170.073 108.206 170.402 108.225 170.697 108.33C171.197 108.508 171.643 108.806 171.871 109.301C172.276 110.18 172.024 111.346 171.676 112.202C171.376 112.939 170.619 114.288 169.782 114.53C169.495 114.613 169.446 114.565 169.206 114.424C169.054 114.129 169.016 113.989 169.043 113.657C169.495 113.184 169.83 112.76 170.144 112.183C170.413 111.557 170.658 110.907 170.595 110.211C170.567 109.9 170.507 109.791 170.274 109.595C169.072 109.541 168.397 111.162 167.331 111.289C166.978 111.331 166.938 111.282 166.68 111.071C166.646 110.84 166.64 110.732 166.745 110.51C167.265 109.398 168.664 108.634 169.762 108.224Z" fill="#231F20"/>
<path d="M149.452 118.67C149.755 118.628 150.084 118.637 150.386 118.68C151.153 118.788 152.11 119.278 152.535 119.947C152.741 120.272 152.814 120.648 152.744 121.023C152.082 121.617 150.414 120.917 149.5 121.09C148.553 121.268 147.755 121.819 147.211 122.61C147.187 122.644 147.165 122.678 147.142 122.713C146.907 123.292 146.77 124.416 146.224 124.752C145.926 124.762 145.648 124.71 145.411 124.514C145.147 124.296 145.028 124.032 144.989 123.7C144.872 122.718 145.496 121.277 146.086 120.52C146.963 119.395 148.068 118.837 149.452 118.67Z" fill="#231F20"/>
<path d="M125.416 129.377C125.677 129.389 125.956 129.393 126.204 129.483C127.764 130.051 128.809 132.808 129.509 134.187C129.054 134.741 128.601 135.134 127.997 135.519C127.534 135.712 126.944 135.993 126.432 135.894C126.23 135.855 126.102 135.676 125.989 135.516C125.219 134.422 124.161 131.861 124.447 130.503C124.572 129.913 124.923 129.67 125.416 129.377Z" fill="#231F20"/>
<path d="M153.648 125.281C153.765 125.288 153.881 125.293 153.997 125.308C154.924 125.423 155.762 126.593 156.293 127.289C156.681 127.798 157.562 128.81 157.45 129.483C157.309 130.327 156.264 130.952 155.623 131.419C155.461 131.509 155.298 131.598 155.134 131.684C154.735 131.893 154.484 132.005 154.037 131.865C153.895 131.644 153.761 131.418 153.643 131.183C153.048 129.996 151.878 127.728 152.361 126.391C152.582 125.781 153.091 125.531 153.648 125.281Z" fill="#231F20"/>
<path d="M125.202 121.647C125.998 121.583 126.762 121.675 127.489 122.018C128.153 122.33 128.951 122.881 129.188 123.617C129.314 124.011 129.23 124.396 129.021 124.741C128.06 126.321 126.741 124.259 125.101 124.604C125.059 124.613 125.016 124.623 124.974 124.632C124.234 125.076 123.584 126.002 122.785 126.275C122.453 126.389 122.192 126.375 121.87 126.228C121.618 125.977 121.504 125.789 121.464 125.428C121.372 124.59 121.771 123.645 122.301 123.014C123.099 122.065 124.023 121.772 125.202 121.647Z" fill="#231F20"/>
<path d="M147.609 136.347C147.812 136.419 148.066 136.51 148.23 136.65C148.415 136.807 148.529 137.08 148.487 137.321C148.32 138.286 146.556 139.392 145.779 139.885C143.846 141.111 141.493 142.025 139.197 141.411C138.286 141.168 137.394 140.768 136.474 140.576L136.266 140.534C135.959 140.489 135.621 140.457 135.327 140.356C134.909 140.212 134.534 139.791 134.369 139.391C134.427 139.137 134.452 139.083 134.686 138.927C135.355 138.485 136.072 138.777 136.776 138.922C139.564 139.492 143.047 139.503 145.551 137.961C146.27 137.518 146.812 136.867 147.518 136.405C147.548 136.385 147.578 136.366 147.609 136.347Z" fill="#231F20"/>
<path d="M134.884 119.89C135.118 119.889 135.467 119.856 135.665 119.983C135.964 120.175 136.066 120.458 136.137 120.79C136.818 123.94 134.927 129.134 133.261 131.758C134.163 132.009 135.104 132.145 136.041 132.098C136.901 132.054 137.997 131.805 138.829 132.014C139.149 132.094 139.222 132.214 139.399 132.479C139.444 132.868 139.348 133.085 139.192 133.438C135.954 134.397 134.436 133.47 131.643 132.128C132.002 130.6 132.986 129.139 133.514 127.644C134.035 126.168 134.393 124.541 134.38 122.968C134.374 122.225 134.251 121.478 134.33 120.735C134.379 120.275 134.547 120.164 134.884 119.89Z" fill="#231F20"/>
<path d="M129.25 62.379C136.103 61.9996 142.919 64.5247 148.965 67.5289C151.843 68.9586 154.621 70.5061 157.792 71.2048C159.654 71.6149 161.535 71.7859 163.439 71.812C167.955 71.8743 173.355 71.0309 177.137 74.0783C179.099 75.6589 180.124 78.0295 180.39 80.4975C180.87 84.9467 179.699 89.6178 176.784 93.063C174.905 95.2835 172.688 97.1683 170.839 99.4472C169.451 98.713 167.991 98.1328 166.542 97.5331C160.939 95.2135 155.229 93.6471 149.17 93.1108C146.903 93.1333 144.63 93.0545 142.364 93.1333C136.977 93.32 130.361 94.0996 125.277 95.8589C121.526 97.1568 115.087 99.8962 113.321 103.54C111.815 102.406 110.307 101.201 108.883 99.9663C105.669 97.177 102.022 93.2534 101.725 88.7701C101.305 82.4294 104.796 76.3931 108.858 71.7987C114.397 65.5352 121.049 62.8727 129.25 62.379Z" fill="#FEFEFE"/>
<path d="M170.005 137.587C171.688 138.4 173.335 139.554 174.963 140.491C174.071 141.671 173.648 143.156 173.286 144.571C171.667 150.881 170.198 157.236 169.853 163.762C169.809 164.611 169.56 165.948 170 166.693C170.258 166.799 170.432 166.832 170.71 166.755C170.964 166.685 171.123 166.57 171.25 166.34C171.513 165.866 171.997 157.714 172.15 156.343C172.522 153.006 174.286 143.868 175.803 141.172L175.885 141.026C183.254 145.254 191.502 151.696 196.993 158.175C198.774 160.276 200.335 162.557 201.787 164.894C200.952 164.808 200.112 164.759 199.273 164.737C197.176 164.681 188.314 164.686 187.142 166.002C186.932 166.237 186.922 166.414 186.915 166.715C187.17 167.089 187.461 167.15 187.901 167.17C189.515 167.244 191.343 166.921 192.97 166.803C196.347 166.56 204.91 166.235 207.812 167.286C208.322 167.471 208.691 167.618 208.929 168.122C208.907 168.247 208.902 168.331 208.835 168.448C208.625 168.815 208.072 169.123 207.719 169.351C205.541 170.751 203.45 171.417 200.983 172.129C198.92 172.724 196.849 173.361 194.75 173.815C191.258 174.57 187.668 175.192 184.115 175.587C182.216 175.798 180.303 175.9 178.401 176.077C176.383 176.265 174.394 176.623 172.362 176.662C168.989 176.728 162.651 176.346 159.682 174.705C160.636 173.948 161.757 173.379 162.88 172.916C163.872 172.506 164.923 172.297 165.945 171.98C168.826 171.086 171.666 170.216 174.602 169.504C175.862 169.199 177.951 168.917 179.046 168.402C179.395 168.238 179.751 167.918 179.832 167.524C179.898 167.207 179.863 167.042 179.707 166.767C179.473 166.615 179.385 166.553 179.097 166.543C177.419 166.486 175.036 167.341 173.363 167.773C169.333 168.814 160.835 170.669 157.832 173.423C157.506 173.721 157.167 174.1 157.187 174.572C157.219 175.316 157.918 176.019 158.461 176.451C162.244 179.456 173.581 180.014 178.294 179.427C178.612 180.523 178.692 181.726 178.82 182.859C179.213 185.248 179.344 187.677 179.517 190.089C175.49 190.417 171.441 191.535 167.43 192.102C161.318 192.968 155.299 193.076 149.141 193.085C148.498 191.872 147.735 190.703 147.022 189.529C147.47 189.386 147.888 189.222 148.297 188.985C149.848 188.086 151.497 186.355 151.909 184.571C152.097 183.752 152.066 182.807 151.567 182.099C150.96 181.237 150.146 181.074 149.182 180.88L148.725 178.669C150.694 178.725 153.245 178.545 155.137 178.008C155.56 177.888 156.013 177.769 156.233 177.368L156.08 177.133C154.497 176.298 150.257 177.434 148.195 177.283C148.147 177.28 148.1 177.275 148.052 177.271C147.557 176.451 147.012 175.633 146.432 174.871C144.465 172.284 142.067 170.826 138.813 170.415C133.692 169.768 131.274 173.143 128.333 176.684C126.968 178.328 125.268 180.227 123.563 181.52C123.527 181.547 123.49 181.573 123.453 181.6C123.186 184.141 123.423 187.003 123.805 189.529C122.69 189.797 121.474 189.889 120.329 189.931C117.832 190.02 113.992 189.638 112.106 187.779C111.522 187.203 111.261 186.487 111.278 185.673C111.311 184.097 112.171 182.361 112.732 180.906C116.364 171.482 125.158 161.274 132.431 154.46C133.805 153.172 135.332 152.051 136.72 150.773C139.326 156.717 139.944 162.996 141.845 169.096C142.016 169.644 142.223 170.164 142.755 170.437C143.048 170.411 143.064 170.417 143.28 170.222C143.446 169.796 143.434 169.456 143.36 169.007C143.078 167.298 142.462 165.57 142.048 163.881C141.348 161.019 140.804 158.133 139.863 155.337C141.683 154.836 143.528 154.41 145.361 153.959C145.47 154.365 145.561 154.736 145.878 155.038C146.751 155.871 148.201 155.982 149.352 155.951C152.924 155.855 157.859 153.47 160.749 151.477C162.302 150.407 163.712 149.139 165.168 147.945C166.286 147.029 167.487 146.189 168.476 145.128C169.588 143.937 171.238 141.803 171.127 140.094C171.083 139.42 170.782 138.874 170.269 138.446C170.106 138.31 169.976 138.202 169.849 138.028L170.005 137.587Z" fill="#FEFEFE"/>
<path d="M165.591 153.993C165.829 154.03 166.082 154.079 166.308 154.163C166.773 154.334 167.173 154.733 167.344 155.197C167.494 155.602 167.465 156.055 167.275 156.441C166.985 157.029 166.541 157.193 165.953 157.406C165.763 157.383 165.567 157.36 165.383 157.307C164.969 157.188 164.542 156.874 164.333 156.494C164.12 156.108 164.119 155.635 164.261 155.225C164.491 154.562 164.991 154.285 165.591 153.993Z" fill="#231F20"/>
<path d="M169.11 147.134C169.319 147.118 169.539 147.113 169.749 147.134C170.189 147.176 170.637 147.442 170.907 147.791C171.216 148.19 171.269 148.686 171.173 149.17C171.031 149.886 170.562 150.182 169.987 150.562C169.714 150.578 169.426 150.59 169.154 150.55C168.744 150.489 168.313 150.166 168.095 149.821C167.848 149.429 167.807 148.946 167.92 148.503C168.089 147.839 168.543 147.466 169.11 147.134Z" fill="#231F20"/>
<path d="M146.684 167.743C147.017 167.714 147.371 167.672 147.702 167.737C148.139 167.822 148.539 168.116 148.777 168.489C149.023 168.872 149.092 169.316 148.991 169.758C148.831 170.459 148.388 170.846 147.802 171.21C147.551 171.235 147.302 171.234 147.051 171.202C146.596 171.143 146.158 170.903 145.882 170.533C145.614 170.175 145.51 169.735 145.577 169.293C145.688 168.559 146.096 168.145 146.684 167.743Z" fill="#231F20"/>
<path d="M144.472 157.882C144.792 157.879 145.089 157.89 145.4 157.97C145.92 158.106 146.346 158.444 146.604 158.915C146.815 159.303 146.874 159.75 146.737 160.172C146.53 160.808 146.129 161.132 145.551 161.424C145.335 161.422 145.123 161.403 144.909 161.372C144.339 161.292 143.894 161.082 143.556 160.601C143.292 160.226 143.195 159.795 143.292 159.345C143.44 158.656 143.907 158.247 144.472 157.882Z" fill="#231F20"/>
<path d="M174.188 172.809C174.729 172.759 175.367 172.714 175.905 172.778C176.246 172.819 176.354 172.913 176.568 173.169C176.62 173.471 176.617 173.593 176.487 173.872C175.755 174.43 169.023 174.358 167.526 174.469C166.857 174.475 166.151 174.636 165.487 174.553C165.185 174.516 165 174.421 164.806 174.184C164.792 174.003 164.73 173.909 164.872 173.768C165.684 172.96 172.673 172.899 174.188 172.809Z" fill="#231F20"/>
<path d="M195.931 168C197.532 167.753 201.444 167.771 202.961 168.39C203.367 168.555 203.603 168.964 203.753 169.352C203.732 169.503 203.756 169.598 203.632 169.705C203.064 170.197 199.339 169.387 198.221 169.325C196.848 169.335 191.187 170.07 190.53 169.837C190.256 169.74 190.168 169.571 190.05 169.324C190.049 169.131 190.006 169.016 190.13 168.855C190.686 168.138 194.831 168.104 195.931 168Z" fill="#231F20"/>
<path d="M184.151 162.14C184.507 162.111 184.863 162.071 185.153 162.311C186.262 163.227 186.699 165.502 186.78 166.889C186.831 167.754 186.615 168.586 186.025 169.237C185.292 170.046 184.373 170.244 183.333 170.29C182.899 170.242 182.475 170.199 182.089 169.979C181.404 169.589 181.012 168.724 180.848 167.986C180.605 166.896 180.124 164.294 180.801 163.393C181.399 162.596 183.229 162.342 184.151 162.14Z" fill="#231F20"/>
</svg>
