<svg width="300" height="300" viewBox="0 0 300 300" fill="none" xmlns="http://www.w3.org/2000/svg">
<circle cx="150" cy="150" r="150" fill="white"/>
<path d="M186.86 119.402C187.3 119.38 187.704 119.356 188.132 119.496C188.67 119.673 189.095 120.074 189.324 120.586C189.723 121.478 189.304 122.929 188.955 123.772C188.225 125.528 186.873 126.917 185.114 127.628C184.438 126.392 187.375 124.77 187.584 122.682C187.766 120.86 186.122 121.762 185.455 120.966C185.681 120.2 186.216 119.817 186.86 119.402Z" fill="#231F20"/>
<path d="M205.554 222.13C206.703 222.23 207.812 222.447 208.933 222.721C211.178 223.27 227.351 227.76 228.082 228.464L227.924 228.582C224.654 228.329 221.245 227.301 218.048 226.575C214.257 225.714 209.963 225.103 206.403 223.544C205.881 223.315 205.562 223.081 205.358 222.544L205.554 222.13Z" fill="#231F20"/>
<path d="M100.416 225.028L100.473 225.101C100.521 225.439 100.567 225.339 100.423 225.588C99.3937 227.358 78.8386 236.055 75.644 237.275C74.6219 237.666 73.6202 237.971 72.5494 238.193C72.3917 237.894 72.3697 237.881 72.4247 237.551C73.7544 236.355 78.5316 234.664 80.4203 233.824C87.0744 230.863 93.708 227.865 100.416 225.028Z" fill="#231F20"/>
<path d="M129.807 132.043C130.544 132.03 130.943 132.216 131.497 132.696C133.278 134.24 134.089 137.801 134.21 140.073C134.297 141.699 134.028 143.01 132.937 144.244C132.805 144.282 132.773 144.296 132.62 144.313C131.936 144.391 131.41 144.118 130.91 143.666C129.271 142.184 128.643 138.857 128.529 136.736C128.437 135.026 128.618 133.359 129.807 132.043Z" fill="#231F20"/>
<path d="M158.439 128.878C159.214 128.967 159.665 129.153 160.192 129.74C161.86 131.597 162.262 135.177 162.071 137.578C161.943 139.192 161.53 140.552 160.275 141.634C159.459 141.584 158.951 141.44 158.381 140.827C156.823 139.148 156.517 135.668 156.66 133.467C156.767 131.823 157.168 130.009 158.439 128.878Z" fill="#231F20"/>
<path d="M146.901 137.098C147.278 137.09 147.521 137.07 147.87 137.237L147.9 137.422C146.825 138.398 145.202 138.805 144.027 139.713C141.404 141.74 139.405 144.988 139.008 148.303C138.765 150.338 139.207 152.496 140.538 154.098C141.432 155.175 142.73 156.134 144.175 156.2C146.45 156.305 148.699 154.319 149.86 152.499C150.4 151.652 150.872 150.467 151.604 149.795L151.777 149.879C151.86 150.441 151.774 150.948 151.695 151.507C151.436 152.333 151.106 153.127 150.656 153.868C149.538 155.709 147.865 157.148 145.731 157.645C144.047 158.038 142.181 157.85 140.708 156.904C138.948 155.775 137.872 153.724 137.496 151.705C136.859 148.279 137.97 144.808 139.919 141.991C141.631 139.517 143.896 137.653 146.901 137.098Z" fill="#231F20"/>
<path d="M114.554 143.535L115.015 143.617C115.208 143.996 115.08 144.172 114.821 144.484C113.48 146.103 111.493 147.534 109.931 148.966C107.803 150.917 105.749 153.092 103.843 155.262C99.0608 160.705 93.7119 168.383 92.9115 175.697C92.7348 177.313 93.5762 180.727 93.2442 181.757C93.0925 182.227 92.8194 182.274 92.4205 182.46L92.3012 182.352C92.1142 182.184 91.9211 182.014 91.7727 181.81C90.4321 179.967 90.9283 176.095 91.373 174.002C93.7871 162.642 105.008 149.755 114.554 143.535Z" fill="#231F20"/>
<path d="M171.764 166.906C171.806 166.901 171.847 166.895 171.889 166.892C174.552 166.694 178.36 166.745 180.496 168.592C181.199 169.2 181.708 170.014 181.749 170.962C181.791 171.917 181.359 172.81 180.704 173.486C178.193 176.076 172.968 176.193 169.634 176.211C166.945 176.202 162.66 176.326 160.395 174.659C159.817 174.234 159.402 173.654 159.317 172.929C159.199 171.923 159.677 170.803 160.308 170.041C162.618 167.252 168.41 167.159 171.764 166.906Z" fill="#231F20"/>
<path d="M170.721 168.719C172.765 168.436 177.938 168.425 179.539 169.672C179.854 169.918 180.094 170.259 180.105 170.672C180.116 171.119 179.877 171.52 179.588 171.841C177.696 173.946 173.241 174.246 170.622 174.389C167.978 174.425 164.464 174.525 162.024 173.418C161.494 173.178 161.153 172.917 160.936 172.357C160.938 172.007 160.985 171.783 161.203 171.498C162.79 169.421 168.234 168.979 170.721 168.719Z" fill="#FEFEFE"/>
<path d="M171.182 168.91C171.357 168.938 171.346 168.931 171.544 168.989C172.018 169.127 172.4 169.376 172.615 169.84C172.83 170.304 172.798 170.79 172.59 171.249C172.306 171.879 171.917 172.097 171.296 172.346C170.781 172.204 170.226 172.079 169.887 171.631C169.647 171.313 169.6 170.961 169.666 170.577C169.8 169.792 170.548 169.271 171.182 168.91Z" fill="#231F20"/>
<path d="M214.603 126.382C215.102 126.438 215.637 126.488 216.089 126.727C216.964 127.19 217.175 128.276 217.454 129.143C216.702 131.496 215.303 133.797 214.194 136.012C211.573 141.246 208.856 146.444 206.012 151.562C204.673 153.971 201.525 160.1 199.933 161.872C199.645 162.193 199.366 162.352 198.944 162.455C197.321 162.85 195.458 161.98 194.122 161.118C193.177 163.995 188.524 175.351 186.413 177.226L186.218 177.189C186.006 175.412 190.664 166.22 191.704 163.965C192.251 162.833 193.011 161.565 193.356 160.364C193.569 159.623 193.29 158.875 193.604 158.141C195.38 154.002 199.887 146.688 202.523 142.952C198.512 141.134 194.515 139.571 190.261 138.407C189.139 138.1 185.86 137.666 185.175 137.036C185.122 136.987 185.079 136.93 185.031 136.878L185.031 136.881L185.061 136.401C185.116 136.378 185.168 136.348 185.225 136.333C188.732 135.441 200.419 139.507 203.66 141.354C205.322 138.755 207.168 136.256 208.907 133.708C210.384 131.544 211.804 129.149 213.511 127.167C213.841 126.785 214.146 126.591 214.603 126.382Z" fill="#231F20"/>
<path d="M206.11 142.214C206.1 143 197.448 158.263 196.57 159.753C196.282 160.243 196.295 160.309 195.735 160.449C195.659 160.322 195.589 160.221 195.546 160.074C195.154 158.74 204.629 144.224 206.11 142.214Z" fill="#FEFEFE"/>
<path d="M144.518 81.2193C148.288 74.458 153.771 67.6335 160.4 63.5164C164.405 61.0282 169.269 59.485 173.972 60.638C176.928 61.3621 179.425 63.232 180.98 65.8459C184.353 71.5189 183.196 78.5482 181.667 84.6038C183.341 84.1928 185.041 83.9015 186.767 84.1215C189.803 84.5083 192.443 86.0107 194.295 88.4457C196.268 91.0409 196.988 94.2356 196.533 97.4491C196.026 101.028 194.1 104.679 191.865 107.482C191.523 107.911 191.084 108.549 190.619 108.842C190.208 109.102 189.857 109.228 189.38 109.13C189.303 108.761 189.348 108.704 189.511 108.376C190.474 106.436 191.773 104.952 192.492 102.842C193.241 100.648 193.504 98.1968 193.195 95.8963C192.848 93.3135 191.67 90.8202 189.527 89.258C187.109 87.4952 183.714 87.2168 180.843 87.6808C176.377 88.4019 174.651 90.2753 172.097 93.7339C171.824 94.1033 171.492 94.5711 171.009 94.6436L170.781 94.4103C170.716 93.9809 170.706 93.6626 170.875 93.251C172.516 89.2565 176.702 86.5834 180.491 84.9447C181.33 81.5133 181.712 77.6213 180.613 74.2029C179.599 71.051 177.268 68.4498 174.319 66.9683C170.533 65.0665 166.213 65.1898 162.26 66.4926C151.068 70.1819 144.281 82.8957 140.642 93.345C139.689 96.0834 138.855 100.42 137.639 102.782C137.614 102.83 137.587 102.879 137.561 102.927C137.606 96.4693 141.016 88.7881 143.677 82.9434C139.543 83.8794 135.275 83.9489 131.361 85.771C123.215 89.5636 121.4 98.4401 121.438 106.653C121.445 108.244 121.908 111.596 121.731 112.865C121.669 113.31 121.52 113.648 121.239 113.999L121.027 114.02C120.987 113.986 120.944 113.956 120.909 113.918C119.762 112.679 119.733 108.558 119.636 106.868C116.33 108.747 112.189 111.686 109.533 114.42C108.3 115.689 106.729 117.487 106.81 119.364C106.852 120.325 107.358 121.155 108.067 121.779C110.646 124.049 115.26 124.363 118.525 124.553C132.145 125.347 148.73 122.652 161.643 118.409C163.837 117.689 166.008 116.891 168.16 116.054C170.456 115.161 183.256 109.689 184.655 109.792C185.101 109.824 185.154 109.88 185.437 110.19C185.515 110.63 185.487 110.964 185.294 111.368C185.138 111.695 184.873 111.95 184.537 112.09C183.877 112.364 183.14 112.491 182.46 112.713C181.369 113.069 180.263 113.588 179.203 114.041C174.365 116.106 169.698 118.433 164.746 120.244C166.148 120.814 167.982 121.947 168.741 123.307C168.983 123.739 168.96 124.019 168.829 124.48C167.824 125.322 164.241 121.711 161.869 121.916C160.199 122.059 159.047 124.234 158.051 125.433C156.251 127.598 153.921 130.104 150.931 130.321C150.351 130.363 149.841 130.38 149.383 129.997C149.461 129.523 149.665 129.423 150.092 129.225C151.098 128.757 152.204 128.344 153.146 127.757C155.018 126.592 157.045 123.815 158.5 122.094C150.31 125.09 138.835 126.578 130.093 126.868C131.065 127.97 132.174 128.886 133.393 129.701C134.012 130.115 135.198 130.674 135.671 131.212C135.75 131.301 135.752 131.436 135.792 131.548C135.693 131.937 135.699 132.056 135.409 132.324C132.198 132.675 129.79 128.767 127.936 128.713C126.496 128.671 124.841 131.548 123.233 131.417C122.952 131.146 122.972 131.152 122.943 130.759C123.594 129.102 125.485 127.65 127.038 126.846C123.814 126.858 120.507 126.807 117.302 126.44C117.91 130.942 118.761 135.42 120.123 139.76C123.039 149.046 128.798 156.483 137.502 160.967C143.974 164.301 150.204 164.573 157.102 162.336C166.959 159.139 175.998 152.548 180.174 142.839C180.997 140.925 181.575 138.912 182.206 136.929C182.478 136.075 182.704 135.043 183.127 134.256C183.168 134.179 183.212 134.103 183.255 134.026C182.576 133.726 181.824 133.428 181.519 132.697C181.594 132.341 181.6 132.319 181.866 132.074C182.665 132.061 183.356 132.492 184.146 132.577C186.826 132.865 189.322 131.333 191.105 129.474C193.295 127.189 195.026 123.899 194.966 120.666C194.931 118.812 194.284 117.147 192.925 115.86C191.759 114.756 190.172 114.193 188.569 114.3C186.882 114.413 185.485 115.378 184.428 116.647C183.666 117.562 183.231 118.58 182.657 119.605C182.539 119.814 182.563 119.751 182.322 119.923C181.997 119.256 182.434 117.923 182.672 117.218C183.199 115.658 184.38 114.408 185.846 113.666C187.547 112.803 189.569 112.672 191.363 113.32C193.238 113.997 194.88 115.491 195.663 117.333C196.739 119.863 196.203 122.987 195.156 125.44C193.756 128.722 190.932 132.344 187.493 133.631C186.116 134.146 184.837 134.128 183.403 134.018C183.409 135.362 183.124 136.758 182.863 138.078C181.921 142.838 180.298 146.903 177.421 150.833C171.93 158.332 161.358 165.262 152.05 166.662C144.935 167.732 138.986 165.164 133.36 160.998C121.015 151.859 117.661 140.627 115.548 126.238C113.756 125.947 111.964 125.476 110.268 124.826C108.351 124.092 105.994 122.976 105.151 120.975C104.592 119.647 104.8 118.25 105.357 116.961C107.547 111.894 114.763 107.939 119.65 105.981C119.878 100.497 120.306 95.1003 123.388 90.3639C126.545 85.5114 131.387 83.1777 136.978 82.3091C139.485 81.9195 142.034 81.7385 144.518 81.2193Z" fill="#231F20"/>
<path d="M211.113 143.162C211.895 144.561 212.474 146.02 213.11 147.486C219.36 151.744 226.26 157.19 227.748 165.074C228.44 168.745 227.521 171.841 225.421 174.884C224.566 176.123 223.594 177.282 222.571 178.385C221.14 179.928 214.142 186.787 212.692 187.095C212.354 187.167 212.001 187.17 211.658 187.17C212.006 188.065 211.678 188.732 211.306 189.567C209.211 194.264 203.854 198.957 200.017 202.208C199.985 204.337 200.082 206.398 200.394 208.511C200.69 210.514 203.063 218.52 202.404 219.846C202.034 219.748 201.906 219.452 201.719 219.136C199.28 215.021 198.3 207.439 199.158 202.815C197.018 204.322 194.879 205.806 192.589 207.08C189.503 208.796 181.653 212.452 178.11 211.808C177.227 211.648 176.348 211.246 175.849 210.467C175.173 209.41 175.473 208.155 175.761 207.026L175.862 206.642C175.631 206.359 175.767 206.467 175.464 206.309C175.271 206.465 175.095 206.606 174.872 206.719C173.966 207.176 173.065 208.12 172.073 208.293C172.007 208.305 171.94 208.311 171.874 208.32C171.331 208.399 170.816 208.445 170.286 208.265C169.526 208.008 168.944 207.424 168.616 206.699C167.986 205.302 168.394 204.151 168.892 202.812C168.51 202.566 168.118 202.319 167.776 202.017C166.673 201.042 166.068 199.651 166.006 198.191C165.819 193.78 168.644 188.825 171.592 185.737C170.374 186.153 169.155 186.46 167.887 186.689C157.841 188.503 127.217 188.695 119.014 182.967C119.759 185.168 120.6 187.291 121.526 189.422C130.853 191.789 140.066 192.674 149.675 192.818C152.346 192.858 155.018 192.859 157.69 192.846C158.781 192.842 160.093 192.673 161.162 192.827C161.523 192.879 161.552 192.86 161.765 193.17C161.52 193.442 161.354 193.541 161.002 193.662C154.021 196.047 135.829 194.915 128.343 193.127C126.064 192.583 123.993 191.776 121.886 190.769C122.822 192.778 123.914 195.013 123.588 197.303C123.459 198.216 123.068 199.067 122.294 199.605C121.026 200.486 119.584 200.178 118.19 199.895C118.246 200.089 118.299 200.283 118.351 200.479C118.729 201.892 118.964 203.482 118.146 204.798C117.793 205.367 117.261 205.782 116.603 205.931C115.353 206.214 114.24 205.555 113.252 204.888C112.699 205.39 112.153 205.868 111.386 205.969C109.311 206.244 107.406 204.47 105.923 203.259C105.502 207.068 105.444 210.952 105.255 214.779C105.11 217.719 104.793 220.773 104.904 223.713C104.931 224.436 105.015 225.208 105.297 225.878C106.794 229.432 110.535 231.649 113.968 232.935C130.689 239.201 151.707 238.282 169.166 236.051C175.421 235.251 181.768 234.34 187.764 232.318C190.685 231.332 193.616 230.004 196.244 228.378C197.811 227.409 199.38 226.096 201.079 225.386C201.49 225.214 201.594 225.24 202.003 225.407C202.203 225.701 202.293 225.793 202.169 226.169C201.691 227.616 198.203 229.981 196.905 230.753C193.393 232.843 189.605 234.457 185.687 235.607C182.148 236.647 178.427 237.222 174.791 237.812C158.356 240.476 137.24 241.634 121.055 237.608C115.302 236.176 107.489 233.751 104.313 228.371C103.71 227.35 103.346 226.163 103.202 224.988C102.66 220.536 103.942 206.819 105.094 202.467C104.627 201.919 104.184 201.346 103.731 200.785C103.313 201.194 102.904 201.615 102.364 201.861C101.594 202.211 100.783 202.19 100 201.893C97.7636 201.045 96.0229 198.94 95.0981 196.791C93.0927 192.133 93.4263 186.243 95.3343 181.612C97.2511 176.96 100.655 173.143 105.354 171.212C109.615 169.461 114.176 169.702 118.388 171.493C121.77 172.93 126.203 175.575 127.626 179.134C131.87 178.903 136.096 178.386 140.335 178.066C145.297 177.691 150.289 177.526 155.265 177.488C157.37 177.472 159.483 177.532 161.578 177.758C163.796 177.999 166.005 178.43 168.245 178.321C173.741 178.053 179.23 176.991 184.728 176.602L184.665 176.763C184.426 177.376 184.198 177.957 183.813 178.499C181.2 182.181 166.606 182.178 162.272 182.916L162.069 182.951C165.631 183.226 172.559 182.291 175.472 183.235C175.991 182.909 176.531 182.613 177.063 182.308C180.134 180.102 187.95 178.539 191.815 177.822C191.471 176.182 191.901 175.091 192.801 173.705C194.334 171.346 196.441 169.119 198.483 167.187C199.527 166.2 200.795 165.269 201.641 164.109C202.706 162.645 203.247 160.597 204 158.939C206.385 153.692 208.856 148.464 211.113 143.162Z" fill="#231F20"/>
<path d="M110.944 171.744C115.234 171.809 118.527 173.281 121.99 175.751C123.253 176.651 126.293 178.712 126.504 180.369C126.582 180.992 126.209 181.797 125.836 182.279C125.536 182.666 125.145 182.925 124.647 182.966C122.894 183.108 121.313 181.5 120.039 180.518C119.434 180.051 118.87 179.601 118.07 179.703C117.887 179.799 117.741 179.884 117.625 180.061C115.678 183.019 121.234 192.255 121.821 195.852C121.934 196.547 121.986 197.512 121.457 198.074C119.616 200.028 116.205 196.048 114.544 196.001L114.376 196.237C114.551 198.424 116.911 198.629 117.771 200.251C118.118 200.907 118.046 201.614 117.848 202.304C117.621 203.099 117.323 203.734 116.548 204.114C116.037 204.366 115.394 204.452 114.861 204.214C113.74 203.715 114.117 201.991 113.671 200.977C113.129 199.742 112.524 198.593 111.826 197.439C111.194 196.498 110.407 195.298 109.503 194.61C109.186 194.369 109.013 194.338 108.629 194.378C108.161 195.276 110.6 198.279 111.123 199.201C111.602 200.045 112.01 200.974 112.236 201.921C112.372 202.488 112.536 203.185 112.171 203.7C112.007 203.932 111.66 204.069 111.383 204.108C109.011 204.441 105.385 200.225 104.237 198.408C103.756 197.647 102.875 195.233 102.331 194.863C101.965 194.915 101.971 194.908 101.726 195.186C101.419 196.657 102.399 198.455 102.997 199.762C102.597 200.036 102.097 200.342 101.602 200.379C100.848 200.435 100.171 200.047 99.6106 199.581C96.9853 197.398 95.5272 194.075 95.2637 190.712C94.8842 185.869 96.4656 181.03 99.6575 177.364C102.573 174.015 106.538 172.062 110.944 171.744Z" fill="#FEFEFE"/>
<path d="M177.369 182.963L177.581 182.902C178.784 182.549 179.966 181.98 181.156 181.56C183.401 180.767 185.671 180.119 187.992 179.587C192.013 178.666 195.551 178.052 199.37 180.079C202.643 181.817 205.463 184.351 208.788 186.022C209.656 186.459 210.557 186.716 211.462 187.061C210.739 189.157 209.212 191.013 207.785 192.672C202.93 198.313 196.872 203.124 190.177 206.39C187.531 207.682 179.743 211.231 177.115 210.299C176.765 210.175 176.395 209.92 176.249 209.565C175.938 208.809 176.545 207.326 176.778 206.581C181.201 205.704 186.906 203.704 190.322 200.732C187.593 201.192 184.891 202.673 182.327 203.724C180.64 204.416 178.918 204.974 177.162 205.463C176.438 205.665 175.779 205.82 175.127 206.209C174.325 206.466 173.478 206.753 172.637 206.816C171.855 206.875 171.089 206.723 170.506 206.169C170 205.688 169.787 204.684 169.792 204.009C169.794 203.641 169.831 203.437 170.088 203.165C171.21 203.334 172.307 203.335 173.41 203.038C175.741 202.409 177.5 200.638 179.515 199.412C181.515 198.195 183.708 197.075 185.864 196.155C186.849 195.735 189.233 195.172 189.748 194.25C189.403 193.801 188.693 193.89 188.171 193.936C185.364 194.184 180.897 196.47 178.513 198.058C177.045 199.036 175.547 200.266 173.907 200.918C172.844 201.34 171.548 201.483 170.425 201.247C169.501 201.053 168.718 200.544 168.233 199.724C167.323 198.186 167.595 196.322 168.042 194.684C169.589 189.02 172.344 185.8 177.369 182.963Z" fill="#FEFEFE"/>
<path d="M185.837 186.84C186.33 186.792 186.826 186.74 187.321 186.729C188.017 186.714 188.805 186.691 189.327 187.194C189.176 187.656 189.119 187.557 188.655 187.672C182.629 189.155 176.721 191.028 172.713 196.086C172.275 196.714 171.862 197.364 171.313 197.903C171.21 197.873 171.101 197.849 171.011 197.784C170.704 197.564 170.561 197.316 170.543 196.936C170.505 196.144 171.45 194.967 171.914 194.345C175.183 189.956 180.547 187.631 185.837 186.84Z" fill="#231F20"/>
</svg>
