<svg width="300" height="300" viewBox="0 0 300 300" fill="none" xmlns="http://www.w3.org/2000/svg">
<circle cx="150" cy="150" r="150" fill="white"/>
<path d="M209.364 131.747C209.58 131.921 209.603 131.948 209.694 132.209C209.584 132.92 209.297 133.306 208.726 133.73C208.485 133.552 208.47 133.548 208.384 133.263C208.557 132.657 208.973 132.227 209.364 131.747Z" fill="#231F20"/>
<path d="M97.083 129.792C97.415 129.785 97.6276 129.83 97.9395 129.943C98.1454 130.186 98.2804 130.285 98.2389 130.631C98.1927 131.015 97.9257 131.267 97.665 131.52C97.5056 131.528 97.2076 131.559 97.0461 131.51C96.7345 131.414 96.7042 131.298 96.5843 131.028C96.6214 130.518 96.8168 130.22 97.083 129.792Z" fill="#231F20"/>
<path d="M206.338 133.253C206.543 133.244 206.814 133.21 207.013 133.253C207.382 133.335 207.439 133.43 207.628 133.724C207.662 134.521 206.969 135.274 206.526 135.891C206.152 136.036 205.942 136.15 205.565 136.006C205.307 135.243 206.052 134.137 206.296 133.386L206.338 133.253Z" fill="#231F20"/>
<path d="M203.769 136.111C203.833 136.137 203.902 136.156 203.963 136.19C204.291 136.368 204.354 136.463 204.482 136.792C204.315 137.613 203.344 138.19 202.726 138.688C202.41 138.582 202.035 138.476 201.832 138.188C201.664 137.949 201.629 137.685 201.758 137.421C202.106 136.707 203.083 136.381 203.769 136.111Z" fill="#231F20"/>
<path d="M102.27 137.191C103.095 137.166 104.492 137.409 105.121 137.942C105.169 138.141 105.225 138.169 105.109 138.361C104.832 138.821 104.181 138.935 103.704 139.088C103.372 139.179 103.022 139.28 102.676 139.293C102.067 139.317 101.605 139.098 101.156 138.706C101.08 138.5 100.988 138.387 101.052 138.165C101.213 137.608 101.793 137.422 102.27 137.191Z" fill="#231F20"/>
<path d="M201.952 205.63C202.366 205.895 202.482 206.269 202.651 206.709C204.775 212.268 206.496 218.082 208.376 223.737C208.8 225.013 210.384 229.188 210.495 230.259C210.523 230.528 210.344 230.855 210.236 231.096C210.047 231.033 209.703 230.948 209.556 230.798C209.388 230.628 201.717 207.653 201.587 206.382C201.55 206.022 201.743 205.897 201.952 205.63Z" fill="#231F20"/>
<path d="M215.682 132.866C216.021 132.862 216.428 132.82 216.739 132.976C217.941 133.578 218.78 135.984 219.335 137.157C216.292 138.62 213.246 140.059 210.16 141.427C209.681 141.666 209.017 142.101 208.471 142.061C208.049 142.03 207.541 141.772 207.301 141.411C207.075 141.071 207.099 140.649 207.231 140.281C207.944 138.304 213.616 133.88 215.682 132.866Z" fill="#231F20"/>
<path d="M92.0357 130.359C94.0919 130.326 96.7308 133.446 98.3473 134.713C98.507 134.382 98.6971 133.879 98.9644 133.636C99.2967 133.333 99.8238 133.412 100.23 133.459C100.517 133.661 100.59 133.707 100.685 134.066C100.921 134.955 99.647 138.695 99.1177 139.5C98.7188 139.743 98.316 139.891 97.8458 139.842C97.5349 139.636 97.5088 139.502 97.3314 139.177C97.1647 138.872 97.0391 138.685 96.7269 138.513C95.7131 137.956 93.1331 137.595 91.8278 137.201C91.0462 136.964 89.908 136.688 89.4971 135.919C89.7259 135.124 91.5906 131.014 92.0357 130.359Z" fill="#231F20"/>
<path d="M83.6243 232.581C84.5872 230.331 92.2551 213.954 93.0605 213.187C92.4999 215.178 91.5359 217.142 90.734 219.051C88.9409 223.32 86.857 228.403 84.5506 232.365C84.3638 232.715 84.1506 233.035 84.1337 233.441L84.4471 233.47V233.813L84.5699 233.521C105.971 236.943 127.404 237.963 149.049 237.776C155.293 237.722 161.544 237.658 167.783 237.395C176.43 237.032 185.081 236.484 193.709 235.817L201.738 235.184C203.868 234.999 207.808 234.346 209.729 234.715C209.537 234.962 209.121 235.011 208.816 235.083C207.99 235.277 207.119 235.351 206.282 235.504C202.256 236.24 198.193 236.739 194.139 237.284C170.388 240.474 147.173 240.499 123.295 239.121C114.378 238.606 105.492 238.009 96.6088 237.058C94.1402 236.794 83.6454 235.845 82.1747 234.831C81.8771 234.626 81.8244 234.484 81.7436 234.142C82.1903 232.871 82.8502 233.763 83.6243 232.581Z" fill="#231F20"/>
<path d="M152.253 60.1107C152.991 59.9901 153.851 60.0309 154.604 60.0173C159.015 59.9373 163.41 60.5266 167.501 62.2447C172.486 64.3384 176.836 68.2151 178.897 73.2946C180.133 76.3402 180.227 79.8407 178.916 82.8798C178.495 83.8534 177.859 84.7082 177.295 85.6C175.048 89.1525 173.579 90.382 169.657 91.9701C169.634 94.4777 169.585 96.973 169.831 99.4715C171.942 95.8165 174.493 93.0788 178.266 91.1304C180.695 89.8758 182.979 89.251 185.69 89.0171C186.31 88.9635 187.186 88.8267 187.767 89.0905C188.1 89.2414 188.134 89.3969 188.257 89.7101C187.824 90.7111 186.707 91.6747 186.088 93.0119C189.022 93.1497 190.911 93.8459 193.532 95.1381C194.302 95.5179 195.208 95.8659 195.798 96.5033C195.895 96.8269 195.923 96.8703 195.824 97.1884C195.307 97.4352 194.747 97.5704 194.214 97.7769C188.431 100.017 191.488 103.765 190.6 105.211C190.589 105.229 190.394 105.467 190.337 105.478C189.753 105.591 186.255 104.007 185.188 103.826C180.533 103.038 176.112 103.606 171.57 104.693C171.732 106.51 172.104 108.336 172.399 110.136C174.362 109.806 176.275 110.011 178.04 110.956C179.923 111.965 181.273 113.652 181.877 115.698C182.598 118.137 182.166 121.04 180.942 123.248C179.673 125.538 177.837 126.363 175.454 127.055C175.325 129.282 174.644 131.365 173.983 133.476C183.893 137.608 192.254 145.718 196.683 155.487C199.451 161.591 200.225 169.19 199.218 175.807C198.935 177.671 198.11 179.542 197.966 181.385C197.837 183.033 197.958 184.75 197.906 186.411C197.734 191.866 197.101 197.437 195.171 202.571C198.039 202.651 200.917 202.593 203.787 202.607L219.036 202.687C221.311 202.687 227.73 202.325 229.64 202.894C227.17 203.243 224.618 203.315 222.126 203.44C217.882 203.654 213.637 203.801 209.388 203.88L185.683 204.35C182.454 204.398 179.154 204.159 175.938 204.397C173.753 204.558 171.63 205.965 169.582 206.723C163.843 208.848 157.138 209.962 151.038 209.496C146.294 209.133 141.555 208.115 138.328 204.367C132.569 204.618 126.789 204.424 121.027 204.368C119.168 204.35 114.875 204.573 113.226 204.138C112.872 203.765 112.794 203.271 112.664 202.787C115.825 202.609 119.038 202.696 122.206 202.682C117.59 195.873 115.578 187.753 114.783 179.655C110.722 181.671 106.754 184.303 103.388 187.347C101.669 188.836 100.051 190.479 98.4009 192.046C99.8011 193.054 101.363 193.877 102.838 194.774C105.165 196.189 107.478 197.721 109.926 198.916C109.965 199.849 110.167 200.807 110.431 201.7C111.1 203.958 112.159 206.033 112.713 208.347C113.66 212.3 113.949 216.303 115.241 220.181L117 219.72C117.043 219.196 117.077 218.665 117.156 218.145C117.561 215.484 119.504 213.362 121.61 211.833C124.884 209.456 129.476 208.459 133.455 209.132C136.122 209.584 140.252 211.848 141.804 214.11C142.991 215.84 142.944 217.536 142.582 219.505C143.847 219.524 145.171 219.52 146.393 219.884C147.209 220.127 148.291 220.748 148.69 221.529C149.039 222.212 148.877 223.223 148.607 223.906C148.089 225.218 146.707 226.272 145.445 226.839C142.886 227.989 134.912 227.268 131.795 227.245C129.507 227.228 127.218 227.356 124.93 227.369C121.091 227.39 117.281 227.275 113.454 226.966C111.551 226.812 109.309 226.713 107.54 225.969C107.081 225.776 106.477 225.395 106.333 224.88C106.248 224.571 106.339 224.248 106.478 223.972C107.341 222.273 112.963 220.927 114.726 220.415C109.924 218.61 105.622 216.092 101.139 213.626C96.0352 210.818 90.9903 208.204 86.4184 204.54C85.996 205.353 85.5459 206.141 84.9132 206.811C83.938 207.845 82.7361 208.54 81.2865 208.543C78.9804 208.548 76.7808 207.062 75.2288 205.465C72.2241 202.374 70.2769 198.2 70.3621 193.845C70.4472 189.506 72.5977 185.371 75.6959 182.398C79.0146 179.213 83.0177 177.743 87.5778 177.847C88.2862 176.539 89.1528 175.293 90.0378 174.098C96.1762 165.815 103.631 158.757 112.492 153.448C115.091 151.891 117.97 150.237 120.997 149.789C122.314 147.425 123.978 145.245 125.931 143.379C123.862 139.172 122.552 135.744 121.551 131.126C120.632 131.002 119.782 130.787 118.951 130.369C117.229 129.504 115.96 127.948 115.388 126.118C114.8 124.239 115.062 122.17 116.013 120.458C117.025 118.636 118.581 117.598 120.539 117.076C120.017 111.123 118.787 105.366 117.631 99.5136C114.407 99.7719 111.26 99.2589 108.347 97.8229C105.43 96.3853 102.897 93.8767 101.875 90.7354C100.869 87.6461 101.918 84.2544 103.358 81.4804C106.27 75.8726 111.527 71.3363 117.578 69.4697C120.952 68.429 125.323 68.189 128.524 69.8896C129.747 68.8083 130.96 67.7137 132.298 66.7736C138.154 62.6575 145.184 60.6746 152.253 60.1107Z" fill="#231F20"/>
<path d="M181.456 99.1918C182.362 99.2156 183.297 99.2273 184.187 99.4142C186.065 99.8085 186.94 100.973 187.953 102.466C185.103 101.643 182.445 101.335 179.493 101.353C177.186 101.342 174.803 101.777 172.55 102.243C175.054 100.608 178.468 99.4487 181.456 99.1918Z" fill="#FEFEFE"/>
<path d="M120.384 119.269C120.615 119.514 120.547 120.009 120.542 120.331C120.499 123.405 120.956 126.25 121.404 129.271C120.703 128.947 120.081 128.576 119.437 128.151C119.004 127.754 118.579 127.354 118.238 126.872C117.44 125.749 117.043 124.43 117.318 123.06C117.678 121.262 118.947 120.228 120.384 119.269Z" fill="#FEFEFE"/>
<path d="M183.605 91.4441L183.711 91.6196C183.402 92.4859 183.121 93.3434 182.891 94.2341C178.98 96.0222 174.953 98.11 171.509 100.701L171.422 100.566C171.442 100.493 171.47 100.376 171.504 100.302C171.795 99.6443 172.493 98.9303 172.948 98.3688C175.811 94.8343 179.368 92.9304 183.605 91.4441Z" fill="#FEFEFE"/>
<path d="M93.5138 190.524C98.9035 193.298 103.955 196.775 109.254 199.731C109.29 200.359 109.4 200.963 109.514 201.581C108.218 201.082 106.886 200.132 105.673 199.439C101.814 197.231 98.0707 194.828 94.2037 192.646C94.0077 191.929 93.7523 191.228 93.5138 190.524Z" fill="#FEFEFE"/>
<path d="M184.946 95.124C187.494 94.8147 190.324 95.4573 192.498 96.8133C190.804 97.7247 189.933 98.4715 188.98 100.174C188.379 99.3235 187.739 98.711 186.778 98.2784C184.552 97.2771 182.136 97.7155 179.95 98.5447C178.447 99.0511 176.967 99.7397 175.502 100.353C176.794 99.3031 178.255 98.4493 179.58 97.4342C179.547 97.4441 179.515 97.4538 179.483 97.4643L179.322 97.5173C177.898 97.9743 176.604 98.78 175.221 99.3515C177.104 97.785 179.664 96.0518 182.093 95.5279C183.025 95.3266 183.999 95.3038 184.946 95.124Z" fill="#FEFEFE"/>
<path d="M195.351 186.163C195.478 187.208 195.379 188.344 195.337 189.397C195.152 193.912 194.374 198.008 193.195 202.37C188.354 202.456 183.514 202.374 178.673 202.525C178.679 202.302 181.247 200.717 181.613 200.46C187.082 196.622 191.878 191.901 195.351 186.163Z" fill="#FEFEFE"/>
<path d="M93.9119 194.275C95.5992 195.114 97.2011 196.775 98.5856 198.06C104.687 203.727 110.691 210.548 113.615 218.439C111.111 217.258 108.613 216.217 106.019 215.243C101.928 213.565 98.0639 210.889 94.3145 208.56C91.7789 206.986 88.9966 205.454 86.6975 203.549C86.6619 200.55 85.5394 197.954 84.3806 195.24C86.2797 196.49 88.0642 197.188 90.384 196.751C92.0329 196.44 93.0167 195.631 93.9119 194.275Z" fill="#FEFEFE"/>
<path d="M84.5203 179.985C87.6567 179.758 90.7408 180.19 93.4579 181.869C95.206 182.95 96.1065 184.285 96.5814 186.256C96.3641 186.96 96.0916 187.976 95.3421 188.306C94.2758 188.774 92.729 187.208 91.7262 186.847C91.2787 186.686 90.7983 186.653 90.3719 186.906C88.408 188.067 91.6005 191.041 90.5783 193.803C90.1334 195.005 89.1162 195.575 88.024 196.08C85.4012 195.391 83.6475 193.721 81.6813 191.956C82.0697 194.354 82.7309 196.483 83.6716 198.712C84.1115 199.671 84.5415 200.713 84.7311 201.755C84.9412 202.91 84.7949 203.986 84.0911 204.947C83.5342 205.707 82.7541 206.248 81.8051 206.359C80.3633 206.527 78.9459 205.774 77.8432 204.91C74.9754 202.664 72.8072 198.824 72.3921 195.202C71.9908 191.7 73.2312 188.126 75.4166 185.404C77.722 182.532 80.8121 180.387 84.5203 179.985Z" fill="#FEFEFE"/>
<path d="M119.902 151.705C120.122 151.932 119.031 154.251 118.824 154.784C115.822 162.525 114.752 169.248 114.728 177.552C109.486 179.76 104.917 182.987 100.71 186.781C99.2567 188.092 97.8988 189.871 96.1992 190.835C96.5613 190.099 97.1229 189.554 97.5717 188.88C98.5892 187.352 98.6216 186.097 98.282 184.348C98.1354 183.992 97.9719 183.641 97.7846 183.306C96.1767 180.423 92.9019 178.975 89.8795 178.14C96.5095 168.883 103.261 161.931 112.909 155.789C115.181 154.343 117.577 153.066 119.902 151.705Z" fill="#FEFEFE"/>
<path d="M126.241 143.831C126.793 144.381 127.251 145.173 127.707 145.813C127.029 148.139 126.3 150.425 125.445 152.693C124.805 154.392 124.047 156.052 123.487 157.78C127.348 157.248 129.98 157.686 133.765 158.096C136.672 158.411 139.584 158.703 142.497 158.959C149.444 159.569 156.412 159.923 163.357 160.527C162.947 161.924 162.662 163.285 162.601 164.744C162.397 169.639 164.165 176.365 166.041 180.866C160.437 186.931 152.82 190.552 145.146 193.202C144.532 193.357 143.235 192.342 142.55 192.134C140.419 191.489 137.498 191.954 135.574 193.031C134 193.912 133.142 195.077 132.662 196.784C132.8 197.525 132.97 198.225 133.332 198.896C134.163 200.437 135.541 201.003 137.125 201.474C137.271 201.892 137.439 202.302 137.602 202.714L124.044 202.657C120.494 196.996 118.443 190.603 117.21 184.065C116.816 181.975 116.419 179.609 116.381 177.484C116.194 167.117 120.415 152.413 126.241 143.831Z" fill="#FEFEFE"/>
<path d="M158.201 176.935C158.55 176.911 158.921 176.872 159.269 176.923C159.992 177.029 160.681 177.528 161.072 178.136C161.528 178.845 161.659 179.753 161.44 180.565C161.139 181.68 160.381 182.363 159.4 182.899C158.944 183.03 158.487 183.092 158.022 182.971C157.354 182.798 156.815 182.402 156.479 181.797C156.036 181 155.961 179.985 156.231 179.12C156.572 178.027 157.214 177.454 158.201 176.935Z" fill="#231F20"/>
<path d="M157.135 163.347C157.498 163.385 157.883 163.415 158.229 163.538C158.961 163.798 159.591 164.357 159.875 165.086C160.201 165.922 160.086 166.888 159.708 167.687C159.188 168.787 158.353 169.423 157.223 169.805C156.676 169.799 156.184 169.765 155.707 169.47C155.012 169.039 154.565 168.354 154.382 167.564C154.163 166.616 154.334 165.591 154.872 164.777C155.434 163.928 156.167 163.564 157.135 163.347Z" fill="#231F20"/>
<path d="M168.962 105.922C169.514 106.743 170.028 110.016 170.282 111.126C169.832 111.242 169.391 111.378 168.948 111.514C168.187 112.326 167.371 113.347 166.949 114.378L167.038 114.558L167.381 114.625C168.142 114.228 168.668 112.93 169.374 112.311C169.912 112.269 170.442 112.456 170.983 112.465C171.947 112.483 172.869 112.214 173.862 112.299C175.708 112.457 177.568 113.408 178.727 114.862C179.747 116.142 180.108 117.728 179.94 119.339C179.743 121.227 178.96 123.051 177.436 124.245C176.318 125.121 174.68 125.667 173.259 125.393C172.679 125.282 172.173 125.022 171.572 124.951C171.273 125.175 171.256 125.27 171.113 125.622C171.138 125.824 171.118 125.95 171.252 126.117C171.819 126.819 173.255 126.949 174.103 127.024C172.33 134.869 168.453 141.702 161.935 146.544C156.276 150.749 148.992 152.952 141.977 151.925C138.755 151.455 135.624 150.206 133.047 148.207C125.976 142.72 123.498 133.295 122.7 124.775C122.382 121.38 122.374 117.982 121.961 114.59C135.663 116.999 157.048 113.203 168.962 105.922Z" fill="#FEFEFE"/>
<path d="M173.772 115.764C174.044 115.732 174.361 115.67 174.633 115.688C174.982 115.711 175.032 115.771 175.233 116.02L175.177 116.282C174.608 116.882 173.72 117.202 172.995 117.604C173.552 117.822 174.138 117.893 174.452 118.464C174.686 118.889 174.722 119.384 174.553 119.839C174.328 120.445 173.815 120.9 173.241 121.172C172.678 121.438 172.353 121.432 171.77 121.24C172.384 120.742 173.221 120.216 173.458 119.424C173.527 119.19 173.46 119.173 173.355 118.976C172.487 118.624 171.575 119.044 170.729 119.301C171.303 117.674 172.347 116.662 173.772 115.764Z" fill="#231F20"/>
<path d="M125.705 121.886C127.452 121.761 127.087 123.17 128.31 123.738C129.588 124.333 130.575 122.799 131.667 122.418C132.073 122.277 132.31 122.354 132.676 122.545C132.846 122.739 132.926 122.852 132.979 123.112C133.159 123.992 132.501 125.142 132.051 125.856C131.301 126.756 130.494 127.375 129.297 127.491C128.255 127.591 127.246 127.238 126.476 126.532C125.745 125.862 125.138 124.832 125.111 123.82C125.09 123.061 125.159 122.436 125.705 121.886Z" fill="#231F20"/>
<path d="M155.659 116.764C155.967 116.765 156.111 116.763 156.366 116.946C156.554 117.284 156.622 117.563 156.649 117.951C156.764 119.631 155.955 121.682 154.836 122.913C154.23 123.579 153.438 124.058 152.522 124.089C151.116 124.136 149.929 123.246 148.963 122.323C148.384 121.564 147.941 120.656 147.846 119.693C147.813 119.367 147.852 119.118 148.057 118.854C148.581 118.667 150.835 120.215 151.636 120.439C151.686 120.453 151.738 120.466 151.789 120.479C152.252 120.369 152.711 120.242 153.172 120.123C153.8 118.804 154.458 117.649 155.659 116.764Z" fill="#231F20"/>
<path d="M138.05 123.632C138.328 123.74 138.438 123.793 138.6 124.046C139.235 128.335 135.64 134.483 133.23 137.893C139.215 138.884 144.578 137.977 150.016 135.317C149.205 136.241 148.158 136.906 147.126 137.554C146.718 137.776 146.308 137.997 145.89 138.2C142.197 139.996 134.894 141.242 130.962 139.794C130.49 139.62 130.049 139.366 129.86 138.873C129.59 138.173 130.034 137.146 130.365 136.543C131.171 135.072 132.479 133.796 133.415 132.391C135.248 129.64 136.697 126.64 138.05 123.632Z" fill="#231F20"/>
<path d="M181.178 140.829C182.06 141.207 182.931 141.995 183.661 142.607C187.737 146.029 191.732 150.731 194.053 155.535C197.473 162.616 198.529 172.614 195.898 180.093C192.411 190.01 182.581 198.329 173.293 202.721C164.92 206.68 153.031 209.138 144.154 205.891C141.774 205.021 140.159 203.708 139.093 201.377C140.109 201.091 140.838 200.894 141.396 199.95L141.298 199.702C140.12 199.113 138.076 200.082 136.678 199.748C135.968 199.579 135.06 199.202 134.698 198.521C134.327 197.823 134.32 197.056 134.559 196.323C135.201 195.487 136.049 194.909 137.013 194.5C138.322 193.945 141.483 193.283 142.594 194.384C143.051 194.836 143.075 195.455 143.715 195.728C145.26 195.582 146.99 194.746 148.445 194.187C155.907 191.322 162.645 187.3 167.84 181.101C172.219 175.874 175.273 168.908 174.648 161.971C174.355 163.395 174.2 164.847 173.895 166.272C172.702 171.842 170.456 175.646 166.926 180.013C165.184 175.458 163.021 167.5 164.063 162.774C164.415 161.176 165.268 159.626 165.959 158.151C169.538 150.519 174.196 145.494 181.178 140.829Z" fill="#FEFEFE"/>
<path d="M152.941 62.338C159.736 61.9121 166.823 63.0893 172.271 67.4214C175.349 69.8684 177.54 73.0492 177.987 77.0218C178.323 80.0049 177.702 82.7648 175.796 85.1192C172.97 88.61 168.656 90.6251 164.234 91.0781C160.92 91.4175 158.093 91.0311 155.488 88.8994C155.98 89.9663 156.537 90.7644 157.533 91.4347C160.369 93.3437 164.559 92.9675 167.733 92.402C167.003 96.447 167.974 100.638 168.714 104.614C167.061 105.643 165.192 106.359 163.391 107.089C152.597 111.463 140.779 113.248 129.212 113.874L121.873 114.007C121.408 111.842 121.169 109.585 120.796 107.398C120.32 104.608 119.703 101.862 119.061 99.1068C121.225 98.6412 122.467 97.9526 123.683 96.0753C120.675 97.9814 117.734 98.5881 114.203 98.0297C110.703 97.4763 106.802 95.7456 104.7 92.7722C103.464 91.0238 103.14 89.0377 103.497 86.9568C104.338 82.0464 107.855 77.4325 111.872 74.6237C116.554 71.3507 121.789 69.9047 127.446 70.9089C125.816 72.9684 125.013 74.6287 124.594 77.2333C125.755 75.8323 126.405 74.115 127.678 72.7297C133.991 65.8597 143.82 62.7388 152.941 62.338Z" fill="#FEFEFE"/>
<path d="M158.653 84.7414L158.747 84.9579C158.068 86.7672 155.678 89.0537 154.195 90.2411C148.69 94.6498 140.756 97.5022 133.666 96.7048C131.275 96.4361 128.744 95.6377 127.2 93.6833C126.932 93.2626 126.632 92.8752 126.696 92.362C127.232 92.1897 129.147 93.8613 129.789 94.1392C132.31 95.2285 135.508 95.2254 138.192 94.9629C143.626 94.4317 149.882 92.6114 154.235 89.2354C155.899 87.9444 157.322 86.3652 158.653 84.7414Z" fill="#231F20"/>
</svg>
